STARTFONT 2.1
COMMENT  Product Version MAUI VERSION
FONTBOUNDINGBOX 20 20 0 -3 
STARTPROPERTIES 2
FONT_ASCENT 16
FONT_DESCENT 4
ENDPROPERTIES
CHARS 7351
STARTCHAR 00a4
ENCODING 164
SWIDTH 520 0
DWIDTH 20 0
BBX 20 20 0 -3
BITMAP
000000
400040
200080
10e100
0b1a00
040400
080200
080200
100100
100100
100100
100100
080200
080200
040400
0b1a00
10e100
200080
400040
000000
ENDCHAR
STARTCHAR 00a7
ENCODING 167
SWIDTH 520 0
DWIDTH 20 0
BBX 20 20 0 -3
BITMAP
000000
00f000
010800
020c00
020000
010000
00c000
01e000
023000
021800
030800
018800
00f000
003000
001800
000800
060800
021000
01e000
000000
ENDCHAR
STARTCHAR 00a8
ENCODING 168
SWIDTH 520 0
DWIDTH 20 0
BBX 20 20 0 -3
BITMAP
000000
000000
000000
060c00
0f1e00
0f1e00
060c00
000000
000000
000000
000000
000000
000000
000000
000000
000000
000000
000000
000000
000000
ENDCHAR
STARTCHAR 00b0
ENCODING 176
SWIDTH 520 0
DWIDTH 20 0
BBX 20 20 0 -3
BITMAP
000000
000000
0e0000
110000
110000
110000
0e0000
000000
000000
000000
000000
000000
000000
000000
000000
000000
000000
000000
000000
000000
ENDCHAR
STARTCHAR 00b1
ENCODING 177
SWIDTH 520 0
DWIDTH 20 0
BBX 20 20 0 -3
BITMAP
000000
000000
004000
004000
004000
004000
004000
1fff00
004000
004000
004000
004000
004000
000000
000000
000000
1fff00
000000
000000
000000
ENDCHAR
STARTCHAR 00b7
ENCODING 183
SWIDTH 520 0
DWIDTH 20 0
BBX 20 20 0 -3
BITMAP
000000
000000
000000
000000
000000
000000
000000
000000
000000
00c000
01e000
01e000
00c000
000000
000000
000000
000000
000000
000000
000000
ENDCHAR
STARTCHAR 00d7
ENCODING 215
SWIDTH 520 0
DWIDTH 20 0
BBX 20 20 0 -3
BITMAP
000000
000000
000000
000000
080200
040400
020800
011000
00a000
004000
00a000
011000
020800
040400
080200
000000
000000
000000
000000
000000
ENDCHAR
STARTCHAR 00e0
ENCODING 224
SWIDTH 520 0
DWIDTH 20 0
BBX 20 20 0 -3
BITMAP
000000
000000
010000
008000
004000
002000
000000
03e800
041800
040800
040800
040800
040800
040800
041800
03ec00
000000
000000
000000
000000
ENDCHAR
STARTCHAR 00e1
ENCODING 225
SWIDTH 520 0
DWIDTH 20 0
BBX 20 20 0 -3
BITMAP
000000
000000
002000
004000
008000
010000
000000
03e800
041800
040800
040800
040800
040800
040800
041800
03ec00
000000
000000
000000
000000
ENDCHAR
STARTCHAR 00e8
ENCODING 232
SWIDTH 520 0
DWIDTH 20 0
BBX 20 20 0 -3
BITMAP
000000
000000
008000
004000
002000
001000
000000
01f000
020800
040400
040400
07fc00
040000
040000
020400
01f800
000000
000000
000000
000000
ENDCHAR
STARTCHAR 00e9
ENCODING 233
SWIDTH 520 0
DWIDTH 20 0
BBX 20 20 0 -3
BITMAP
000000
000000
001000
002000
004000
008000
000000
01f000
020800
040400
040400
07fc00
040000
040000
020400
01f800
000000
000000
000000
000000
ENDCHAR
STARTCHAR 00ea
ENCODING 234
SWIDTH 520 0
DWIDTH 20 0
BBX 20 20 0 -3
BITMAP
000000
000000
004000
00a000
011000
020800
000000
01f000
020800
040400
040400
07fc00
040000
040000
020400
01f800
000000
000000
000000
000000
ENDCHAR
STARTCHAR 00ec
ENCODING 236
SWIDTH 520 0
DWIDTH 20 0
BBX 20 20 0 -3
BITMAP
000000
000000
008000
004000
002000
000000
000000
004000
004000
004000
004000
004000
004000
004000
004000
004000
000000
000000
000000
000000
ENDCHAR
STARTCHAR 00ed
ENCODING 237
SWIDTH 520 0
DWIDTH 20 0
BBX 20 20 0 -3
BITMAP
000000
000000
000000
002000
004000
008000
000000
004000
004000
004000
004000
004000
004000
004000
004000
004000
000000
000000
000000
000000
ENDCHAR
STARTCHAR 00f2
ENCODING 242
SWIDTH 520 0
DWIDTH 20 0
BBX 20 20 0 -3
BITMAP
000000
000000
008000
004000
002000
001000
000000
01f000
020800
040400
040400
040400
040400
040400
020800
01f000
000000
000000
000000
000000
ENDCHAR
STARTCHAR 00f3
ENCODING 243
SWIDTH 520 0
DWIDTH 20 0
BBX 20 20 0 -3
BITMAP
000000
000000
001000
002000
004000
008000
000000
01f000
020800
040400
040400
040400
040400
040400
020800
01f000
000000
000000
000000
000000
ENDCHAR
STARTCHAR 00f7
ENCODING 247
SWIDTH 520 0
DWIDTH 20 0
BBX 20 20 0 -3
BITMAP
000000
000000
00c000
01e000
01e000
00c000
000000
000000
000000
3fff00
000000
000000
000000
00c000
01e000
01e000
00c000
000000
000000
000000
ENDCHAR
STARTCHAR 00f9
ENCODING 249
SWIDTH 520 0
DWIDTH 20 0
BBX 20 20 0 -3
BITMAP
000000
000000
008000
004000
002000
001000
000000
020800
020800
020800
020800
020800
020800
021800
022800
01cc00
000000
000000
000000
000000
ENDCHAR
STARTCHAR 00fa
ENCODING 250
SWIDTH 520 0
DWIDTH 20 0
BBX 20 20 0 -3
BITMAP
000000
000000
001000
002000
004000
008000
000000
020800
020800
020800
020800
020800
020800
021800
022800
01cc00
000000
000000
000000
000000
ENDCHAR
STARTCHAR 00fc
ENCODING 252
SWIDTH 520 0
DWIDTH 20 0
BBX 20 20 0 -3
BITMAP
000000
000000
000000
000000
000000
000000
011000
000000
020800
020800
020800
020800
020800
021800
022800
01cc00
000000
000000
000000
000000
ENDCHAR
STARTCHAR 0101
ENCODING 257
SWIDTH 520 0
DWIDTH 20 0
BBX 20 20 0 -3
BITMAP
000000
000000
000000
03f800
000000
000000
000000
03e800
041800
040800
040800
040800
040800
040800
041800
03ec00
000000
000000
000000
000000
ENDCHAR
STARTCHAR 0113
ENCODING 275
SWIDTH 520 0
DWIDTH 20 0
BBX 20 20 0 -3
BITMAP
000000
000000
000000
03f800
000000
000000
000000
01f000
020800
040400
040400
07fc00
040000
040000
020400
01f800
000000
000000
000000
000000
ENDCHAR
STARTCHAR 011b
ENCODING 283
SWIDTH 520 0
DWIDTH 20 0
BBX 20 20 0 -3
BITMAP
000000
000000
011000
00a000
004000
000000
000000
01f000
020800
040400
040400
07fc00
040000
040000
020400
01f800
000000
000000
000000
000000
ENDCHAR
STARTCHAR 012b
ENCODING 299
SWIDTH 520 0
DWIDTH 20 0
BBX 20 20 0 -3
BITMAP
000000
000000
000000
00e000
000000
000000
000000
004000
004000
004000
004000
004000
004000
004000
004000
004000
000000
000000
000000
000000
ENDCHAR
STARTCHAR 0144
ENCODING 324
SWIDTH 520 0
DWIDTH 20 0
BBX 20 20 0 -3
BITMAP
000000
000000
002000
004000
008000
010000
000000
047000
028800
030800
020800
020800
020800
020800
020800
020c00
000000
000000
000000
000000
ENDCHAR
STARTCHAR 0148
ENCODING 328
SWIDTH 520 0
DWIDTH 20 0
BBX 20 20 0 -3
BITMAP
000000
000000
000000
011000
00a000
004000
000000
047000
028800
030800
020800
020800
020800
020800
020800
020c00
000000
000000
000000
000000
ENDCHAR
STARTCHAR 014d
ENCODING 333
SWIDTH 520 0
DWIDTH 20 0
BBX 20 20 0 -3
BITMAP
000000
000000
000000
03f800
000000
000000
000000
01f000
020800
040400
040400
040400
040400
040400
020800
01f000
000000
000000
000000
000000
ENDCHAR
STARTCHAR 016b
ENCODING 363
SWIDTH 520 0
DWIDTH 20 0
BBX 20 20 0 -3
BITMAP
000000
000000
000000
03f800
000000
000000
000000
020800
020800
020800
020800
020800
020800
021800
022800
01cc00
000000
000000
000000
000000
ENDCHAR
STARTCHAR 01ce
ENCODING 462
SWIDTH 520 0
DWIDTH 20 0
BBX 20 20 0 -3
BITMAP
000000
000000
000000
011000
00a000
004000
000000
03e800
041800
040800
040800
040800
040800
040800
041800
03ec00
000000
000000
000000
000000
ENDCHAR
STARTCHAR 01d0
ENCODING 464
SWIDTH 520 0
DWIDTH 20 0
BBX 20 20 0 -3
BITMAP
000000
000000
011000
00a000
004000
000000
000000
004000
004000
004000
004000
004000
004000
004000
004000
004000
000000
000000
000000
000000
ENDCHAR
STARTCHAR 01d2
ENCODING 466
SWIDTH 520 0
DWIDTH 20 0
BBX 20 20 0 -3
BITMAP
000000
000000
011000
00a000
004000
000000
000000
01f000
020800
040400
040400
040400
040400
040400
020800
01f000
000000
000000
000000
000000
ENDCHAR
STARTCHAR 01d4
ENCODING 468
SWIDTH 520 0
DWIDTH 20 0
BBX 20 20 0 -3
BITMAP
000000
000000
011000
00a000
004000
000000
000000
020800
020800
020800
020800
020800
020800
021800
022800
01cc00
000000
000000
000000
000000
ENDCHAR
STARTCHAR 01d6
ENCODING 470
SWIDTH 520 0
DWIDTH 20 0
BBX 20 20 0 -3
BITMAP
000000
000000
000000
03f800
000000
000000
011000
000000
020800
020800
020800
020800
020800
021800
022800
01cc00
000000
000000
000000
000000
ENDCHAR
STARTCHAR 01d8
ENCODING 472
SWIDTH 520 0
DWIDTH 20 0
BBX 20 20 0 -3
BITMAP
000000
000000
002000
004000
008000
000000
011000
000000
020800
020800
020800
020800
020800
021800
022800
01cc00
000000
000000
000000
000000
ENDCHAR
STARTCHAR 01da
ENCODING 474
SWIDTH 520 0
DWIDTH 20 0
BBX 20 20 0 -3
BITMAP
000000
000000
011000
00a000
004000
000000
011000
000000
020800
020800
020800
020800
020800
021800
022800
01cc00
000000
000000
000000
000000
ENDCHAR
STARTCHAR 01dc
ENCODING 476
SWIDTH 520 0
DWIDTH 20 0
BBX 20 20 0 -3
BITMAP
000000
000000
004000
002000
001000
000000
011000
000000
020800
020800
020800
020800
020800
021800
022800
01cc00
000000
000000
000000
000000
ENDCHAR
STARTCHAR 0251
ENCODING 593
SWIDTH 520 0
DWIDTH 20 0
BBX 20 20 0 -3
BITMAP
000000
000000
000000
000000
000000
000000
000000
03e800
041800
040800
040800
040800
040800
040800
041800
03ec00
000000
000000
000000
000000
ENDCHAR
STARTCHAR 0261
ENCODING 609
SWIDTH 520 0
DWIDTH 20 0
BBX 20 20 0 -3
BITMAP
000000
000000
000000
000000
000000
000000
01e600
021800
020800
020800
01f000
020000
020000
010000
03f800
040400
040400
040400
03f800
000000
ENDCHAR
STARTCHAR 02c7
ENCODING 711
SWIDTH 520 0
DWIDTH 20 0
BBX 20 20 0 -3
BITMAP
000000
040400
020800
011000
00a000
004000
000000
000000
000000
000000
000000
000000
000000
000000
000000
000000
000000
000000
000000
000000
ENDCHAR
STARTCHAR 02c9
ENCODING 713
SWIDTH 520 0
DWIDTH 20 0
BBX 20 20 0 -3
BITMAP
000000
000000
000000
000000
07fc00
000000
000000
000000
000000
000000
000000
000000
000000
000000
000000
000000
000000
000000
000000
000000
ENDCHAR
STARTCHAR 0391
ENCODING 913
SWIDTH 520 0
DWIDTH 20 0
BBX 20 20 0 -3
BITMAP
000000
000000
004000
004000
00e000
00a000
013000
011000
021800
020800
07fc00
040400
080600
080200
100300
100100
7c07c0
000000
000000
000000
ENDCHAR
STARTCHAR 0392
ENCODING 914
SWIDTH 520 0
DWIDTH 20 0
BBX 20 20 0 -3
BITMAP
000000
000000
0ff000
060c00
060600
060600
060600
060400
060800
07f000
060c00
060600
060600
060600
060600
060c00
0ff000
000000
000000
000000
ENDCHAR
STARTCHAR 0393
ENCODING 915
SWIDTH 520 0
DWIDTH 20 0
BBX 20 20 0 -3
BITMAP
000000
000000
3ffe00
0c0600
0c0200
0c0000
0c0000
0c0000
0c0000
0c0000
0c0000
0c0000
0c0000
0c0000
0c0000
0c0000
3f0000
000000
000000
000000
ENDCHAR
STARTCHAR 0394
ENCODING 916
SWIDTH 520 0
DWIDTH 20 0
BBX 20 20 0 -3
BITMAP
000000
000000
000000
004000
006000
00a000
00b000
011000
011800
020800
020c00
040400
040600
080200
080300
100100
3fff80
000000
000000
000000
ENDCHAR
STARTCHAR 0395
ENCODING 917
SWIDTH 520 0
DWIDTH 20 0
BBX 20 20 0 -3
BITMAP
000000
000000
1ffe00
0c0600
0c0200
0c0000
0c0000
0c1000
0c3000
0ff000
0c3000
0c1000
0c0000
0c0000
0c0200
0c0600
1ffe00
000000
000000
000000
ENDCHAR
STARTCHAR 0396
ENCODING 918
SWIDTH 520 0
DWIDTH 20 0
BBX 20 20 0 -3
BITMAP
000000
000000
0ffe00
0c0600
080c00
080800
001800
003000
002000
006000
00c000
008000
018000
030200
020200
060600
0ffe00
000000
000000
000000
ENDCHAR
STARTCHAR 0397
ENCODING 919
SWIDTH 520 0
DWIDTH 20 0
BBX 20 20 0 -3
BITMAP
000000
000000
3f1f80
0c0600
0c0600
0c0600
0c0600
0c0600
0c0600
0ffe00
0c0600
0c0600
0c0600
0c0600
0c0600
0c0600
3f1f80
000000
000000
000000
ENDCHAR
STARTCHAR 0398
ENCODING 920
SWIDTH 520 0
DWIDTH 20 0
BBX 20 20 0 -3
BITMAP
000000
000000
03f000
0c0c00
180600
300300
200100
640980
640980
67f980
67f980
640980
640980
200100
300300
180600
0c0c00
03f000
000000
000000
ENDCHAR
STARTCHAR 0399
ENCODING 921
SWIDTH 520 0
DWIDTH 20 0
BBX 20 20 0 -3
BITMAP
000000
000000
03f000
00c000
00c000
00c000
00c000
00c000
00c000
00c000
00c000
00c000
00c000
00c000
00c000
00c000
03f000
000000
000000
000000
ENDCHAR
STARTCHAR 039a
ENCODING 922
SWIDTH 520 0
DWIDTH 20 0
BBX 20 20 0 -3
BITMAP
000000
000000
3f1e00
0c0800
0c1000
0c2000
0c4000
0c8000
0f0000
0d8000
0cc000
0c6000
0c3000
0c1800
0c0c00
0c0600
3f0f80
000000
000000
000000
ENDCHAR
STARTCHAR 039b
ENCODING 923
SWIDTH 520 0
DWIDTH 20 0
BBX 20 20 0 -3
BITMAP
000000
000000
004000
004000
00e000
00a000
013000
011000
021800
020800
040c00
040400
080600
080200
100300
100100
7c07c0
000000
000000
000000
ENDCHAR
STARTCHAR 039c
ENCODING 924
SWIDTH 520 0
DWIDTH 20 0
BBX 20 20 0 -3
BITMAP
000000
000000
180380
0c0300
0c0700
0e0700
0a0b00
0b0b00
091300
099300
08a300
08e300
084300
084300
080300
080300
1c0780
000000
000000
000000
ENDCHAR
STARTCHAR 039d
ENCODING 925
SWIDTH 520 0
DWIDTH 20 0
BBX 20 20 0 -3
BITMAP
000000
000000
180e00
0c0400
0c0400
0a0400
0b0400
090400
098400
08c400
084400
086400
083400
081400
081c00
080c00
1c0400
000000
000000
000000
ENDCHAR
STARTCHAR 039e
ENCODING 926
SWIDTH 520 0
DWIDTH 20 0
BBX 20 20 0 -3
BITMAP
000000
000000
3fff00
3fff00
200100
200100
000000
040800
040800
07f800
07f800
040800
040800
000000
200100
200100
3fff00
3fff00
000000
000000
ENDCHAR
STARTCHAR 039f
ENCODING 927
SWIDTH 520 0
DWIDTH 20 0
BBX 20 20 0 -3
BITMAP
000000
000000
01f000
060c00
0c0600
080200
180300
180300
180300
180300
180300
180300
180300
180300
080200
0c0600
060c00
01f000
000000
000000
ENDCHAR
STARTCHAR 03a0
ENCODING 928
SWIDTH 520 0
DWIDTH 20 0
BBX 20 20 0 -3
BITMAP
000000
000000
7fffc0
0c0600
0c0600
0c0600
0c0600
0c0600
0c0600
0c0600
0c0600
0c0600
0c0600
0c0600
0c0600
0c0600
1e0f00
3f1f80
000000
000000
ENDCHAR
STARTCHAR 03a1
ENCODING 929
SWIDTH 520 0
DWIDTH 20 0
BBX 20 20 0 -3
BITMAP
000000
000000
3ff800
0c0c00
0c0600
0c0600
0c0600
0c0600
0c0c00
0ff800
0c0000
0c0000
0c0000
0c0000
0c0000
0c0000
3f0000
000000
000000
000000
ENDCHAR
STARTCHAR 03a3
ENCODING 931
SWIDTH 520 0
DWIDTH 20 0
BBX 20 20 0 -3
BITMAP
000000
000000
3fff80
180180
0c0080
060080
030000
018000
00c000
006000
004000
008000
010000
020080
040080
080180
1fff80
3fff80
000000
000000
ENDCHAR
STARTCHAR 03a4
ENCODING 932
SWIDTH 520 0
DWIDTH 20 0
BBX 20 20 0 -3
BITMAP
000000
000000
3fff00
20c100
00c000
00c000
00c000
00c000
00c000
00c000
00c000
00c000
00c000
00c000
00c000
00c000
03f000
000000
000000
000000
ENDCHAR
STARTCHAR 03a5
ENCODING 933
SWIDTH 520 0
DWIDTH 20 0
BBX 20 20 0 -3
BITMAP
000000
000000
001800
072400
08c000
00c000
00c000
00c000
00c000
00c000
00c000
00c000
00c000
00c000
00c000
00c000
03f000
000000
000000
000000
ENDCHAR
STARTCHAR 03a6
ENCODING 934
SWIDTH 520 0
DWIDTH 20 0
BBX 20 20 0 -3
BITMAP
000000
000000
01f800
00f000
006000
006000
07fe00
186180
3060c0
3060c0
3060c0
3060c0
186180
0fff00
006000
006000
00f000
01f800
000000
000000
ENDCHAR
STARTCHAR 03a7
ENCODING 935
SWIDTH 520 0
DWIDTH 20 0
BBX 20 20 0 -3
BITMAP
000000
000000
7c07c0
180100
0c0200
060400
030800
019000
00e000
004000
00e000
013000
021800
040c00
080600
100300
7c07c0
000000
000000
000000
ENDCHAR
STARTCHAR 03a8
ENCODING 936
SWIDTH 520 0
DWIDTH 20 0
BBX 20 20 0 -3
BITMAP
000000
000000
00f000
206040
106080
186180
186180
186180
186180
0c6300
07fe00
006000
006000
006000
006000
00f000
000000
000000
000000
000000
ENDCHAR
STARTCHAR 03a9
ENCODING 937
SWIDTH 520 0
DWIDTH 20 0
BBX 20 20 0 -3
BITMAP
000000
000000
03f000
0c0c00
180600
300300
300300
300300
300300
300300
300300
180600
0e1c00
021000
021000
221100
3e1f00
000000
000000
000000
ENDCHAR
STARTCHAR 03b1
ENCODING 945
SWIDTH 520 0
DWIDTH 20 0
BBX 20 20 0 -3
BITMAP
000000
000000
000000
000000
000000
03cc00
042800
081800
080800
080800
080800
080800
080800
081800
042800
03c600
000000
000000
000000
000000
ENDCHAR
STARTCHAR 03b2
ENCODING 946
SWIDTH 520 0
DWIDTH 20 0
BBX 20 20 0 -3
BITMAP
000000
000000
03f000
040800
040800
040800
041000
042000
07f000
040800
040400
040400
040400
040400
070800
04f000
040000
040000
040000
040000
ENDCHAR
STARTCHAR 03b3
ENCODING 947
SWIDTH 520 0
DWIDTH 20 0
BBX 20 20 0 -3
BITMAP
000000
000000
000000
000000
060200
190400
208800
008800
009000
009000
009000
006000
006000
004000
004000
004000
004000
004000
004000
000000
ENDCHAR
STARTCHAR 03b4
ENCODING 948
SWIDTH 520 0
DWIDTH 20 0
BBX 20 20 0 -3
BITMAP
000000
000000
01f000
020800
020000
010000
008000
006000
019000
020800
040400
040400
040400
040400
040400
020800
01f000
000000
000000
000000
ENDCHAR
STARTCHAR 03b5
ENCODING 949
SWIDTH 520 0
DWIDTH 20 0
BBX 20 20 0 -3
BITMAP
000000
000000
000000
000000
000000
01f000
020800
020000
010000
008000
006000
018000
020000
020000
020800
01f000
000000
000000
000000
000000
ENDCHAR
STARTCHAR 03b6
ENCODING 950
SWIDTH 520 0
DWIDTH 20 0
BBX 20 20 0 -3
BITMAP
000000
018000
020000
021800
023000
01c000
008000
010000
020000
040000
040000
040000
040000
020000
01f800
000400
000400
000400
00f800
000000
ENDCHAR
STARTCHAR 03b7
ENCODING 951
SWIDTH 520 0
DWIDTH 20 0
BBX 20 20 0 -3
BITMAP
000000
000000
000000
000000
000000
067800
0a8400
0b0400
020400
020400
020400
020400
020400
020400
020400
020400
000400
000400
000400
000400
ENDCHAR
STARTCHAR 03b8
ENCODING 952
SWIDTH 520 0
DWIDTH 20 0
BBX 20 20 0 -3
BITMAP
000000
000000
01f000
020800
040400
040400
040400
040400
040400
07fc00
040400
040400
040400
040400
040400
020800
01f000
000000
000000
000000
ENDCHAR
STARTCHAR 03b9
ENCODING 953
SWIDTH 520 0
DWIDTH 20 0
BBX 20 20 0 -3
BITMAP
000000
000000
000000
000000
00c000
004000
004000
004000
004000
004000
004000
004000
004000
004800
005000
002000
000000
000000
000000
000000
ENDCHAR
STARTCHAR 03ba
ENCODING 954
SWIDTH 520 0
DWIDTH 20 0
BBX 20 20 0 -3
BITMAP
000000
000000
000000
000000
0c0600
040800
041000
042000
074000
048000
044000
042000
041000
040800
0e1e00
000000
000000
000000
000000
000000
ENDCHAR
STARTCHAR 03bb
ENCODING 955
SWIDTH 520 0
DWIDTH 20 0
BBX 20 20 0 -3
BITMAP
000000
000000
030000
048000
004000
004000
004000
004000
004000
00c000
00a000
012000
011000
021000
020a00
040400
000000
000000
000000
000000
ENDCHAR
STARTCHAR 03bc
ENCODING 956
SWIDTH 520 0
DWIDTH 20 0
BBX 20 20 0 -3
BITMAP
000000
000000
000000
000000
000000
020400
020400
020400
020400
020400
020400
020400
020400
020c00
031500
02e200
020000
020000
020000
020000
ENDCHAR
STARTCHAR 03bd
ENCODING 957
SWIDTH 520 0
DWIDTH 20 0
BBX 20 20 0 -3
BITMAP
000000
000000
000000
000000
000000
0c0800
040400
040400
040800
020800
021000
021000
012000
012000
014000
008000
000000
000000
000000
000000
ENDCHAR
STARTCHAR 03be
ENCODING 958
SWIDTH 520 0
DWIDTH 20 0
BBX 20 20 0 -3
BITMAP
000000
030000
040000
040000
03e000
040000
040000
020000
01e000
020000
040000
080000
080000
080000
07f000
000800
000800
041000
03e000
000000
ENDCHAR
STARTCHAR 03bf
ENCODING 959
SWIDTH 520 0
DWIDTH 20 0
BBX 20 20 0 -3
BITMAP
000000
000000
000000
000000
000000
01e000
021000
040800
040800
080400
080400
080400
040800
040800
021000
01e000
000000
000000
000000
000000
ENDCHAR
STARTCHAR 03c0
ENCODING 960
SWIDTH 520 0
DWIDTH 20 0
BBX 20 20 0 -3
BITMAP
000000
000000
000000
000000
000000
1fff00
221000
021000
021000
021000
021000
021000
021000
041000
0c1400
080800
000000
000000
000000
000000
ENDCHAR
STARTCHAR 03c1
ENCODING 961
SWIDTH 520 0
DWIDTH 20 0
BBX 20 20 0 -3
BITMAP
000000
000000
000000
000000
01e000
021000
040800
040800
080800
080800
080800
080800
0c0800
0a1000
09e000
080000
080000
080000
080000
000000
ENDCHAR
STARTCHAR 03c3
ENCODING 963
SWIDTH 520 0
DWIDTH 20 0
BBX 20 20 0 -3
BITMAP
000000
000000
000000
000000
000000
03ff80
040800
080400
080400
080400
080400
080400
080400
080400
040800
03f000
000000
000000
000000
000000
ENDCHAR
STARTCHAR 03c4
ENCODING 964
SWIDTH 520 0
DWIDTH 20 0
BBX 20 20 0 -3
BITMAP
000000
000000
000000
000000
000000
03f800
044000
004000
004000
004000
004000
004000
004000
004000
004800
003000
000000
000000
000000
000000
ENDCHAR
STARTCHAR 03c5
ENCODING 965
SWIDTH 520 0
DWIDTH 20 0
BBX 20 20 0 -3
BITMAP
000000
000000
000000
000000
000000
040800
0a0400
020400
020400
020400
020400
020400
020800
020800
021000
01e000
000000
000000
000000
000000
ENDCHAR
STARTCHAR 03c6
ENCODING 966
SWIDTH 520 0
DWIDTH 20 0
BBX 20 20 0 -3
BITMAP
000000
004000
004000
004000
03f800
044400
084200
084200
084200
084200
084200
084200
084200
044400
03f800
004000
004000
004000
004000
000000
ENDCHAR
STARTCHAR 03c7
ENCODING 967
SWIDTH 520 0
DWIDTH 20 0
BBX 20 20 0 -3
BITMAP
000000
000000
000000
040200
0a0200
010400
010400
008800
009000
005000
006000
004000
00a000
00a000
011000
021000
040a00
080400
000000
000000
ENDCHAR
STARTCHAR 03c8
ENCODING 968
SWIDTH 520 0
DWIDTH 20 0
BBX 20 20 0 -3
BITMAP
000000
004000
004000
004000
184800
244400
044400
044400
044400
044400
044400
044400
044400
044400
03f800
004000
004000
004000
004000
000000
ENDCHAR
STARTCHAR 03c9
ENCODING 969
SWIDTH 520 0
DWIDTH 20 0
BBX 20 20 0 -3
BITMAP
000000
000000
000000
000000
000000
020800
040400
080200
080200
084200
084200
084200
084200
084200
04a400
031800
000000
000000
000000
000000
ENDCHAR
STARTCHAR 0401
ENCODING 1025
SWIDTH 520 0
DWIDTH 20 0
BBX 20 20 0 -3
BITMAP
000000
021000
073800
021000
000000
1ffe00
0c0600
0c0200
0c0000
0c0000
0c1000
0ff000
0c1000
0c0000
0c0000
0c0200
0c0600
1ffe00
000000
000000
ENDCHAR
STARTCHAR 0410
ENCODING 1040
SWIDTH 520 0
DWIDTH 20 0
BBX 20 20 0 -3
BITMAP
000000
000000
004000
004000
00e000
00a000
013000
011000
021800
020800
07fc00
040400
080600
080200
100300
100100
7c07c0
000000
000000
000000
ENDCHAR
STARTCHAR 0411
ENCODING 1041
SWIDTH 520 0
DWIDTH 20 0
BBX 20 20 0 -3
BITMAP
000000
000000
0ffe00
060600
060200
060000
060000
060000
060000
07f000
060c00
060600
060600
060600
060600
060c00
0ff000
000000
000000
000000
ENDCHAR
STARTCHAR 0412
ENCODING 1042
SWIDTH 520 0
DWIDTH 20 0
BBX 20 20 0 -3
BITMAP
000000
000000
0ff000
060c00
060600
060600
060600
060400
060800
07f000
060c00
060600
060600
060600
060600
060c00
0ff000
000000
000000
000000
ENDCHAR
STARTCHAR 0413
ENCODING 1043
SWIDTH 520 0
DWIDTH 20 0
BBX 20 20 0 -3
BITMAP
000000
000000
3ffe00
0c0600
0c0200
0c0000
0c0000
0c0000
0c0000
0c0000
0c0000
0c0000
0c0000
0c0000
0c0000
0c0000
3f0000
000000
000000
000000
ENDCHAR
STARTCHAR 0414
ENCODING 1044
SWIDTH 520 0
DWIDTH 20 0
BBX 20 20 0 -3
BITMAP
000000
000000
07ff00
008c00
008c00
008c00
008c00
008c00
010c00
010c00
020c00
020c00
040c00
040c00
080c00
1fff80
200180
200080
000000
000000
ENDCHAR
STARTCHAR 0415
ENCODING 1045
SWIDTH 520 0
DWIDTH 20 0
BBX 20 20 0 -3
BITMAP
000000
000000
1ffe00
0c0600
0c0200
0c0000
0c0000
0c1000
0c3000
0ff000
0c3000
0c1000
0c0000
0c0000
0c0200
0c0600
1ffe00
000000
000000
000000
ENDCHAR
STARTCHAR 0416
ENCODING 1046
SWIDTH 520 0
DWIDTH 20 0
BBX 20 20 0 -3
BITMAP
000000
000000
31e300
48c480
08c400
04c800
04c800
02d000
02d000
01e000
02d000
06d800
04c800
0ccc00
08c400
18c600
71e380
000000
000000
000000
ENDCHAR
STARTCHAR 0417
ENCODING 1047
SWIDTH 520 0
DWIDTH 20 0
BBX 20 20 0 -3
BITMAP
000000
000000
00f000
050c00
060600
040600
000600
000400
000800
007000
000800
000400
000600
000600
040600
030c00
00f800
000000
000000
000000
ENDCHAR
STARTCHAR 0418
ENCODING 1048
SWIDTH 520 0
DWIDTH 20 0
BBX 20 20 0 -3
BITMAP
000000
000000
1e0f00
0c0600
0c0600
0c0e00
0c1600
0c1600
0c2600
0c4600
0c8600
0d0600
0d0600
0e0600
0c0600
0c0600
1e0f00
000000
000000
000000
ENDCHAR
STARTCHAR 0419
ENCODING 1049
SWIDTH 520 0
DWIDTH 20 0
BBX 20 20 0 -3
BITMAP
000000
020800
01f000
000000
1e0f00
0c0600
0c0600
0c0e00
0c1600
0c2600
0c4600
0c8600
0d0600
0e0600
0c0600
0c0600
1e0f00
000000
000000
000000
ENDCHAR
STARTCHAR 041a
ENCODING 1050
SWIDTH 520 0
DWIDTH 20 0
BBX 20 20 0 -3
BITMAP
000000
000000
3e0c00
0c1200
0c1000
0c2000
0c2000
0c4000
0c8000
0f8000
0cc000
0c6000
0c3000
0c1800
0c0c00
0c0600
3e0f80
000000
000000
000000
ENDCHAR
STARTCHAR 041b
ENCODING 1051
SWIDTH 520 0
DWIDTH 20 0
BBX 20 20 0 -3
BITMAP
000000
000000
0ffe00
040c00
040c00
040c00
040c00
040c00
040c00
040c00
040c00
040c00
040c00
040c00
240c00
181e00
000000
000000
000000
000000
ENDCHAR
STARTCHAR 041c
ENCODING 1052
SWIDTH 520 0
DWIDTH 20 0
BBX 20 20 0 -3
BITMAP
000000
000000
180380
0c0300
0c0700
0e0700
0a0b00
0b0b00
091300
099300
08a300
08e300
084300
084300
080300
080300
1c0780
000000
000000
000000
ENDCHAR
STARTCHAR 041d
ENCODING 1053
SWIDTH 520 0
DWIDTH 20 0
BBX 20 20 0 -3
BITMAP
000000
000000
3f1f80
0c0600
0c0600
0c0600
0c0600
0c0600
0c0600
0ffe00
0c0600
0c0600
0c0600
0c0600
0c0600
0c0600
3f1f80
000000
000000
000000
ENDCHAR
STARTCHAR 041e
ENCODING 1054
SWIDTH 520 0
DWIDTH 20 0
BBX 20 20 0 -3
BITMAP
000000
000000
01f000
060c00
0c0600
080200
180300
180300
180300
180300
180300
180300
180300
180300
080200
0c0600
060c00
01f000
000000
000000
ENDCHAR
STARTCHAR 041f
ENCODING 1055
SWIDTH 520 0
DWIDTH 20 0
BBX 20 20 0 -3
BITMAP
000000
000000
7fffc0
0c0600
0c0600
0c0600
0c0600
0c0600
0c0600
0c0600
0c0600
0c0600
0c0600
0c0600
0c0600
0c0600
1e0f00
3f1f80
000000
000000
ENDCHAR
STARTCHAR 0420
ENCODING 1056
SWIDTH 520 0
DWIDTH 20 0
BBX 20 20 0 -3
BITMAP
000000
000000
3ff800
0c0c00
0c0600
0c0600
0c0600
0c0600
0c0c00
0ff800
0c0000
0c0000
0c0000
0c0000
0c0000
0c0000
3f0000
000000
000000
000000
ENDCHAR
STARTCHAR 0421
ENCODING 1057
SWIDTH 520 0
DWIDTH 20 0
BBX 20 20 0 -3
BITMAP
000000
000000
00fa00
030600
060200
0c0000
0c0000
0c0000
0c0000
0c0000
0c0000
0c0000
0c0000
0c0000
060200
030400
00f800
000000
000000
000000
ENDCHAR
STARTCHAR 0422
ENCODING 1058
SWIDTH 520 0
DWIDTH 20 0
BBX 20 20 0 -3
BITMAP
000000
000000
3fff00
20c100
00c000
00c000
00c000
00c000
00c000
00c000
00c000
00c000
00c000
00c000
00c000
00c000
03f000
000000
000000
000000
ENDCHAR
STARTCHAR 0423
ENCODING 1059
SWIDTH 520 0
DWIDTH 20 0
BBX 20 20 0 -3
BITMAP
000000
000000
1e0e00
0c0400
040400
060400
020800
030800
010800
019000
009000
00e000
006000
004000
184000
088000
070000
000000
000000
000000
ENDCHAR
STARTCHAR 0424
ENCODING 1060
SWIDTH 520 0
DWIDTH 20 0
BBX 20 20 0 -3
BITMAP
000000
000000
01f800
00f000
006000
006000
07fe00
186180
3060c0
3060c0
3060c0
3060c0
186180
0fff00
006000
006000
00f000
01f800
000000
000000
ENDCHAR
STARTCHAR 0425
ENCODING 1061
SWIDTH 520 0
DWIDTH 20 0
BBX 20 20 0 -3
BITMAP
000000
000000
7c07c0
180100
0c0200
060400
030800
019000
00e000
004000
00e000
013000
021800
040c00
080600
100300
7c07c0
000000
000000
000000
ENDCHAR
STARTCHAR 0426
ENCODING 1062
SWIDTH 520 0
DWIDTH 20 0
BBX 20 20 0 -3
BITMAP
000000
000000
3f3f00
0c0c00
0c0c00
0c0c00
0c0c00
0c0c00
0c0c00
0c0c00
0c0c00
0c0c00
0c0c00
0c0c00
0c0c00
3fff80
000180
000080
000080
000000
ENDCHAR
STARTCHAR 0427
ENCODING 1063
SWIDTH 520 0
DWIDTH 20 0
BBX 20 20 0 -3
BITMAP
000000
000000
1e1e00
0c0c00
0c0c00
0c0c00
0c0c00
0c0c00
0c0c00
061c00
03ec00
000c00
000c00
000c00
000c00
000c00
001e00
000000
000000
000000
ENDCHAR
STARTCHAR 0428
ENCODING 1064
SWIDTH 520 0
DWIDTH 20 0
BBX 20 20 0 -3
BITMAP
000000
000000
79e780
30c300
30c300
30c300
30c300
30c300
30c300
30c300
30c300
30c300
30c300
30c300
30c300
7fff80
000000
000000
000000
000000
ENDCHAR
STARTCHAR 0429
ENCODING 1065
SWIDTH 520 0
DWIDTH 20 0
BBX 20 20 0 -3
BITMAP
000000
000000
79e780
30c300
30c300
30c300
30c300
30c300
30c300
30c300
30c300
30c300
30c300
30c300
7fffc0
0000c0
000040
000000
000000
000000
ENDCHAR
STARTCHAR 042a
ENCODING 1066
SWIDTH 520 0
DWIDTH 20 0
BBX 20 20 0 -3
BITMAP
000000
000000
3f8000
330000
230000
030000
030000
03f000
030c00
030600
030300
030300
030300
030600
030c00
07f000
000000
000000
000000
000000
ENDCHAR
STARTCHAR 042b
ENCODING 1067
SWIDTH 520 0
DWIDTH 20 0
BBX 20 20 0 -3
BITMAP
000000
000000
1e03c0
0c0180
0c0180
0c0180
0c0180
0fc180
0c2180
0c3180
0c1980
0c1980
0c1980
0c3180
0c2180
1fc3c0
000000
000000
000000
000000
ENDCHAR
STARTCHAR 042c
ENCODING 1068
SWIDTH 520 0
DWIDTH 20 0
BBX 20 20 0 -3
BITMAP
000000
000000
0f0000
060000
060000
060000
060000
07f000
060c00
060600
060300
060300
060300
060600
060c00
0ff000
000000
000000
000000
000000
ENDCHAR
STARTCHAR 042d
ENCODING 1069
SWIDTH 520 0
DWIDTH 20 0
BBX 20 20 0 -3
BITMAP
000000
000000
27e000
281800
300c00
200400
000600
000600
000600
03fe00
000600
000600
000600
200400
100c00
0c1800
03e000
000000
000000
000000
ENDCHAR
STARTCHAR 042e
ENCODING 1070
SWIDTH 520 0
DWIDTH 20 0
BBX 20 20 0 -3
BITMAP
000000
000000
3c3c00
186600
18c300
188100
198180
198180
198180
1f8180
198180
198180
198180
188100
18c300
186600
3c3c00
000000
000000
000000
ENDCHAR
STARTCHAR 042f
ENCODING 1071
SWIDTH 520 0
DWIDTH 20 0
BBX 20 20 0 -3
BITMAP
000000
000000
01fe00
060c00
0c0c00
0c0c00
0c0c00
0c0c00
060c00
03fc00
006c00
00cc00
018c00
030c00
060c00
0c0c00
3e1e00
000000
000000
000000
ENDCHAR
STARTCHAR 0430
ENCODING 1072
SWIDTH 520 0
DWIDTH 20 0
BBX 20 20 0 -3
BITMAP
000000
000000
000000
000000
03f000
040800
000800
000800
00f800
030800
040800
080800
081800
042a00
03c400
000000
000000
000000
000000
000000
ENDCHAR
STARTCHAR 0431
ENCODING 1073
SWIDTH 520 0
DWIDTH 20 0
BBX 20 20 0 -3
BITMAP
000000
000400
01f800
060000
080000
080000
080000
0bf000
0c0800
080400
080400
080400
080400
080400
040800
03f000
000000
000000
000000
000000
ENDCHAR
STARTCHAR 0432
ENCODING 1074
SWIDTH 520 0
DWIDTH 20 0
BBX 20 20 0 -3
BITMAP
000000
000000
000000
000000
0ff000
040800
040800
040800
041000
07e000
041000
040800
040800
040800
0ff000
000000
000000
000000
000000
000000
ENDCHAR
STARTCHAR 0433
ENCODING 1075
SWIDTH 520 0
DWIDTH 20 0
BBX 20 20 0 -3
BITMAP
000000
000000
000000
000000
0ffc00
040400
040000
040000
040000
040000
040000
040000
040000
040000
0e0000
000000
000000
000000
000000
000000
ENDCHAR
STARTCHAR 0434
ENCODING 1076
SWIDTH 520 0
DWIDTH 20 0
BBX 20 20 0 -3
BITMAP
000000
000000
000000
000000
03ff00
008c00
008c00
008c00
008c00
010c00
010c00
020c00
020c00
040c00
0fff80
100180
200080
200000
000000
000000
ENDCHAR
STARTCHAR 0435
ENCODING 1077
SWIDTH 520 0
DWIDTH 20 0
BBX 20 20 0 -3
BITMAP
000000
000000
000000
000000
03f000
040800
080400
080400
080400
0ffc00
080000
080000
080000
040400
03f800
000000
000000
000000
000000
000000
ENDCHAR
STARTCHAR 0436
ENCODING 1078
SWIDTH 520 0
DWIDTH 20 0
BBX 20 20 0 -3
BITMAP
000000
000000
000000
000000
30e180
084200
044400
044400
024800
01f000
024800
044400
044400
084200
30e180
000000
000000
000000
000000
000000
ENDCHAR
STARTCHAR 0437
ENCODING 1079
SWIDTH 520 0
DWIDTH 20 0
BBX 20 20 0 -3
BITMAP
000000
000000
000000
000000
05f800
060400
040400
000400
000800
007000
000800
000400
000400
040400
03f800
000000
000000
000000
000000
000000
ENDCHAR
STARTCHAR 0438
ENCODING 1080
SWIDTH 520 0
DWIDTH 20 0
BBX 20 20 0 -3
BITMAP
000000
000000
000000
000000
1c0e00
080400
080c00
081400
082400
084400
088400
090400
0a0400
0c0400
080400
1c0e00
000000
000000
000000
000000
ENDCHAR
STARTCHAR 0439
ENCODING 1081
SWIDTH 520 0
DWIDTH 20 0
BBX 20 20 0 -3
BITMAP
000000
021000
01e000
000000
1c0e00
080400
080c00
081400
082400
084400
088400
090400
0a0400
0c0400
080400
1c0e00
000000
000000
000000
000000
ENDCHAR
STARTCHAR 043a
ENCODING 1082
SWIDTH 520 0
DWIDTH 20 0
BBX 20 20 0 -3
BITMAP
000000
000000
000000
000000
0e0c00
041000
042000
044000
048000
070000
048000
044000
042000
041000
0e0c00
000000
000000
000000
000000
000000
ENDCHAR
STARTCHAR 043b
ENCODING 1083
SWIDTH 520 0
DWIDTH 20 0
BBX 20 20 0 -3
BITMAP
000000
000000
000000
000000
0ffe00
010800
010800
010800
010800
010800
010800
010800
010800
090800
061c00
000000
000000
000000
000000
000000
ENDCHAR
STARTCHAR 043c
ENCODING 1084
SWIDTH 520 0
DWIDTH 20 0
BBX 20 20 0 -3
BITMAP
000000
000000
000000
000000
180300
0c0600
0c0600
0a0a00
0a0a00
091200
091200
08a200
084200
080200
1c0700
000000
000000
000000
000000
000000
ENDCHAR
STARTCHAR 043d
ENCODING 1085
SWIDTH 520 0
DWIDTH 20 0
BBX 20 20 0 -3
BITMAP
000000
000000
000000
000000
0e0e00
040400
040400
040400
040400
07fc00
040400
040400
040400
040400
0e0e00
000000
000000
000000
000000
000000
ENDCHAR
STARTCHAR 043e
ENCODING 1086
SWIDTH 520 0
DWIDTH 20 0
BBX 20 20 0 -3
BITMAP
000000
000000
000000
000000
01f000
020800
040400
040400
040400
040400
040400
040400
040400
020800
01f000
000000
000000
000000
000000
000000
ENDCHAR
STARTCHAR 043f
ENCODING 1087
SWIDTH 520 0
DWIDTH 20 0
BBX 20 20 0 -3
BITMAP
000000
000000
000000
000000
0ffc00
040800
040800
040800
040800
040800
040800
040800
040800
040800
0e1c00
000000
000000
000000
000000
000000
ENDCHAR
STARTCHAR 0440
ENCODING 1088
SWIDTH 520 0
DWIDTH 20 0
BBX 20 20 0 -3
BITMAP
000000
000000
000000
000000
000000
0df000
060800
040400
040400
040400
040400
040400
040400
060800
05f000
040000
040000
040000
040000
000000
ENDCHAR
STARTCHAR 0441
ENCODING 1089
SWIDTH 520 0
DWIDTH 20 0
BBX 20 20 0 -3
BITMAP
000000
000000
000000
000000
03f800
040400
080000
080000
080000
080000
080000
080000
080000
040400
03f800
000000
000000
000000
000000
000000
ENDCHAR
STARTCHAR 0442
ENCODING 1090
SWIDTH 520 0
DWIDTH 20 0
BBX 20 20 0 -3
BITMAP
000000
000000
000000
000000
0ffe00
084200
004000
004000
004000
004000
004000
004000
004000
004000
00e000
000000
000000
000000
000000
000000
ENDCHAR
STARTCHAR 0443
ENCODING 1091
SWIDTH 520 0
DWIDTH 20 0
BBX 20 20 0 -3
BITMAP
000000
000000
000000
000000
000000
0f0e00
020400
020800
010800
011000
009000
00a000
006000
004000
004000
008000
008000
090000
060000
000000
ENDCHAR
STARTCHAR 0444
ENCODING 1092
SWIDTH 520 0
DWIDTH 20 0
BBX 20 20 0 -3
BITMAP
000000
004000
00c000
004000
004000
075c00
08e200
084200
084200
084200
084200
084200
084200
08e200
075c00
004000
004000
004000
00e000
000000
ENDCHAR
STARTCHAR 0445
ENCODING 1093
SWIDTH 520 0
DWIDTH 20 0
BBX 20 20 0 -3
BITMAP
000000
000000
000000
000000
0e0e00
040400
020800
011000
00a000
004000
00a000
011000
020800
040400
0e0e00
000000
000000
000000
000000
000000
ENDCHAR
STARTCHAR 0446
ENCODING 1094
SWIDTH 520 0
DWIDTH 20 0
BBX 20 20 0 -3
BITMAP
000000
000000
000000
000000
0e0e00
040400
040400
040400
040400
040400
040400
040400
040400
040400
0fff80
000180
000080
000000
000000
000000
ENDCHAR
STARTCHAR 0447
ENCODING 1095
SWIDTH 520 0
DWIDTH 20 0
BBX 20 20 0 -3
BITMAP
000000
000000
000000
000000
0e1c00
040800
040800
040800
040800
041800
03e800
000800
000800
000800
000800
001c00
000000
000000
000000
000000
ENDCHAR
STARTCHAR 0448
ENCODING 1096
SWIDTH 520 0
DWIDTH 20 0
BBX 20 20 0 -3
BITMAP
000000
000000
000000
3ce780
084200
084200
084200
084200
084200
084200
084200
084200
084200
084200
084200
3fff80
000000
000000
000000
000000
ENDCHAR
STARTCHAR 0449
ENCODING 1097
SWIDTH 520 0
DWIDTH 20 0
BBX 20 20 0 -3
BITMAP
000000
000000
000000
3ce780
084200
084200
084200
084200
084200
084200
084200
084200
084200
084200
084200
3fffc0
0000c0
000040
000000
000000
ENDCHAR
STARTCHAR 044a
ENCODING 1098
SWIDTH 520 0
DWIDTH 20 0
BBX 20 20 0 -3
BITMAP
000000
000000
000000
000000
1f0000
120000
020000
020000
020000
03f800
020400
020400
020400
020400
07f800
000000
000000
000000
000000
000000
ENDCHAR
STARTCHAR 044b
ENCODING 1099
SWIDTH 520 0
DWIDTH 20 0
BBX 20 20 0 -3
BITMAP
000000
000000
000000
000000
3c0e00
080400
080400
080400
080400
0f8400
084400
084400
084400
084400
1f8e00
000000
000000
000000
000000
000000
ENDCHAR
STARTCHAR 044c
ENCODING 1100
SWIDTH 520 0
DWIDTH 20 0
BBX 20 20 0 -3
BITMAP
000000
000000
000000
000000
0e0000
040000
040000
040000
040000
07f000
040800
040800
040800
040800
0ff000
000000
000000
000000
000000
000000
ENDCHAR
STARTCHAR 044d
ENCODING 1101
SWIDTH 520 0
DWIDTH 20 0
BBX 20 20 0 -3
BITMAP
000000
000000
000000
000000
01e000
021800
040400
000400
000400
00fc00
000400
000400
040400
020800
01f000
000000
000000
000000
000000
000000
ENDCHAR
STARTCHAR 044e
ENCODING 1102
SWIDTH 520 0
DWIDTH 20 0
BBX 20 20 0 -3
BITMAP
000000
000000
000000
000000
1c3800
084400
088200
088200
088200
0f8200
088200
088200
088200
084400
1c3800
000000
000000
000000
000000
000000
ENDCHAR
STARTCHAR 044f
ENCODING 1103
SWIDTH 520 0
DWIDTH 20 0
BBX 20 20 0 -3
BITMAP
000000
000000
000000
000000
01fe00
020400
020400
020400
020400
01fc00
004400
004400
008400
048400
030e00
000000
000000
000000
000000
000000
ENDCHAR
STARTCHAR 0451
ENCODING 1105
SWIDTH 520 0
DWIDTH 20 0
BBX 20 20 0 -3
BITMAP
000000
033000
000000
000000
03f000
040800
080400
080400
080400
0ffc00
080000
080000
080000
040400
03f800
000000
000000
000000
000000
000000
ENDCHAR
STARTCHAR 2014
ENCODING 8212
SWIDTH 520 0
DWIDTH 20 0
BBX 20 20 0 -3
BITMAP
000000
000000
000000
000000
000000
000000
000000
000000
000000
7fffc0
000000
000000
000000
000000
000000
000000
000000
000000
000000
000000
ENDCHAR
STARTCHAR 2016
ENCODING 8214
SWIDTH 520 0
DWIDTH 20 0
BBX 20 20 0 -3
BITMAP
000000
000000
011000
011000
011000
011000
011000
011000
011000
011000
011000
011000
011000
011000
011000
011000
011000
011000
000000
000000
ENDCHAR
STARTCHAR 2018
ENCODING 8216
SWIDTH 520 0
DWIDTH 20 0
BBX 20 20 0 -3
BITMAP
000000
000100
000200
000400
000c00
000e00
000e00
000400
000000
000000
000000
000000
000000
000000
000000
000000
000000
000000
000000
000000
ENDCHAR
STARTCHAR 2019
ENCODING 8217
SWIDTH 520 0
DWIDTH 20 0
BBX 20 20 0 -3
BITMAP
000000
000000
080000
1c0000
1c0000
0c0000
080000
100000
200000
000000
000000
000000
000000
000000
000000
000000
000000
000000
000000
000000
ENDCHAR
STARTCHAR 201c
ENCODING 8220
SWIDTH 520 0
DWIDTH 20 0
BBX 20 20 0 -3
BITMAP
000000
001080
002100
004200
00c600
00e700
00e700
004200
000000
000000
000000
000000
000000
000000
000000
000000
000000
000000
000000
000000
ENDCHAR
STARTCHAR 201d
ENCODING 8221
SWIDTH 520 0
DWIDTH 20 0
BBX 20 20 0 -3
BITMAP
000000
000000
084000
1ce000
1ce000
0c6000
084000
108000
210000
000000
000000
000000
000000
000000
000000
000000
000000
000000
000000
000000
ENDCHAR
STARTCHAR 2026
ENCODING 8230
SWIDTH 520 0
DWIDTH 20 0
BBX 20 20 0 -3
BITMAP
000000
000000
000000
000000
000000
000000
000000
104100
38e380
38e380
104100
000000
000000
000000
000000
000000
000000
000000
000000
000000
ENDCHAR
STARTCHAR 2030
ENCODING 8240
SWIDTH 520 0
DWIDTH 20 0
BBX 20 20 0 -3
BITMAP
000800
000800
181000
242000
242000
244000
248000
248000
250000
1a0000
02c300
052480
092480
092480
112480
212480
212480
40c300
800000
000000
ENDCHAR
STARTCHAR 2032
ENCODING 8242
SWIDTH 520 0
DWIDTH 20 0
BBX 20 20 0 -3
BITMAP
000000
040000
060000
040000
080000
080000
100000
000000
000000
000000
000000
000000
000000
000000
000000
000000
000000
000000
000000
000000
ENDCHAR
STARTCHAR 2033
ENCODING 8243
SWIDTH 520 0
DWIDTH 20 0
BBX 20 20 0 -3
BITMAP
000000
048000
06c000
048000
048000
090000
090000
120000
000000
000000
000000
000000
000000
000000
000000
000000
000000
000000
000000
000000
ENDCHAR
STARTCHAR 203b
ENCODING 8251
SWIDTH 520 0
DWIDTH 20 0
BBX 20 20 0 -3
BITMAP
000000
000000
40c080
21e100
11e200
08c400
040800
021000
312300
78c780
78c780
312300
021000
040800
08c400
11e200
21e100
40c080
000000
000000
ENDCHAR
STARTCHAR 2103
ENCODING 8451
SWIDTH 520 0
DWIDTH 20 0
BBX 20 20 0 -3
BITMAP
000000
380000
443c80
44c280
458180
3b0080
030080
060080
060000
060000
060000
060000
060000
030080
030080
018100
00c200
003c00
000000
000000
ENDCHAR
STARTCHAR 2116
ENCODING 8470
SWIDTH 520 0
DWIDTH 20 0
BBX 20 20 0 -3
BITMAP
000000
000000
1c3000
0c5800
0c5800
0e4000
0a4700
0a4880
0a4880
0b4880
094880
094880
09c880
08c880
08c700
68c000
684000
305fc0
000000
000000
ENDCHAR
STARTCHAR 2160
ENCODING 8544
SWIDTH 520 0
DWIDTH 20 0
BBX 20 20 0 -3
BITMAP
000000
000000
01f000
004000
004000
004000
004000
004000
004000
004000
004000
004000
004000
004000
004000
004000
004000
01f000
000000
000000
ENDCHAR
STARTCHAR 2161
ENCODING 8545
SWIDTH 520 0
DWIDTH 20 0
BBX 20 20 0 -3
BITMAP
000000
000000
0fbe00
020800
020800
020800
020800
020800
020800
020800
020800
020800
020800
020800
020800
020800
020800
0fbe00
000000
000000
ENDCHAR
STARTCHAR 2162
ENCODING 8546
SWIDTH 520 0
DWIDTH 20 0
BBX 20 20 0 -3
BITMAP
000000
000000
3df780
084200
084200
084200
084200
084200
084200
084200
084200
084200
084200
084200
084200
084200
084200
3df780
000000
000000
ENDCHAR
STARTCHAR 2163
ENCODING 8547
SWIDTH 520 0
DWIDTH 20 0
BBX 20 20 0 -3
BITMAP
000000
000000
3ef3c0
084100
084100
084100
084100
082200
082200
082200
082200
081400
081400
081400
081400
080800
080800
3e0800
000000
000000
ENDCHAR
STARTCHAR 2164
ENCODING 8548
SWIDTH 520 0
DWIDTH 20 0
BBX 20 20 0 -3
BITMAP
000000
000000
3e0f80
080200
080200
040400
040400
040400
020800
020800
020800
011000
011000
011000
00a000
00a000
004000
004000
000000
000000
ENDCHAR
STARTCHAR 2165
ENCODING 8549
SWIDTH 520 0
DWIDTH 20 0
BBX 20 20 0 -3
BITMAP
000000
000000
79ef80
104200
104200
104200
104200
088200
088200
088200
088200
050200
050200
050200
050200
020200
020200
020f80
000000
000000
ENDCHAR
STARTCHAR 2166
ENCODING 8550
SWIDTH 520 0
DWIDTH 20 0
BBX 20 20 0 -3
BITMAP
000000
000000
71ddc0
208880
208880
208880
208880
110880
110880
110880
110880
0a0880
0a0880
0a0880
0a0880
040880
040880
041dc0
000000
000000
ENDCHAR
STARTCHAR 2167
ENCODING 8551
SWIDTH 520 0
DWIDTH 20 0
BBX 20 20 0 -3
BITMAP
000000
000000
e7bfe0
411240
411240
411240
411240
221240
221240
221240
221240
141240
141240
141240
141240
081240
081240
083fe0
000000
000000
ENDCHAR
STARTCHAR 2168
ENCODING 8552
SWIDTH 520 0
DWIDTH 20 0
BBX 20 20 0 -3
BITMAP
000000
000000
f9e3c0
204100
204100
202200
202200
201400
201400
200800
200800
201400
201400
202200
202200
204100
204100
f9e7c0
000000
000000
ENDCHAR
STARTCHAR 2169
ENCODING 8553
SWIDTH 520 0
DWIDTH 20 0
BBX 20 20 0 -3
BITMAP
000000
000000
7c07c0
180100
0c0200
060400
030800
019000
00e000
004000
00e000
013000
021800
040c00
080600
100300
7c07c0
000000
000000
000000
ENDCHAR
STARTCHAR 216a
ENCODING 8554
SWIDTH 520 0
DWIDTH 20 0
BBX 20 20 0 -3
BITMAP
000000
000000
78f7c0
104100
104100
088100
088100
050100
050100
020100
020100
050100
050100
088100
088100
104100
104100
79f7c0
000000
000000
ENDCHAR
STARTCHAR 216b
ENCODING 8555
SWIDTH 520 0
DWIDTH 20 0
BBX 20 20 0 -3
BITMAP
000000
000000
71eee0
208440
208440
110440
110440
0a0440
0a0440
040440
040440
0a0440
0a0440
110440
110440
208440
208440
71eee0
000000
000000
ENDCHAR
STARTCHAR 2190
ENCODING 8592
SWIDTH 520 0
DWIDTH 20 0
BBX 20 20 0 -3
BITMAP
000000
000000
000000
000000
000000
000000
010000
060000
1c0000
7fffc0
1c0000
060000
010000
000000
000000
000000
000000
000000
000000
000000
ENDCHAR
STARTCHAR 2191
ENCODING 8593
SWIDTH 520 0
DWIDTH 20 0
BBX 20 20 0 -3
BITMAP
000000
004000
004000
00e000
00e000
01f000
015000
024800
004000
004000
004000
004000
004000
004000
004000
004000
004000
004000
004000
000000
ENDCHAR
STARTCHAR 2192
ENCODING 8594
SWIDTH 520 0
DWIDTH 20 0
BBX 20 20 0 -3
BITMAP
000000
000000
000000
000000
000000
000000
001000
000c00
000700
7fffc0
000700
000c00
001000
000000
000000
000000
000000
000000
000000
000000
ENDCHAR
STARTCHAR 2193
ENCODING 8595
SWIDTH 520 0
DWIDTH 20 0
BBX 20 20 0 -3
BITMAP
000000
004000
004000
004000
004000
004000
004000
004000
004000
004000
004000
004000
024800
015000
01f000
00e000
00e000
004000
004000
000000
ENDCHAR
STARTCHAR 2208
ENCODING 8712
SWIDTH 520 0
DWIDTH 20 0
BBX 20 20 0 -3
BITMAP
000000
000000
001c00
006000
008000
010000
020000
020000
040000
07fc00
040000
040000
020000
020000
010000
008000
006000
001c00
000000
000000
ENDCHAR
STARTCHAR 220f
ENCODING 8719
SWIDTH 520 0
DWIDTH 20 0
BBX 20 20 0 -3
BITMAP
000000
000000
7fffc0
0c0600
0c0600
0c0600
0c0600
0c0600
0c0600
0c0600
0c0600
0c0600
0c0600
0c0600
0c0600
0c0600
0c0600
3f1f80
000000
000000
ENDCHAR
STARTCHAR 2211
ENCODING 8721
SWIDTH 520 0
DWIDTH 20 0
BBX 20 20 0 -3
BITMAP
000000
000000
3fff80
180180
0c0080
060080
030000
018000
00c000
006000
004000
008000
010000
020000
040080
080080
100180
3fff80
000000
000000
ENDCHAR
STARTCHAR 221a
ENCODING 8730
SWIDTH 520 0
DWIDTH 20 0
BBX 20 20 0 -3
BITMAP
000020
000020
000040
000040
000080
000080
000100
000100
000200
000200
000400
000400
080800
0c0800
161000
231000
01a000
00e000
004000
000000
ENDCHAR
STARTCHAR 221d
ENCODING 8733
SWIDTH 520 0
DWIDTH 20 0
BBX 20 20 0 -3
BITMAP
000000
000000
000000
000000
000000
0e0f00
111080
20a000
204000
204000
204000
20a000
111080
0e0f00
000000
000000
000000
000000
000000
000000
ENDCHAR
STARTCHAR 221e
ENCODING 8734
SWIDTH 520 0
DWIDTH 20 0
BBX 20 20 0 -3
BITMAP
000000
000000
000000
000000
000000
0e0e00
111100
20a080
404040
404040
404040
20a080
111100
0e0e00
000000
000000
000000
000000
000000
000000
ENDCHAR
STARTCHAR 2220
ENCODING 8736
SWIDTH 520 0
DWIDTH 20 0
BBX 20 20 0 -3
BITMAP
000000
000000
000080
000100
000200
000400
000800
001000
002000
004000
008000
010000
020000
040000
080000
100000
200000
7fff80
000000
000000
ENDCHAR
STARTCHAR 2225
ENCODING 8741
SWIDTH 520 0
DWIDTH 20 0
BBX 20 20 0 -3
BITMAP
000000
000000
008400
008400
008400
008400
010800
010800
010800
010800
021000
021000
021000
021000
042000
042000
042000
042000
000000
000000
ENDCHAR
STARTCHAR 2227
ENCODING 8743
SWIDTH 520 0
DWIDTH 20 0
BBX 20 20 0 -3
BITMAP
000000
000000
004000
004000
00a000
00a000
011000
011000
020800
020800
040400
040400
080200
080200
100100
100100
200080
200080
000000
000000
ENDCHAR
STARTCHAR 2228
ENCODING 8744
SWIDTH 520 0
DWIDTH 20 0
BBX 20 20 0 -3
BITMAP
000000
000000
200080
200080
100100
100100
080200
080200
040400
040400
020800
020800
011000
011000
00a000
00a000
004000
004000
000000
000000
ENDCHAR
STARTCHAR 2229
ENCODING 8745
SWIDTH 520 0
DWIDTH 20 0
BBX 20 20 0 -3
BITMAP
000000
000000
03f800
040400
080200
080200
100100
100100
100100
100100
100100
100100
100100
100100
100100
100100
100100
100100
000000
000000
ENDCHAR
STARTCHAR 222a
ENCODING 8746
SWIDTH 520 0
DWIDTH 20 0
BBX 20 20 0 -3
BITMAP
000000
000000
100100
100100
100100
100100
100100
100100
100100
100100
100100
100100
100100
100100
080200
080200
040400
03f800
000000
000000
ENDCHAR
STARTCHAR 222b
ENCODING 8747
SWIDTH 520 0
DWIDTH 20 0
BBX 20 20 0 -3
BITMAP
000000
001800
002400
004600
004600
004000
004000
004000
004000
004000
008000
008000
008000
008000
008000
188000
188000
090000
060000
000000
ENDCHAR
STARTCHAR 222e
ENCODING 8750
SWIDTH 520 0
DWIDTH 20 0
BBX 20 20 0 -3
BITMAP
000000
001800
002400
004600
004600
004000
01e000
025000
044800
044800
048800
048800
029000
01e000
008000
188000
188000
090000
060000
000000
ENDCHAR
STARTCHAR 2234
ENCODING 8756
SWIDTH 520 0
DWIDTH 20 0
BBX 20 20 0 -3
BITMAP
000000
000000
000000
00c000
01e000
01e000
00c000
000000
000000
000000
000000
000000
180600
3c0f00
3c0f00
180600
000000
000000
000000
000000
ENDCHAR
STARTCHAR 2235
ENCODING 8757
SWIDTH 520 0
DWIDTH 20 0
BBX 20 20 0 -3
BITMAP
000000
000000
000000
180600
3c0f00
3c0f00
180600
000000
000000
000000
000000
000000
00c000
01e000
01e000
00c000
000000
000000
000000
000000
ENDCHAR
STARTCHAR 2236
ENCODING 8758
SWIDTH 520 0
DWIDTH 20 0
BBX 20 20 0 -3
BITMAP
000000
000000
000000
018000
03c000
03c000
018000
000000
000000
000000
000000
000000
018000
03c000
03c000
018000
000000
000000
000000
000000
ENDCHAR
STARTCHAR 2237
ENCODING 8759
SWIDTH 520 0
DWIDTH 20 0
BBX 20 20 0 -3
BITMAP
000000
000000
000000
040400
0e0e00
0e0e00
040400
000000
000000
000000
000000
000000
040400
0e0e00
0e0e00
040400
000000
000000
000000
000000
ENDCHAR
STARTCHAR 223d
ENCODING 8765
SWIDTH 520 0
DWIDTH 20 0
BBX 20 20 0 -3
BITMAP
000000
000000
000000
000000
000000
0c0e00
101100
202080
202080
204080
204080
208080
110100
0e0600
000000
000000
000000
000000
000000
000000
ENDCHAR
STARTCHAR 2248
ENCODING 8776
SWIDTH 520 0
DWIDTH 20 0
BBX 20 20 0 -3
BITMAP
000000
000000
000000
000000
000000
0f0040
30e180
401e00
000000
000000
000000
0f0040
30e180
401e00
000000
000000
000000
000000
000000
000000
ENDCHAR
STARTCHAR 224c
ENCODING 8780
SWIDTH 520 0
DWIDTH 20 0
BBX 20 20 0 -3
BITMAP
000000
000000
000000
0c0e00
101100
202080
204080
208080
110100
0e0600
000000
000000
7fff80
000000
000000
000000
7fff80
000000
000000
000000
ENDCHAR
STARTCHAR 2260
ENCODING 8800
SWIDTH 520 0
DWIDTH 20 0
BBX 20 20 0 -3
BITMAP
000000
001000
001000
001000
002000
002000
7fff80
004000
004000
004000
008000
008000
7fff80
010000
010000
010000
020000
020000
020000
000000
ENDCHAR
STARTCHAR 2261
ENCODING 8801
SWIDTH 520 0
DWIDTH 20 0
BBX 20 20 0 -3
BITMAP
000000
000000
000000
000000
000000
000000
3fff80
000000
000000
3fff80
000000
000000
3fff80
000000
000000
000000
000000
000000
000000
000000
ENDCHAR
STARTCHAR 2264
ENCODING 8804
SWIDTH 520 0
DWIDTH 20 0
BBX 20 20 0 -3
BITMAP
000000
000000
000300
000c00
003000
00c000
030000
0c0000
300000
0c0000
030000
30c000
0c3000
030c00
00c300
003000
000c00
000300
000000
000000
ENDCHAR
STARTCHAR 2265
ENCODING 8805
SWIDTH 520 0
DWIDTH 20 0
BBX 20 20 0 -3
BITMAP
000000
000000
180000
060000
018000
006000
001800
000600
000180
000600
001800
006180
018600
061800
186000
018000
060000
180000
000000
000000
ENDCHAR
STARTCHAR 226e
ENCODING 8814
SWIDTH 520 0
DWIDTH 20 0
BBX 20 20 0 -3
BITMAP
000000
004000
004000
004300
004c00
007000
01c000
064000
184000
604000
184000
064000
01c000
007000
004c00
004300
004000
004000
004000
000000
ENDCHAR
STARTCHAR 226f
ENCODING 8815
SWIDTH 520 0
DWIDTH 20 0
BBX 20 20 0 -3
BITMAP
000000
004000
004000
184000
064000
01c000
007000
004c00
004300
0040c0
004300
004c00
007000
01c000
064000
184000
004000
004000
004000
000000
ENDCHAR
STARTCHAR 2299
ENCODING 8857
SWIDTH 520 0
DWIDTH 20 0
BBX 20 20 0 -3
BITMAP
000000
000000
03f000
0c0c00
100200
200100
200100
400080
40c080
41e080
41e080
40c080
400080
200100
200100
100200
0c0c00
03f000
000000
000000
ENDCHAR
STARTCHAR 22a5
ENCODING 8869
SWIDTH 520 0
DWIDTH 20 0
BBX 20 20 0 -3
BITMAP
000000
000000
004000
004000
004000
004000
004000
004000
004000
004000
004000
004000
004000
004000
004000
004000
004000
3fff80
000000
000000
ENDCHAR
STARTCHAR 2312
ENCODING 8978
SWIDTH 520 0
DWIDTH 20 0
BBX 20 20 0 -3
BITMAP
000000
000000
01e000
061800
080400
100200
200100
200100
400080
400080
000000
000000
000000
000000
000000
000000
000000
000000
000000
000000
ENDCHAR
STARTCHAR 2460
ENCODING 9312
SWIDTH 520 0
DWIDTH 20 0
BBX 20 20 0 -3
BITMAP
000000
01f000
060c00
080200
104100
20c080
21c080
404040
404040
404040
404040
404040
404040
204080
204080
104100
080200
060c00
01f000
000000
ENDCHAR
STARTCHAR 2461
ENCODING 9313
SWIDTH 520 0
DWIDTH 20 0
BBX 20 20 0 -3
BITMAP
000000
01f000
060c00
080200
10e100
211080
220880
400840
401040
402040
404040
408040
410040
220080
23f880
100100
080200
060c00
01f000
000000
ENDCHAR
STARTCHAR 2462
ENCODING 9314
SWIDTH 520 0
DWIDTH 20 0
BBX 20 20 0 -3
BITMAP
000000
01f000
060c00
080200
100100
23f880
201080
402040
404040
40e040
401040
400840
400840
200880
221080
11e100
080200
060c00
01f000
000000
ENDCHAR
STARTCHAR 2463
ENCODING 9315
SWIDTH 520 0
DWIDTH 20 0
BBX 20 20 0 -3
BITMAP
000000
01f000
060c00
080200
104100
204080
208080
40a040
412040
412040
422040
422040
47f840
202080
202080
102100
080200
060c00
01f000
000000
ENDCHAR
STARTCHAR 2464
ENCODING 9316
SWIDTH 520 0
DWIDTH 20 0
BBX 20 20 0 -3
BITMAP
000000
01f000
060c00
080200
100100
21f880
210080
410040
410040
41e040
401040
400840
400840
220880
211080
10e100
080200
060c00
01f000
000000
ENDCHAR
STARTCHAR 2465
ENCODING 9317
SWIDTH 520 0
DWIDTH 20 0
BBX 20 20 0 -3
BITMAP
000000
01f000
060c00
080200
104100
208080
210080
410040
426040
429040
430840
420840
420840
220880
211080
10e100
080200
060c00
01f000
000000
ENDCHAR
STARTCHAR 2466
ENCODING 9318
SWIDTH 520 0
DWIDTH 20 0
BBX 20 20 0 -3
BITMAP
000000
01f000
060c00
080200
100100
23f880
200880
401040
401040
402040
402040
404040
404040
204080
204080
104100
080200
060c00
01f000
000000
ENDCHAR
STARTCHAR 2467
ENCODING 9319
SWIDTH 520 0
DWIDTH 20 0
BBX 20 20 0 -3
BITMAP
000000
01f000
060c00
080200
10e100
211080
220880
420840
411040
40e040
411040
420840
420840
220880
211080
10e100
080200
060c00
01f000
000000
ENDCHAR
STARTCHAR 2468
ENCODING 9320
SWIDTH 520 0
DWIDTH 20 0
BBX 20 20 0 -3
BITMAP
000000
01f000
060c00
080200
10e100
211080
220880
420840
420840
411840
40e840
401040
401040
202080
204080
108100
080200
060c00
01f000
000000
ENDCHAR
STARTCHAR 2469
ENCODING 9321
SWIDTH 520 0
DWIDTH 20 0
BBX 20 20 0 -3
BITMAP
000000
01f000
060c00
080200
123900
264480
2e4480
424440
424440
424440
424440
424440
424440
224480
223880
100100
080200
060c00
01f000
000000
ENDCHAR
STARTCHAR 2474
ENCODING 9332
SWIDTH 520 0
DWIDTH 20 0
BBX 20 20 0 -3
BITMAP
000000
080200
100100
104100
20c080
21c080
204080
404040
404040
404040
404040
404040
404040
204080
204080
204080
104100
100100
080200
000000
ENDCHAR
STARTCHAR 2475
ENCODING 9333
SWIDTH 520 0
DWIDTH 20 0
BBX 20 20 0 -3
BITMAP
000000
080200
100100
10e100
211080
220880
220880
400840
401040
402040
404040
408040
410040
210080
220080
220080
13f900
100100
080200
000000
ENDCHAR
STARTCHAR 2476
ENCODING 9334
SWIDTH 520 0
DWIDTH 20 0
BBX 20 20 0 -3
BITMAP
000000
080200
100100
13f900
201880
201080
202080
404040
40c040
402040
401040
400840
400840
200880
220880
231080
11e100
100100
080200
000000
ENDCHAR
STARTCHAR 2477
ENCODING 9335
SWIDTH 520 0
DWIDTH 20 0
BBX 20 20 0 -3
BITMAP
000000
080200
100100
104100
204080
208080
208080
412040
412040
422040
422040
442040
47fc40
202080
202080
202080
102100
100100
080200
000000
ENDCHAR
STARTCHAR 2478
ENCODING 9336
SWIDTH 520 0
DWIDTH 20 0
BBX 20 20 0 -3
BITMAP
000000
080200
100100
13f900
220080
220080
220080
420040
42e040
431040
400840
400840
400840
200880
220880
231080
11e100
100100
080200
000000
ENDCHAR
STARTCHAR 2479
ENCODING 9337
SWIDTH 520 0
DWIDTH 20 0
BBX 20 20 0 -3
BITMAP
000000
080200
100100
106100
208080
210080
210080
420040
42e040
431040
420840
420840
420840
220880
220880
211080
10e100
100100
080200
000000
ENDCHAR
STARTCHAR 247a
ENCODING 9338
SWIDTH 520 0
DWIDTH 20 0
BBX 20 20 0 -3
BITMAP
000000
080200
100100
13f900
200880
201080
201080
401040
402040
402040
402040
404040
404040
204080
204080
204080
104100
100100
080200
000000
ENDCHAR
STARTCHAR 247b
ENCODING 9339
SWIDTH 520 0
DWIDTH 20 0
BBX 20 20 0 -3
BITMAP
000000
080200
100100
10e100
211080
220880
220880
420840
411040
40e040
411040
420840
420840
220880
220880
211080
10e100
100100
080200
000000
ENDCHAR
STARTCHAR 247c
ENCODING 9340
SWIDTH 520 0
DWIDTH 20 0
BBX 20 20 0 -3
BITMAP
000000
080200
100100
10e100
211080
220880
220880
420840
420840
411840
40e840
400840
401040
201080
202080
204080
108100
100100
080200
000000
ENDCHAR
STARTCHAR 247d
ENCODING 9341
SWIDTH 520 0
DWIDTH 20 0
BBX 20 20 0 -3
BITMAP
000000
080200
100100
123900
264480
2e4480
224480
424440
424440
424440
424440
424440
424440
224480
224480
224480
123900
100100
080200
000000
ENDCHAR
STARTCHAR 247e
ENCODING 9342
SWIDTH 520 0
DWIDTH 20 0
BBX 20 20 0 -3
BITMAP
000000
080200
100100
120900
261880
2e3880
220880
420840
420840
420840
420840
420840
420840
220880
220880
220880
120900
100100
080200
000000
ENDCHAR
STARTCHAR 247f
ENCODING 9343
SWIDTH 520 0
DWIDTH 20 0
BBX 20 20 0 -3
BITMAP
000000
100200
200100
243100
4c4880
5c8480
448480
840440
840840
841040
842040
844040
844040
448080
448080
448080
24fd00
200100
100200
000000
ENDCHAR
STARTCHAR 2480
ENCODING 9344
SWIDTH 520 0
DWIDTH 20 0
BBX 20 20 0 -3
BITMAP
000000
100200
200100
24fd00
4c0480
5c0880
441080
842040
846040
841040
840840
840440
840440
440480
448480
44c880
247100
200100
100200
000000
ENDCHAR
STARTCHAR 2481
ENCODING 9345
SWIDTH 520 0
DWIDTH 20 0
BBX 20 20 0 -3
BITMAP
000000
080200
100100
120900
260880
2e1080
221480
422440
422440
424440
424440
428440
42ff40
220480
220480
220480
120500
100100
080200
000000
ENDCHAR
STARTCHAR 2482
ENCODING 9346
SWIDTH 520 0
DWIDTH 20 0
BBX 20 20 0 -3
BITMAP
000000
100200
200100
24fd00
4c8080
5c8080
448080
848040
84b040
84c840
840440
840440
840440
440480
448480
44c880
247100
200100
100200
000000
ENDCHAR
STARTCHAR 2483
ENCODING 9347
SWIDTH 520 0
DWIDTH 20 0
BBX 20 20 0 -3
BITMAP
000000
100200
200100
241900
4c2080
5c4080
444080
848040
848040
84b040
84c840
848440
848440
448480
448480
444880
243100
200100
100200
000000
ENDCHAR
STARTCHAR 2484
ENCODING 9348
SWIDTH 520 0
DWIDTH 20 0
BBX 20 20 0 -3
BITMAP
000000
100200
200100
24fd00
4c0480
5c0480
440880
840840
841040
841040
841040
842040
842040
442080
442080
442080
242100
200100
100200
000000
ENDCHAR
STARTCHAR 2485
ENCODING 9349
SWIDTH 520 0
DWIDTH 20 0
BBX 20 20 0 -3
BITMAP
000000
100200
200100
243100
4c4880
5c8480
448480
848440
844840
843040
844840
848440
848440
448480
448480
448480
247900
200100
100200
000000
ENDCHAR
STARTCHAR 2486
ENCODING 9350
SWIDTH 520 0
DWIDTH 20 0
BBX 20 20 0 -3
BITMAP
000000
100200
200100
243100
4c4880
5c8480
448480
848440
848440
844c40
843440
840440
840840
440880
441080
442080
244100
200100
100200
000000
ENDCHAR
STARTCHAR 2487
ENCODING 9351
SWIDTH 520 0
DWIDTH 20 0
BBX 20 20 0 -3
BITMAP
000000
100200
200100
271900
48a480
48a480
48a480
80a440
812440
812440
822440
822440
842440
442480
482480
482480
2f9900
200100
100200
000000
ENDCHAR
STARTCHAR 2488
ENCODING 9352
SWIDTH 520 0
DWIDTH 20 0
BBX 20 20 0 -3
BITMAP
000000
000000
000000
010000
030000
070000
010000
010000
010000
010000
010000
010000
010000
010400
010e00
010e00
010400
000000
000000
000000
ENDCHAR
STARTCHAR 2489
ENCODING 9353
SWIDTH 520 0
DWIDTH 20 0
BBX 20 20 0 -3
BITMAP
000000
000000
000000
038000
044000
082000
082000
002000
004000
008000
010000
020000
040000
040200
080700
080700
0fe200
000000
000000
000000
ENDCHAR
STARTCHAR 248a
ENCODING 9354
SWIDTH 520 0
DWIDTH 20 0
BBX 20 20 0 -3
BITMAP
000000
000000
000000
0fe000
006000
004000
008000
010000
030000
008000
004000
002000
002000
002200
082700
0c4700
078200
000000
000000
000000
ENDCHAR
STARTCHAR 248b
ENCODING 9355
SWIDTH 520 0
DWIDTH 20 0
BBX 20 20 0 -3
BITMAP
000000
000000
000000
008000
008000
010000
014000
024000
024000
044000
044000
084000
1ff000
004200
004700
004700
004200
000000
000000
000000
ENDCHAR
STARTCHAR 248c
ENCODING 9356
SWIDTH 520 0
DWIDTH 20 0
BBX 20 20 0 -3
BITMAP
000000
000000
000000
0fe000
080000
080000
080000
080000
0b8000
0c4000
002000
002000
002000
002200
082700
0c4700
078200
000000
000000
000000
ENDCHAR
STARTCHAR 248d
ENCODING 9357
SWIDTH 520 0
DWIDTH 20 0
BBX 20 20 0 -3
BITMAP
000000
000000
000000
01c000
020000
040000
040000
080000
080000
0b8000
0c4000
082000
082000
082200
082700
044700
038200
000000
000000
000000
ENDCHAR
STARTCHAR 248e
ENCODING 9358
SWIDTH 520 0
DWIDTH 20 0
BBX 20 20 0 -3
BITMAP
000000
000000
000000
0ff800
001000
001000
002000
002000
004000
004000
004000
008000
008000
008200
008700
008700
008200
000000
000000
000000
ENDCHAR
STARTCHAR 248f
ENCODING 9359
SWIDTH 520 0
DWIDTH 20 0
BBX 20 20 0 -3
BITMAP
000000
000000
000000
038000
044000
082000
082000
082000
044000
038000
044000
082000
082000
082200
082700
044700
038200
000000
000000
000000
ENDCHAR
STARTCHAR 2490
ENCODING 9360
SWIDTH 520 0
DWIDTH 20 0
BBX 20 20 0 -3
BITMAP
000000
000000
000000
038000
044000
082000
082000
082000
082000
046000
03a000
002000
004000
004200
008700
010700
020200
000000
000000
000000
ENDCHAR
STARTCHAR 2491
ENCODING 9361
SWIDTH 520 0
DWIDTH 20 0
BBX 20 20 0 -3
BITMAP
000000
000000
000000
087000
188800
388800
088800
088800
088800
088800
088800
088800
088800
088900
088b80
088b80
087100
000000
000000
000000
ENDCHAR
STARTCHAR 2492
ENCODING 9362
SWIDTH 520 0
DWIDTH 20 0
BBX 20 20 0 -3
BITMAP
000000
000000
000000
082000
186000
38e000
082000
082000
082000
082000
082000
082000
082000
082100
082380
082380
082100
000000
000000
000000
ENDCHAR
STARTCHAR 2493
ENCODING 9363
SWIDTH 520 0
DWIDTH 20 0
BBX 20 20 0 -3
BITMAP
000000
000000
000000
086000
189000
390800
090800
080800
081000
082000
084000
088000
088000
090100
090380
090380
09f900
000000
000000
000000
ENDCHAR
STARTCHAR 2494
ENCODING 9364
SWIDTH 520 0
DWIDTH 20 0
BBX 20 20 0 -3
BITMAP
000000
000000
000000
09f800
180800
381000
082000
084000
08c000
082000
081000
080800
080800
080900
090b80
099380
08e100
000000
000000
000000
ENDCHAR
STARTCHAR 2495
ENCODING 9365
SWIDTH 520 0
DWIDTH 20 0
BBX 20 20 0 -3
BITMAP
000000
000000
000000
102000
302000
704000
105000
109000
109000
111000
111000
121000
13fc00
101100
101380
101380
101100
000000
000000
000000
ENDCHAR
STARTCHAR 2496
ENCODING 9366
SWIDTH 520 0
DWIDTH 20 0
BBX 20 20 0 -3
BITMAP
000000
000000
000000
09f800
190000
390000
090000
090000
096000
099000
080800
080800
080800
080900
090b80
099380
08e100
000000
000000
000000
ENDCHAR
STARTCHAR 2497
ENCODING 9367
SWIDTH 520 0
DWIDTH 20 0
BBX 20 20 0 -3
BITMAP
000000
000000
000000
083000
184000
388000
088000
090000
090000
097000
099800
090800
090800
090900
090b80
099b80
08f100
000000
000000
000000
ENDCHAR
STARTCHAR 2498
ENCODING 9368
SWIDTH 520 0
DWIDTH 20 0
BBX 20 20 0 -3
BITMAP
000000
000000
000000
09fe00
180400
380400
080800
080800
081000
081000
081000
082000
082000
082100
082380
082380
082100
000000
000000
000000
ENDCHAR
STARTCHAR 2499
ENCODING 9369
SWIDTH 520 0
DWIDTH 20 0
BBX 20 20 0 -3
BITMAP
000000
000000
000000
086000
189000
390800
090800
090800
089000
086000
089000
090800
090800
090900
090b80
090b80
08f100
000000
000000
000000
ENDCHAR
STARTCHAR 249a
ENCODING 9370
SWIDTH 520 0
DWIDTH 20 0
BBX 20 20 0 -3
BITMAP
000000
000000
000000
086000
189000
390800
090800
090800
090800
089800
086800
080800
081000
081100
082380
084380
088100
000000
000000
000000
ENDCHAR
STARTCHAR 249b
ENCODING 9371
SWIDTH 520 0
DWIDTH 20 0
BBX 20 20 0 -3
BITMAP
000000
000000
000000
187000
248800
428800
428800
028800
048800
088800
108800
208800
208800
408900
408b80
408b80
7e7100
000000
000000
000000
ENDCHAR
STARTCHAR 2500
ENCODING 9472
SWIDTH 520 0
DWIDTH 20 0
BBX 20 20 0 -3
BITMAP
000000
000000
000000
000000
000000
000000
000000
000000
000000
ffffe0
000000
000000
000000
000000
000000
000000
000000
000000
000000
000000
ENDCHAR
STARTCHAR 2501
ENCODING 9473
SWIDTH 520 0
DWIDTH 20 0
BBX 20 20 0 -3
BITMAP
000000
000000
000000
000000
000000
000000
000000
000000
000000
ffffe0
ffffe0
000000
000000
000000
000000
000000
000000
000000
000000
000000
ENDCHAR
STARTCHAR 2502
ENCODING 9474
SWIDTH 520 0
DWIDTH 20 0
BBX 20 20 0 -3
BITMAP
004000
004000
004000
004000
004000
004000
004000
004000
004000
004000
004000
004000
004000
004000
004000
004000
004000
004000
004000
004000
ENDCHAR
STARTCHAR 2503
ENCODING 9475
SWIDTH 520 0
DWIDTH 20 0
BBX 20 20 0 -3
BITMAP
006000
006000
006000
006000
006000
006000
006000
006000
006000
006000
006000
006000
006000
006000
006000
006000
006000
006000
006000
006000
ENDCHAR
STARTCHAR 2504
ENCODING 9476
SWIDTH 520 0
DWIDTH 20 0
BBX 20 20 0 -3
BITMAP
000000
000000
000000
000000
000000
000000
000000
000000
000000
38e380
000000
000000
000000
000000
000000
000000
000000
000000
000000
000000
ENDCHAR
STARTCHAR 2505
ENCODING 9477
SWIDTH 520 0
DWIDTH 20 0
BBX 20 20 0 -3
BITMAP
000000
000000
000000
000000
000000
000000
000000
000000
000000
38e380
38e380
000000
000000
000000
000000
000000
000000
000000
000000
000000
ENDCHAR
STARTCHAR 2506
ENCODING 9478
SWIDTH 520 0
DWIDTH 20 0
BBX 20 20 0 -3
BITMAP
000000
000000
004000
004000
004000
004000
000000
000000
004000
004000
004000
004000
000000
000000
004000
004000
004000
004000
000000
000000
ENDCHAR
STARTCHAR 2507
ENCODING 9479
SWIDTH 520 0
DWIDTH 20 0
BBX 20 20 0 -3
BITMAP
000000
000000
006000
006000
006000
006000
000000
000000
006000
006000
006000
006000
000000
000000
006000
006000
006000
006000
000000
000000
ENDCHAR
STARTCHAR 2508
ENCODING 9480
SWIDTH 520 0
DWIDTH 20 0
BBX 20 20 0 -3
BITMAP
000000
000000
000000
000000
000000
000000
000000
000000
000000
739ce0
000000
000000
000000
000000
000000
000000
000000
000000
000000
000000
ENDCHAR
STARTCHAR 2509
ENCODING 9481
SWIDTH 520 0
DWIDTH 20 0
BBX 20 20 0 -3
BITMAP
000000
000000
000000
000000
000000
000000
000000
000000
000000
739ce0
739ce0
000000
000000
000000
000000
000000
000000
000000
000000
000000
ENDCHAR
STARTCHAR 250a
ENCODING 9482
SWIDTH 520 0
DWIDTH 20 0
BBX 20 20 0 -3
BITMAP
000000
004000
004000
004000
000000
000000
004000
004000
004000
000000
000000
004000
004000
004000
000000
000000
004000
004000
004000
000000
ENDCHAR
STARTCHAR 250b
ENCODING 9483
SWIDTH 520 0
DWIDTH 20 0
BBX 20 20 0 -3
BITMAP
000000
006000
006000
006000
000000
000000
006000
006000
006000
000000
000000
006000
006000
006000
000000
000000
006000
006000
006000
000000
ENDCHAR
STARTCHAR 250c
ENCODING 9484
SWIDTH 520 0
DWIDTH 20 0
BBX 20 20 0 -3
BITMAP
000000
000000
000000
000000
000000
000000
000000
000000
000000
007fe0
004000
004000
004000
004000
004000
004000
004000
004000
004000
004000
ENDCHAR
STARTCHAR 250d
ENCODING 9485
SWIDTH 520 0
DWIDTH 20 0
BBX 20 20 0 -3
BITMAP
000000
000000
000000
000000
000000
000000
000000
000000
000000
007fe0
007fe0
004000
004000
004000
004000
004000
004000
004000
004000
004000
ENDCHAR
STARTCHAR 250e
ENCODING 9486
SWIDTH 520 0
DWIDTH 20 0
BBX 20 20 0 -3
BITMAP
000000
000000
000000
000000
000000
000000
000000
000000
000000
007fe0
006000
006000
006000
006000
006000
006000
006000
006000
006000
006000
ENDCHAR
STARTCHAR 250f
ENCODING 9487
SWIDTH 520 0
DWIDTH 20 0
BBX 20 20 0 -3
BITMAP
000000
000000
000000
000000
000000
000000
000000
000000
000000
007fe0
007fe0
006000
006000
006000
006000
006000
006000
006000
006000
006000
ENDCHAR
STARTCHAR 2510
ENCODING 9488
SWIDTH 520 0
DWIDTH 20 0
BBX 20 20 0 -3
BITMAP
000000
000000
000000
000000
000000
000000
000000
000000
000000
ffc000
004000
004000
004000
004000
004000
004000
004000
004000
004000
004000
ENDCHAR
STARTCHAR 2511
ENCODING 9489
SWIDTH 520 0
DWIDTH 20 0
BBX 20 20 0 -3
BITMAP
000000
000000
000000
000000
000000
000000
000000
000000
000000
ffc000
ffc000
004000
004000
004000
004000
004000
004000
004000
004000
004000
ENDCHAR
STARTCHAR 2512
ENCODING 9490
SWIDTH 520 0
DWIDTH 20 0
BBX 20 20 0 -3
BITMAP
000000
000000
000000
000000
000000
000000
000000
000000
000000
ffe000
006000
006000
006000
006000
006000
006000
006000
006000
006000
006000
ENDCHAR
STARTCHAR 2513
ENCODING 9491
SWIDTH 520 0
DWIDTH 20 0
BBX 20 20 0 -3
BITMAP
000000
000000
000000
000000
000000
000000
000000
000000
000000
ffe000
ffe000
006000
006000
006000
006000
006000
006000
006000
006000
006000
ENDCHAR
STARTCHAR 2514
ENCODING 9492
SWIDTH 520 0
DWIDTH 20 0
BBX 20 20 0 -3
BITMAP
004000
004000
004000
004000
004000
004000
004000
004000
004000
007fe0
000000
000000
000000
000000
000000
000000
000000
000000
000000
000000
ENDCHAR
STARTCHAR 2515
ENCODING 9493
SWIDTH 520 0
DWIDTH 20 0
BBX 20 20 0 -3
BITMAP
004000
004000
004000
004000
004000
004000
004000
004000
004000
007fe0
007fe0
000000
000000
000000
000000
000000
000000
000000
000000
000000
ENDCHAR
STARTCHAR 2516
ENCODING 9494
SWIDTH 520 0
DWIDTH 20 0
BBX 20 20 0 -3
BITMAP
006000
006000
006000
006000
006000
006000
006000
006000
006000
007fe0
000000
000000
000000
000000
000000
000000
000000
000000
000000
000000
ENDCHAR
STARTCHAR 2517
ENCODING 9495
SWIDTH 520 0
DWIDTH 20 0
BBX 20 20 0 -3
BITMAP
006000
006000
006000
006000
006000
006000
006000
006000
006000
007fe0
007fe0
000000
000000
000000
000000
000000
000000
000000
000000
000000
ENDCHAR
STARTCHAR 2518
ENCODING 9496
SWIDTH 520 0
DWIDTH 20 0
BBX 20 20 0 -3
BITMAP
004000
004000
004000
004000
004000
004000
004000
004000
004000
ffc000
000000
000000
000000
000000
000000
000000
000000
000000
000000
000000
ENDCHAR
STARTCHAR 2519
ENCODING 9497
SWIDTH 520 0
DWIDTH 20 0
BBX 20 20 0 -3
BITMAP
004000
004000
004000
004000
004000
004000
004000
004000
004000
ffc000
ffc000
000000
000000
000000
000000
000000
000000
000000
000000
000000
ENDCHAR
STARTCHAR 251a
ENCODING 9498
SWIDTH 520 0
DWIDTH 20 0
BBX 20 20 0 -3
BITMAP
006000
006000
006000
006000
006000
006000
006000
006000
006000
ffe000
000000
000000
000000
000000
000000
000000
000000
000000
000000
000000
ENDCHAR
STARTCHAR 251b
ENCODING 9499
SWIDTH 520 0
DWIDTH 20 0
BBX 20 20 0 -3
BITMAP
006000
006000
006000
006000
006000
006000
006000
006000
006000
ffe000
ffe000
000000
000000
000000
000000
000000
000000
000000
000000
000000
ENDCHAR
STARTCHAR 251c
ENCODING 9500
SWIDTH 520 0
DWIDTH 20 0
BBX 20 20 0 -3
BITMAP
004000
004000
004000
004000
004000
004000
004000
004000
004000
007fe0
004000
004000
004000
004000
004000
004000
004000
004000
004000
004000
ENDCHAR
STARTCHAR 251d
ENCODING 9501
SWIDTH 520 0
DWIDTH 20 0
BBX 20 20 0 -3
BITMAP
004000
004000
004000
004000
004000
004000
004000
004000
004000
007fe0
007fe0
004000
004000
004000
004000
004000
004000
004000
004000
004000
ENDCHAR
STARTCHAR 251e
ENCODING 9502
SWIDTH 520 0
DWIDTH 20 0
BBX 20 20 0 -3
BITMAP
006000
006000
006000
006000
006000
006000
006000
006000
006000
007fe0
004000
004000
004000
004000
004000
004000
004000
004000
004000
004000
ENDCHAR
STARTCHAR 251f
ENCODING 9503
SWIDTH 520 0
DWIDTH 20 0
BBX 20 20 0 -3
BITMAP
004000
004000
004000
004000
004000
004000
004000
004000
004000
007fe0
006000
006000
006000
006000
006000
006000
006000
006000
006000
006000
ENDCHAR
STARTCHAR 2520
ENCODING 9504
SWIDTH 520 0
DWIDTH 20 0
BBX 20 20 0 -3
BITMAP
006000
006000
006000
006000
006000
006000
006000
006000
006000
007fe0
006000
006000
006000
006000
006000
006000
006000
006000
006000
006000
ENDCHAR
STARTCHAR 2521
ENCODING 9505
SWIDTH 520 0
DWIDTH 20 0
BBX 20 20 0 -3
BITMAP
006000
006000
006000
006000
006000
006000
006000
006000
006000
007fe0
007fe0
004000
004000
004000
004000
004000
004000
004000
004000
004000
ENDCHAR
STARTCHAR 2522
ENCODING 9506
SWIDTH 520 0
DWIDTH 20 0
BBX 20 20 0 -3
BITMAP
004000
004000
004000
004000
004000
004000
004000
004000
004000
007fe0
007fe0
006000
006000
006000
006000
006000
006000
006000
006000
006000
ENDCHAR
STARTCHAR 2523
ENCODING 9507
SWIDTH 520 0
DWIDTH 20 0
BBX 20 20 0 -3
BITMAP
006000
006000
006000
006000
006000
006000
006000
006000
006000
007fe0
007fe0
006000
006000
006000
006000
006000
006000
006000
006000
006000
ENDCHAR
STARTCHAR 2524
ENCODING 9508
SWIDTH 520 0
DWIDTH 20 0
BBX 20 20 0 -3
BITMAP
004000
004000
004000
004000
004000
004000
004000
004000
004000
ffc000
004000
004000
004000
004000
004000
004000
004000
004000
004000
004000
ENDCHAR
STARTCHAR 2525
ENCODING 9509
SWIDTH 520 0
DWIDTH 20 0
BBX 20 20 0 -3
BITMAP
004000
004000
004000
004000
004000
004000
004000
004000
004000
ffc000
ffc000
004000
004000
004000
004000
004000
004000
004000
004000
004000
ENDCHAR
STARTCHAR 2526
ENCODING 9510
SWIDTH 520 0
DWIDTH 20 0
BBX 20 20 0 -3
BITMAP
006000
006000
006000
006000
006000
006000
006000
006000
006000
ffe000
004000
004000
004000
004000
004000
004000
004000
004000
004000
004000
ENDCHAR
STARTCHAR 2527
ENCODING 9511
SWIDTH 520 0
DWIDTH 20 0
BBX 20 20 0 -3
BITMAP
004000
004000
004000
004000
004000
004000
004000
004000
004000
ffe000
006000
006000
006000
006000
006000
006000
006000
006000
006000
006000
ENDCHAR
STARTCHAR 2528
ENCODING 9512
SWIDTH 520 0
DWIDTH 20 0
BBX 20 20 0 -3
BITMAP
006000
006000
006000
006000
006000
006000
006000
006000
006000
ffe000
006000
006000
006000
006000
006000
006000
006000
006000
006000
006000
ENDCHAR
STARTCHAR 2529
ENCODING 9513
SWIDTH 520 0
DWIDTH 20 0
BBX 20 20 0 -3
BITMAP
006000
006000
006000
006000
006000
006000
006000
006000
006000
ffe000
ffe000
004000
004000
004000
004000
004000
004000
004000
004000
004000
ENDCHAR
STARTCHAR 252a
ENCODING 9514
SWIDTH 520 0
DWIDTH 20 0
BBX 20 20 0 -3
BITMAP
004000
004000
004000
004000
004000
004000
004000
004000
004000
ffe000
ffe000
006000
006000
006000
006000
006000
006000
006000
006000
006000
ENDCHAR
STARTCHAR 252b
ENCODING 9515
SWIDTH 520 0
DWIDTH 20 0
BBX 20 20 0 -3
BITMAP
006000
006000
006000
006000
006000
006000
006000
006000
006000
ffe000
ffe000
006000
006000
006000
006000
006000
006000
006000
006000
006000
ENDCHAR
STARTCHAR 252c
ENCODING 9516
SWIDTH 520 0
DWIDTH 20 0
BBX 20 20 0 -3
BITMAP
000000
000000
000000
000000
000000
000000
000000
000000
000000
ffffe0
004000
004000
004000
004000
004000
004000
004000
004000
004000
004000
ENDCHAR
STARTCHAR 252d
ENCODING 9517
SWIDTH 520 0
DWIDTH 20 0
BBX 20 20 0 -3
BITMAP
000000
000000
000000
000000
000000
000000
000000
000000
000000
ffffe0
ffc000
004000
004000
004000
004000
004000
004000
004000
004000
004000
ENDCHAR
STARTCHAR 252e
ENCODING 9518
SWIDTH 520 0
DWIDTH 20 0
BBX 20 20 0 -3
BITMAP
000000
000000
000000
000000
000000
000000
000000
000000
000000
ffffe0
007fe0
004000
004000
004000
004000
004000
004000
004000
004000
004000
ENDCHAR
STARTCHAR 252f
ENCODING 9519
SWIDTH 520 0
DWIDTH 20 0
BBX 20 20 0 -3
BITMAP
000000
000000
000000
000000
000000
000000
000000
000000
000000
ffffe0
ffffe0
004000
004000
004000
004000
004000
004000
004000
004000
004000
ENDCHAR
STARTCHAR 2530
ENCODING 9520
SWIDTH 520 0
DWIDTH 20 0
BBX 20 20 0 -3
BITMAP
000000
000000
000000
000000
000000
000000
000000
000000
000000
ffffe0
006000
006000
006000
006000
006000
006000
006000
006000
006000
006000
ENDCHAR
STARTCHAR 2531
ENCODING 9521
SWIDTH 520 0
DWIDTH 20 0
BBX 20 20 0 -3
BITMAP
000000
000000
000000
000000
000000
000000
000000
000000
000000
ffffe0
ffe000
006000
006000
006000
006000
006000
006000
006000
006000
006000
ENDCHAR
STARTCHAR 2532
ENCODING 9522
SWIDTH 520 0
DWIDTH 20 0
BBX 20 20 0 -3
BITMAP
000000
000000
000000
000000
000000
000000
000000
000000
000000
ffffe0
007fe0
006000
006000
006000
006000
006000
006000
006000
006000
006000
ENDCHAR
STARTCHAR 2533
ENCODING 9523
SWIDTH 520 0
DWIDTH 20 0
BBX 20 20 0 -3
BITMAP
000000
000000
000000
000000
000000
000000
000000
000000
000000
ffffe0
ffffe0
006000
006000
006000
006000
006000
006000
006000
006000
006000
ENDCHAR
STARTCHAR 2534
ENCODING 9524
SWIDTH 520 0
DWIDTH 20 0
BBX 20 20 0 -3
BITMAP
004000
004000
004000
004000
004000
004000
004000
004000
004000
ffffe0
000000
000000
000000
000000
000000
000000
000000
000000
000000
000000
ENDCHAR
STARTCHAR 2535
ENCODING 9525
SWIDTH 520 0
DWIDTH 20 0
BBX 20 20 0 -3
BITMAP
004000
004000
004000
004000
004000
004000
004000
004000
004000
ffffe0
ffc000
000000
000000
000000
000000
000000
000000
000000
000000
000000
ENDCHAR
STARTCHAR 2536
ENCODING 9526
SWIDTH 520 0
DWIDTH 20 0
BBX 20 20 0 -3
BITMAP
004000
004000
004000
004000
004000
004000
004000
004000
004000
ffffe0
007fe0
000000
000000
000000
000000
000000
000000
000000
000000
000000
ENDCHAR
STARTCHAR 2537
ENCODING 9527
SWIDTH 520 0
DWIDTH 20 0
BBX 20 20 0 -3
BITMAP
004000
004000
004000
004000
004000
004000
004000
004000
004000
ffffe0
ffffe0
000000
000000
000000
000000
000000
000000
000000
000000
000000
ENDCHAR
STARTCHAR 2538
ENCODING 9528
SWIDTH 520 0
DWIDTH 20 0
BBX 20 20 0 -3
BITMAP
006000
006000
006000
006000
006000
006000
006000
006000
006000
ffffe0
000000
000000
000000
000000
000000
000000
000000
000000
000000
000000
ENDCHAR
STARTCHAR 2539
ENCODING 9529
SWIDTH 520 0
DWIDTH 20 0
BBX 20 20 0 -3
BITMAP
006000
006000
006000
006000
006000
006000
006000
006000
006000
ffffe0
ffe000
000000
000000
000000
000000
000000
000000
000000
000000
000000
ENDCHAR
STARTCHAR 253a
ENCODING 9530
SWIDTH 520 0
DWIDTH 20 0
BBX 20 20 0 -3
BITMAP
006000
006000
006000
006000
006000
006000
006000
006000
006000
ffffe0
007fe0
000000
000000
000000
000000
000000
000000
000000
000000
000000
ENDCHAR
STARTCHAR 253b
ENCODING 9531
SWIDTH 520 0
DWIDTH 20 0
BBX 20 20 0 -3
BITMAP
006000
006000
006000
006000
006000
006000
006000
006000
006000
ffffe0
ffffe0
000000
000000
000000
000000
000000
000000
000000
000000
000000
ENDCHAR
STARTCHAR 253c
ENCODING 9532
SWIDTH 520 0
DWIDTH 20 0
BBX 20 20 0 -3
BITMAP
004000
004000
004000
004000
004000
004000
004000
004000
004000
ffffe0
004000
004000
004000
004000
004000
004000
004000
004000
004000
004000
ENDCHAR
STARTCHAR 253d
ENCODING 9533
SWIDTH 520 0
DWIDTH 20 0
BBX 20 20 0 -3
BITMAP
004000
004000
004000
004000
004000
004000
004000
004000
004000
ffffe0
ffc000
004000
004000
004000
004000
004000
004000
004000
004000
004000
ENDCHAR
STARTCHAR 253e
ENCODING 9534
SWIDTH 520 0
DWIDTH 20 0
BBX 20 20 0 -3
BITMAP
004000
004000
004000
004000
004000
004000
004000
004000
004000
ffffe0
007fe0
004000
004000
004000
004000
004000
004000
004000
004000
004000
ENDCHAR
STARTCHAR 253f
ENCODING 9535
SWIDTH 520 0
DWIDTH 20 0
BBX 20 20 0 -3
BITMAP
004000
004000
004000
004000
004000
004000
004000
004000
004000
ffffe0
ffffe0
004000
004000
004000
004000
004000
004000
004000
004000
004000
ENDCHAR
STARTCHAR 2540
ENCODING 9536
SWIDTH 520 0
DWIDTH 20 0
BBX 20 20 0 -3
BITMAP
006000
006000
006000
006000
006000
006000
006000
006000
006000
ffffe0
004000
004000
004000
004000
004000
004000
004000
004000
004000
004000
ENDCHAR
STARTCHAR 2541
ENCODING 9537
SWIDTH 520 0
DWIDTH 20 0
BBX 20 20 0 -3
BITMAP
004000
004000
004000
004000
004000
004000
004000
004000
004000
ffffe0
006000
006000
006000
006000
006000
006000
006000
006000
006000
006000
ENDCHAR
STARTCHAR 2542
ENCODING 9538
SWIDTH 520 0
DWIDTH 20 0
BBX 20 20 0 -3
BITMAP
006000
006000
006000
006000
006000
006000
006000
006000
006000
ffffe0
006000
006000
006000
006000
006000
006000
006000
006000
006000
006000
ENDCHAR
STARTCHAR 2543
ENCODING 9539
SWIDTH 520 0
DWIDTH 20 0
BBX 20 20 0 -3
BITMAP
006000
006000
006000
006000
006000
006000
006000
006000
006000
ffffe0
ffc000
004000
004000
004000
004000
004000
004000
004000
004000
004000
ENDCHAR
STARTCHAR 2544
ENCODING 9540
SWIDTH 520 0
DWIDTH 20 0
BBX 20 20 0 -3
BITMAP
006000
006000
006000
006000
006000
006000
006000
006000
006000
ffffe0
007fe0
004000
004000
004000
004000
004000
004000
004000
004000
004000
ENDCHAR
STARTCHAR 2545
ENCODING 9541
SWIDTH 520 0
DWIDTH 20 0
BBX 20 20 0 -3
BITMAP
004000
004000
004000
004000
004000
004000
004000
004000
004000
ffffe0
ffe000
006000
006000
006000
006000
006000
006000
006000
006000
006000
ENDCHAR
STARTCHAR 2546
ENCODING 9542
SWIDTH 520 0
DWIDTH 20 0
BBX 20 20 0 -3
BITMAP
004000
004000
004000
004000
004000
004000
004000
004000
004000
ffffe0
007fe0
006000
006000
006000
006000
006000
006000
006000
006000
006000
ENDCHAR
STARTCHAR 2547
ENCODING 9543
SWIDTH 520 0
DWIDTH 20 0
BBX 20 20 0 -3
BITMAP
006000
006000
006000
006000
006000
006000
006000
006000
006000
ffffe0
ffffe0
004000
004000
004000
004000
004000
004000
004000
004000
004000
ENDCHAR
STARTCHAR 2548
ENCODING 9544
SWIDTH 520 0
DWIDTH 20 0
BBX 20 20 0 -3
BITMAP
004000
004000
004000
004000
004000
004000
004000
004000
004000
ffffe0
ffffe0
006000
006000
006000
006000
006000
006000
006000
006000
006000
ENDCHAR
STARTCHAR 2549
ENCODING 9545
SWIDTH 520 0
DWIDTH 20 0
BBX 20 20 0 -3
BITMAP
006000
006000
006000
006000
006000
006000
006000
006000
006000
ffffe0
ffe000
006000
006000
006000
006000
006000
006000
006000
006000
006000
ENDCHAR
STARTCHAR 254a
ENCODING 9546
SWIDTH 520 0
DWIDTH 20 0
BBX 20 20 0 -3
BITMAP
006000
006000
006000
006000
006000
006000
006000
006000
006000
ffffe0
007fe0
006000
006000
006000
006000
006000
006000
006000
006000
006000
ENDCHAR
STARTCHAR 254b
ENCODING 9547
SWIDTH 520 0
DWIDTH 20 0
BBX 20 20 0 -3
BITMAP
006000
006000
006000
006000
006000
006000
006000
006000
006000
ffffe0
ffffe0
006000
006000
006000
006000
006000
006000
006000
006000
006000
ENDCHAR
STARTCHAR 25a0
ENCODING 9632
SWIDTH 520 0
DWIDTH 20 0
BBX 20 20 0 -3
BITMAP
000000
000000
3fff80
3fff80
3fff80
3fff80
3fff80
3fff80
3fff80
3fff80
3fff80
3fff80
3fff80
3fff80
3fff80
3fff80
3fff80
3fff80
000000
000000
ENDCHAR
STARTCHAR 25a1
ENCODING 9633
SWIDTH 520 0
DWIDTH 20 0
BBX 20 20 0 -3
BITMAP
000000
000000
3fff80
200080
200080
200080
200080
200080
200080
200080
200080
200080
200080
200080
200080
200080
200080
3fff80
000000
000000
ENDCHAR
STARTCHAR 25b2
ENCODING 9650
SWIDTH 520 0
DWIDTH 20 0
BBX 20 20 0 -3
BITMAP
000000
004000
004000
00e000
00e000
01f000
01f000
03f800
03f800
07fc00
07fc00
0ffe00
0ffe00
1fff00
1fff00
3fff80
3fff80
7fffc0
000000
000000
ENDCHAR
STARTCHAR 25b3
ENCODING 9651
SWIDTH 520 0
DWIDTH 20 0
BBX 20 20 0 -3
BITMAP
000000
004000
004000
00a000
00a000
011000
011000
020800
020800
040400
040400
080200
080200
100100
100100
200080
200080
7fffc0
000000
000000
ENDCHAR
STARTCHAR 25c6
ENCODING 9670
SWIDTH 520 0
DWIDTH 20 0
BBX 20 20 0 -3
BITMAP
004000
00e000
01f000
03f800
07fc00
0ffe00
1fff00
3fff80
7fffc0
ffffe0
7fffc0
3fff80
1fff00
0ffe00
07fc00
03f800
01f000
00e000
004000
000000
ENDCHAR
STARTCHAR 25c7
ENCODING 9671
SWIDTH 520 0
DWIDTH 20 0
BBX 20 20 0 -3
BITMAP
004000
00a000
011000
020800
040400
080200
100100
200080
400040
800020
400040
200080
100100
080200
040400
020800
011000
00a000
004000
000000
ENDCHAR
STARTCHAR 25cb
ENCODING 9675
SWIDTH 520 0
DWIDTH 20 0
BBX 20 20 0 -3
BITMAP
000000
000000
03f000
0c0c00
100200
200100
200100
400080
400080
400080
400080
400080
400080
200100
200100
100200
0c0c00
03f000
000000
000000
ENDCHAR
STARTCHAR 25ce
ENCODING 9678
SWIDTH 520 0
DWIDTH 20 0
BBX 20 20 0 -3
BITMAP
000000
000000
03f000
0c0c00
100200
200100
21e100
421080
440880
440880
440880
440880
421080
21e100
200100
100200
0c0c00
03f000
000000
000000
ENDCHAR
STARTCHAR 25cf
ENCODING 9679
SWIDTH 520 0
DWIDTH 20 0
BBX 20 20 0 -3
BITMAP
000000
000000
03f000
0ffc00
1ffe00
3fff00
3fff00
7fff80
7fff80
7fff80
7fff80
7fff80
7fff80
3fff00
3fff00
1ffe00
0ffc00
03f000
000000
000000
ENDCHAR
STARTCHAR 2605
ENCODING 9733
SWIDTH 520 0
DWIDTH 20 0
BBX 20 20 0 -3
BITMAP
004000
004000
00e000
00e000
00e000
01f000
01f000
ffffe0
7fffc0
1fff00
0ffe00
07fc00
03f800
07fc00
07bc00
0f1e00
0e0e00
1c0700
180300
300180
ENDCHAR
STARTCHAR 2606
ENCODING 9734
SWIDTH 520 0
DWIDTH 20 0
BBX 20 20 0 -3
BITMAP
004000
004000
00a000
00a000
00a000
011000
011000
ff1fe0
6000c0
100100
080200
040400
020800
044400
04a400
091200
0a0a00
140500
180300
300180
ENDCHAR
STARTCHAR 2640
ENCODING 9792
SWIDTH 520 0
DWIDTH 20 0
BBX 20 20 0 -3
BITMAP
000000
00e000
011000
020800
020800
020800
011000
00e000
004000
004000
004000
1fff00
004000
004000
004000
004000
004000
004000
004000
000000
ENDCHAR
STARTCHAR 2642
ENCODING 9794
SWIDTH 520 0
DWIDTH 20 0
BBX 20 20 0 -3
BITMAP
000000
004000
00e000
015000
024800
044400
004000
004000
004000
004000
004000
004000
00e000
011000
020800
020800
020800
011000
00e000
000000
ENDCHAR
STARTCHAR 3000
ENCODING 12288
SWIDTH 520 0
DWIDTH 20 0
BBX 20 20 0 -3
BITMAP
000000
000000
000000
000000
000000
000000
000000
000000
000000
000000
000000
000000
000000
000000
000000
000000
000000
000000
000000
000000
ENDCHAR
STARTCHAR 3001
ENCODING 12289
SWIDTH 520 0
DWIDTH 20 0
BBX 20 20 0 -3
BITMAP
000000
000000
000000
000000
000000
000000
000000
000000
000000
000000
000000
000000
000000
100000
0c0000
060000
030000
020000
000000
000000
ENDCHAR
STARTCHAR 3002
ENCODING 12290
SWIDTH 520 0
DWIDTH 20 0
BBX 20 20 0 -3
BITMAP
000000
000000
000000
000000
000000
000000
000000
000000
000000
000000
000000
000000
000000
1c0000
220000
220000
220000
1c0000
000000
000000
ENDCHAR
STARTCHAR 3003
ENCODING 12291
SWIDTH 520 0
DWIDTH 20 0
BBX 20 20 0 -3
BITMAP
000000
000000
000000
000000
000000
008800
00cc00
008800
011000
011000
022000
044000
000000
000000
000000
000000
000000
000000
000000
000000
ENDCHAR
STARTCHAR 3005
ENCODING 12293
SWIDTH 520 0
DWIDTH 20 0
BBX 20 20 0 -3
BITMAP
000000
000000
010000
018000
010000
020800
03fc00
041800
081000
102000
204000
048000
030000
018000
00c000
008000
000000
000000
000000
000000
ENDCHAR
STARTCHAR 3008
ENCODING 12296
SWIDTH 520 0
DWIDTH 20 0
BBX 20 20 0 -3
BITMAP
000000
000100
000100
000200
000200
000400
000400
000800
000800
001000
001000
000800
000800
000400
000400
000200
000200
000100
000100
000000
ENDCHAR
STARTCHAR 3009
ENCODING 12297
SWIDTH 520 0
DWIDTH 20 0
BBX 20 20 0 -3
BITMAP
000000
100000
100000
080000
080000
040000
040000
020000
020000
010000
010000
020000
020000
040000
040000
080000
080000
100000
100000
000000
ENDCHAR
STARTCHAR 300a
ENCODING 12298
SWIDTH 520 0
DWIDTH 20 0
BBX 20 20 0 -3
BITMAP
000000
000900
000900
001200
001200
002400
002400
004800
004800
009000
009000
004800
004800
002400
002400
001200
001200
000900
000900
000000
ENDCHAR
STARTCHAR 300b
ENCODING 12299
SWIDTH 520 0
DWIDTH 20 0
BBX 20 20 0 -3
BITMAP
000000
120000
120000
090000
090000
048000
048000
024000
024000
012000
012000
024000
024000
048000
048000
090000
090000
120000
120000
000000
ENDCHAR
STARTCHAR 300c
ENCODING 12300
SWIDTH 520 0
DWIDTH 20 0
BBX 20 20 0 -3
BITMAP
000000
000f80
000800
000800
000800
000800
000800
000800
000800
000800
000800
000800
000800
000800
000800
000800
000000
000000
000000
000000
ENDCHAR
STARTCHAR 300d
ENCODING 12301
SWIDTH 520 0
DWIDTH 20 0
BBX 20 20 0 -3
BITMAP
000000
000000
000000
000000
020000
020000
020000
020000
020000
020000
020000
020000
020000
020000
020000
020000
020000
020000
3e0000
000000
ENDCHAR
STARTCHAR 300e
ENCODING 12302
SWIDTH 520 0
DWIDTH 20 0
BBX 20 20 0 -3
BITMAP
000000
007f80
004080
004080
004f80
004800
004800
004800
004800
004800
004800
004800
004800
004800
004800
007800
000000
000000
000000
000000
ENDCHAR
STARTCHAR 300f
ENCODING 12303
SWIDTH 520 0
DWIDTH 20 0
BBX 20 20 0 -3
BITMAP
000000
000000
000000
000000
03c000
024000
024000
024000
024000
024000
024000
024000
024000
024000
024000
3e4000
204000
204000
3fc000
000000
ENDCHAR
STARTCHAR 3010
ENCODING 12304
SWIDTH 520 0
DWIDTH 20 0
BBX 20 20 0 -3
BITMAP
000000
007f80
007f00
007e00
007e00
007c00
007c00
007800
007800
007800
007800
007800
007800
007c00
007c00
007e00
007e00
007f00
007f80
000000
ENDCHAR
STARTCHAR 3011
ENCODING 12305
SWIDTH 520 0
DWIDTH 20 0
BBX 20 20 0 -3
BITMAP
000000
3fc000
1fc000
0fc000
0fc000
07c000
07c000
03c000
03c000
03c000
03c000
03c000
03c000
07c000
07c000
0fc000
0fc000
1fc000
3fc000
000000
ENDCHAR
STARTCHAR 3013
ENCODING 12307
SWIDTH 520 0
DWIDTH 20 0
BBX 20 20 0 -3
BITMAP
000000
000000
000000
7fffc0
7fffc0
7fffc0
7fffc0
000000
000000
000000
000000
000000
7fffc0
7fffc0
7fffc0
7fffc0
000000
000000
000000
000000
ENDCHAR
STARTCHAR 3014
ENCODING 12308
SWIDTH 520 0
DWIDTH 20 0
BBX 20 20 0 -3
BITMAP
000000
000080
000100
000200
000400
000400
000400
000400
000400
000400
000400
000400
000400
000400
000400
000400
000200
000100
000080
000000
ENDCHAR
STARTCHAR 3015
ENCODING 12309
SWIDTH 520 0
DWIDTH 20 0
BBX 20 20 0 -3
BITMAP
000000
200000
100000
080000
040000
040000
040000
040000
040000
040000
040000
040000
040000
040000
040000
040000
080000
100000
200000
000000
ENDCHAR
STARTCHAR 3016
ENCODING 12310
SWIDTH 520 0
DWIDTH 20 0
BBX 20 20 0 -3
BITMAP
000000
007f80
004100
004200
004200
004400
004400
004800
004800
004800
004800
004800
004800
004400
004400
004200
004200
004100
007f80
000000
ENDCHAR
STARTCHAR 3017
ENCODING 12311
SWIDTH 520 0
DWIDTH 20 0
BBX 20 20 0 -3
BITMAP
000000
3fc000
104000
084000
084000
044000
044000
024000
024000
024000
024000
024000
024000
044000
044000
084000
084000
104000
3fc000
000000
ENDCHAR
STARTCHAR 3041
ENCODING 12353
SWIDTH 520 0
DWIDTH 20 0
BBX 20 20 0 -3
BITMAP
000000
000000
000000
000000
020000
020800
22f000
1f0000
020000
022000
03f800
062400
0a2200
124100
214100
218100
218100
124200
0c0c00
000000
ENDCHAR
STARTCHAR 3042
ENCODING 12354
SWIDTH 520 0
DWIDTH 20 0
BBX 20 20 0 -3
BITMAP
000000
020000
020000
023800
43c000
3e0000
020000
020000
021000
03f800
061600
0a1100
122080
2220c0
2140c0
4140c0
408180
234300
1c0c00
000000
ENDCHAR
STARTCHAR 3043
ENCODING 12355
SWIDTH 520 0
DWIDTH 20 0
BBX 20 20 0 -3
BITMAP
000000
000000
000000
000000
000000
000000
040000
020000
020800
040600
040300
040100
040200
044000
048000
028000
030000
010000
000000
000000
ENDCHAR
STARTCHAR 3044
ENCODING 12356
SWIDTH 520 0
DWIDTH 20 0
BBX 20 20 0 -3
BITMAP
000000
000000
000000
000000
100000
100000
081000
080c00
080600
080300
100100
100100
100000
110000
120000
1c0000
0c0000
080000
000000
000000
ENDCHAR
STARTCHAR 3045
ENCODING 12357
SWIDTH 520 0
DWIDTH 20 0
BBX 20 20 0 -3
BITMAP
000000
000000
040000
03c000
006000
006000
008000
000000
000000
087000
078800
000400
000400
000800
000800
001000
002000
004000
018000
000000
ENDCHAR
STARTCHAR 3046
ENCODING 12358
SWIDTH 520 0
DWIDTH 20 0
BBX 20 20 0 -3
BITMAP
000000
040000
03e000
003000
003000
004000
000000
001c00
10e600
0f0200
000200
000200
000200
000400
000400
000800
001000
006000
018000
000000
ENDCHAR
STARTCHAR 3047
ENCODING 12359
SWIDTH 520 0
DWIDTH 20 0
BBX 20 20 0 -3
BITMAP
000000
000000
000000
020000
01c000
006000
004000
000000
001000
08f800
073000
002000
004000
004000
00a000
012000
022000
061000
0c0f00
000000
ENDCHAR
STARTCHAR 3048
ENCODING 12360
SWIDTH 520 0
DWIDTH 20 0
BBX 20 20 0 -3
BITMAP
000000
040000
03c000
002000
002000
004000
000000
007000
119800
0e3000
002000
006000
004000
00a000
012000
022000
042000
0c1000
180f80
000000
ENDCHAR
STARTCHAR 3049
ENCODING 12361
SWIDTH 520 0
DWIDTH 20 0
BBX 20 20 0 -3
BITMAP
000000
000000
000000
000000
040000
020000
024700
238180
1e0100
020000
020000
027800
038600
060300
0a0300
120300
120200
0a4400
043800
000000
ENDCHAR
STARTCHAR 304a
ENCODING 12362
SWIDTH 520 0
DWIDTH 20 0
BBX 20 20 0 -3
BITMAP
000000
040000
020000
020600
022180
23c0c0
1e0180
020000
020000
027800
038600
060300
0a0180
120180
220180
620100
1e4200
063c00
020000
000000
ENDCHAR
STARTCHAR 304b
ENCODING 12363
SWIDTH 520 0
DWIDTH 20 0
BBX 20 20 0 -3
BITMAP
000000
020000
010000
010000
010000
010200
017100
239880
1d0840
010840
020980
020800
020800
040800
040800
081000
119000
206000
402000
000000
ENDCHAR
STARTCHAR 304c
ENCODING 12364
SWIDTH 520 0
DWIDTH 20 0
BBX 20 20 0 -3
BITMAP
000000
040100
020080
020440
020240
020100
020100
03c800
466400
3a2200
022100
042100
042200
082000
082000
102000
134000
20c000
408000
000000
ENDCHAR
STARTCHAR 304d
ENCODING 12365
SWIDTH 520 0
DWIDTH 20 0
BBX 20 20 0 -3
BITMAP
000000
008000
008c00
00b000
01c000
0e4000
004c00
003000
01e000
0e1000
001000
000800
00c800
003800
080800
080000
080000
040000
03f800
000000
ENDCHAR
STARTCHAR 304e
ENCODING 12366
SWIDTH 520 0
DWIDTH 20 0
BBX 20 20 0 -3
BITMAP
000000
020200
023180
02c080
070440
390300
013180
00c080
078000
384000
004000
002000
03a000
006000
202000
200000
200000
100000
0fe000
000000
ENDCHAR
STARTCHAR 304f
ENCODING 12367
SWIDTH 520 0
DWIDTH 20 0
BBX 20 20 0 -3
BITMAP
000000
004000
002000
002000
004000
004000
008000
010000
020000
040000
080000
040000
020000
010000
008000
004000
006000
002000
002000
000000
ENDCHAR
STARTCHAR 3050
ENCODING 12368
SWIDTH 520 0
DWIDTH 20 0
BBX 20 20 0 -3
BITMAP
000000
010400
008300
008180
010880
010600
020300
040100
080000
100000
200000
100000
080000
040000
020000
010000
010000
008000
008000
000000
ENDCHAR
STARTCHAR 3051
ENCODING 12369
SWIDTH 520 0
DWIDTH 20 0
BBX 20 20 0 -3
BITMAP
000000
002000
201000
100800
100800
100880
220fc0
21f800
200800
200800
200800
400800
440800
480800
480800
701000
301000
202000
004000
000000
ENDCHAR
STARTCHAR 3052
ENCODING 12370
SWIDTH 520 0
DWIDTH 20 0
BBX 20 20 0 -3
BITMAP
000100
004080
202440
101200
101100
101000
221f80
21f000
201000
201000
201000
401000
441000
481000
481000
702000
302000
204000
008000
000000
ENDCHAR
STARTCHAR 3053
ENCODING 12371
SWIDTH 520 0
DWIDTH 20 0
BBX 20 20 0 -3
BITMAP
000000
000000
000000
080000
07e000
003000
006000
018000
020000
000000
100000
200000
200000
300000
1c0200
07ff00
000000
000000
000000
000000
ENDCHAR
STARTCHAR 3054
ENCODING 12372
SWIDTH 520 0
DWIDTH 20 0
BBX 20 20 0 -3
BITMAP
000000
000100
000080
000040
080240
07e100
003080
006080
018000
020000
000000
100000
200000
200000
300000
180200
07ff00
000000
000000
000000
ENDCHAR
STARTCHAR 3055
ENCODING 12373
SWIDTH 520 0
DWIDTH 20 0
BBX 20 20 0 -3
BITMAP
000000
000000
008000
008600
009800
10e000
0f4000
002000
001000
000800
01cc00
003c00
040800
080000
080000
080000
041000
03f800
000000
000000
ENDCHAR
STARTCHAR 3056
ENCODING 12374
SWIDTH 520 0
DWIDTH 20 0
BBX 20 20 0 -3
BITMAP
000000
000100
010080
010840
013240
21c100
1e8080
004080
002000
001000
039800
007800
081000
100000
100000
100000
081000
07f800
000000
000000
ENDCHAR
STARTCHAR 3057
ENCODING 12375
SWIDTH 520 0
DWIDTH 20 0
BBX 20 20 0 -3
BITMAP
000000
000000
100000
080000
080000
080000
080000
080000
080000
080000
080000
080000
080000
080400
080800
081000
082000
04c000
030000
000000
ENDCHAR
STARTCHAR 3058
ENCODING 12376
SWIDTH 520 0
DWIDTH 20 0
BBX 20 20 0 -3
BITMAP
000000
000400
100300
080180
080880
080600
080300
080100
080000
080000
080000
080000
080000
080000
080400
080800
081000
046000
038000
000000
ENDCHAR
STARTCHAR 3059
ENCODING 12377
SWIDTH 520 0
DWIDTH 20 0
BBX 20 20 0 -3
BITMAP
000000
008000
004000
004100
004f80
41f000
3e4000
004000
01e000
025000
044800
044800
038800
000800
001000
001000
002000
00c000
070000
000000
ENDCHAR
STARTCHAR 305a
ENCODING 12378
SWIDTH 520 0
DWIDTH 20 0
BBX 20 20 0 -3
BITMAP
000100
010080
008040
008240
00b900
47c080
388080
008000
03c000
04a000
089000
089000
071000
001000
002000
002000
004000
018000
0e0000
000000
ENDCHAR
STARTCHAR 305b
ENCODING 12379
SWIDTH 520 0
DWIDTH 20 0
BBX 20 20 0 -3
BITMAP
000000
001000
080800
040800
040800
040880
040fc0
04f800
7f0800
240800
040800
040800
044800
043800
041000
040000
040000
030000
00fe00
000000
ENDCHAR
STARTCHAR 305c
ENCODING 12380
SWIDTH 520 0
DWIDTH 20 0
BBX 20 20 0 -3
BITMAP
000080
001040
080820
040900
040880
040840
040f40
05f800
7e0800
240800
040800
040800
044800
043800
041000
040000
040000
030000
00fe00
000000
ENDCHAR
STARTCHAR 305d
ENCODING 12381
SWIDTH 520 0
DWIDTH 20 0
BBX 20 20 0 -3
BITMAP
000000
087000
079800
001000
002000
004000
008000
030100
0c3f80
3fe000
188000
010000
020000
020000
020000
010000
00c000
003e00
000000
000000
ENDCHAR
STARTCHAR 305e
ENCODING 12382
SWIDTH 520 0
DWIDTH 20 0
BBX 20 20 0 -3
BITMAP
000000
000100
10e080
0f3440
002240
004100
008100
010000
060400
187e00
7fc000
310000
020000
040000
040000
040000
020000
018000
007c00
000000
ENDCHAR
STARTCHAR 305f
ENCODING 12383
SWIDTH 520 0
DWIDTH 20 0
BBX 20 20 0 -3
BITMAP
000000
040000
020000
020000
022000
23c000
1e0000
021e00
020300
040200
040400
040000
080000
088000
108000
108000
204100
403f80
000000
000000
ENDCHAR
STARTCHAR 3060
ENCODING 12384
SWIDTH 520 0
DWIDTH 20 0
BBX 20 20 0 -3
BITMAP
000000
040200
020100
020480
022200
23c100
1e0000
021e00
020300
040200
040400
040000
080000
088000
108000
108000
204100
403f80
000000
000000
ENDCHAR
STARTCHAR 3061
ENCODING 12385
SWIDTH 520 0
DWIDTH 20 0
BBX 20 20 0 -3
BITMAP
000000
010000
008000
008000
009000
21f800
1f0000
010000
020000
027800
038400
060200
040200
000200
000400
000400
000800
003000
01c000
000000
ENDCHAR
STARTCHAR 3062
ENCODING 12386
SWIDTH 520 0
DWIDTH 20 0
BBX 20 20 0 -3
BITMAP
000000
020200
010100
010080
012080
43f400
3e0200
020100
040100
04f000
070800
0c0400
080400
000400
000800
000800
001000
006000
038000
000000
ENDCHAR
STARTCHAR 3063
ENCODING 12387
SWIDTH 520 0
DWIDTH 20 0
BBX 20 20 0 -3
BITMAP
000000
000000
000000
000000
000000
000000
000000
000000
000000
003800
0fc400
040200
000200
000200
000200
000400
000800
003000
00c000
000000
ENDCHAR
STARTCHAR 3064
ENCODING 12388
SWIDTH 520 0
DWIDTH 20 0
BBX 20 20 0 -3
BITMAP
000000
000000
000000
000000
007800
038600
7e0100
380080
100080
000080
000100
000100
000200
000400
000800
003000
00c000
000000
000000
000000
ENDCHAR
STARTCHAR 3065
ENCODING 12389
SWIDTH 520 0
DWIDTH 20 0
BBX 20 20 0 -3
BITMAP
000000
000200
000180
0004c0
000340
007180
038c80
7e0200
380100
100100
000100
000200
000200
000400
000800
001000
006000
018000
000000
000000
ENDCHAR
STARTCHAR 3066
ENCODING 12390
SWIDTH 520 0
DWIDTH 20 0
BBX 20 20 0 -3
BITMAP
000000
000000
000000
000000
000200
000f00
01f000
7e4000
208000
010000
020000
020000
040000
040000
040000
040000
020000
018000
007c00
000000
ENDCHAR
STARTCHAR 3067
ENCODING 12391
SWIDTH 520 0
DWIDTH 20 0
BBX 20 20 0 -3
BITMAP
000000
000000
000000
000000
000400
001e00
01e000
7e4100
208080
010440
020240
020100
040100
040000
040000
040000
020000
018000
007c00
000000
ENDCHAR
STARTCHAR 3068
ENCODING 12392
SWIDTH 520 0
DWIDTH 20 0
BBX 20 20 0 -3
BITMAP
000000
000000
020000
010000
010000
010000
010000
010800
009c00
00e000
030000
040000
080000
080000
080000
080000
040000
03fe00
000000
000000
ENDCHAR
STARTCHAR 3069
ENCODING 12393
SWIDTH 520 0
DWIDTH 20 0
BBX 20 20 0 -3
BITMAP
000000
000200
020100
010880
010480
010200
010200
010000
009c00
00e000
030000
040000
080000
080000
080000
080000
040000
03fe00
000000
000000
ENDCHAR
STARTCHAR 306a
ENCODING 12394
SWIDTH 520 0
DWIDTH 20 0
BBX 20 20 0 -3
BITMAP
000000
020000
020000
020000
024700
23e080
1e0080
020100
040200
041000
040800
080800
080800
100800
11f800
220e00
020900
011080
00e000
000000
ENDCHAR
STARTCHAR 306b
ENCODING 12395
SWIDTH 520 0
DWIDTH 20 0
BBX 20 20 0 -3
BITMAP
000000
000000
200000
200000
101e00
10e100
100200
100000
100000
200000
200000
400000
400000
450000
490000
488100
307f80
300000
200000
000000
ENDCHAR
STARTCHAR 306c
ENCODING 12396
SWIDTH 520 0
DWIDTH 20 0
BBX 20 20 0 -3
BITMAP
000000
008000
008000
004000
004000
085e00
08e100
094080
0a4040
0c4040
084040
148040
148040
229c80
232280
412100
42a280
449c40
380040
000000
ENDCHAR
STARTCHAR 306d
ENCODING 12397
SWIDTH 520 0
DWIDTH 20 0
BBX 20 20 0 -3
BITMAP
000000
080000
040000
040000
040000
071c00
3c6200
048100
050100
060080
040080
0c0080
140080
240080
243d00
444300
344280
1c4440
083840
000000
ENDCHAR
STARTCHAR 306e
ENCODING 12398
SWIDTH 520 0
DWIDTH 20 0
BBX 20 20 0 -3
BITMAP
000000
000000
000000
000000
03f800
0c4600
104300
204180
204080
4080c0
4080c0
408080
410080
210100
320100
1c0200
000c00
003000
000000
000000
ENDCHAR
STARTCHAR 306f
ENCODING 12399
SWIDTH 520 0
DWIDTH 20 0
BBX 20 20 0 -3
BITMAP
000000
202000
201000
101800
100800
100900
108f80
107800
200800
200800
200800
400800
480800
480800
507800
518e00
320980
221040
21e000
000000
ENDCHAR
STARTCHAR 3070
ENCODING 12400
SWIDTH 520 0
DWIDTH 20 0
BBX 20 20 0 -3
BITMAP
000000
204100
202080
103240
101100
101080
101000
111e00
20f000
201000
201000
401000
481000
481000
50f000
511c00
321300
221080
21e000
000000
ENDCHAR
STARTCHAR 3071
ENCODING 12401
SWIDTH 520 0
DWIDTH 20 0
BBX 20 20 0 -3
BITMAP
000000
204180
202240
103240
101180
101000
101000
111f00
20f000
201000
201000
401000
481000
481000
50f000
511c00
321300
221080
21e000
000000
ENDCHAR
STARTCHAR 3072
ENCODING 12402
SWIDTH 520 0
DWIDTH 20 0
BBX 20 20 0 -3
BITMAP
000000
000000
000000
038000
3e0400
120400
040600
040500
0804c0
080400
080400
100800
100800
100800
081000
081000
042000
03c000
000000
000000
ENDCHAR
STARTCHAR 3073
ENCODING 12403
SWIDTH 520 0
DWIDTH 20 0
BBX 20 20 0 -3
BITMAP
000000
000100
000080
000440
070240
7c0900
240900
080c00
080a00
100980
100800
100800
201000
201000
201000
102000
102000
084000
078000
000000
ENDCHAR
STARTCHAR 3074
ENCODING 12404
SWIDTH 520 0
DWIDTH 20 0
BBX 20 20 0 -3
BITMAP
000000
000180
000240
000240
070180
7c0800
240800
080c00
080a00
100980
100800
100800
201000
201000
201000
102000
102000
084000
078000
000000
ENDCHAR
STARTCHAR 3075
ENCODING 12405
SWIDTH 520 0
DWIDTH 20 0
BBX 20 20 0 -3
BITMAP
000000
00c000
002000
003000
002000
004000
008000
008000
004000
004000
003800
00e600
032100
043180
483380
303000
072000
01e000
004000
000000
ENDCHAR
STARTCHAR 3076
ENCODING 12406
SWIDTH 520 0
DWIDTH 20 0
BBX 20 20 0 -3
BITMAP
000000
00c100
002080
003440
002240
004100
008100
008000
004000
004000
003800
00e600
032100
043180
483380
303000
072000
01e000
004000
000000
ENDCHAR
STARTCHAR 3077
ENCODING 12407
SWIDTH 520 0
DWIDTH 20 0
BBX 20 20 0 -3
BITMAP
000000
00c180
002240
003240
002180
004000
008000
008000
004000
004000
003800
00e600
032100
043180
483380
303000
072000
01e000
004000
000000
ENDCHAR
STARTCHAR 3078
ENCODING 12408
SWIDTH 520 0
DWIDTH 20 0
BBX 20 20 0 -3
BITMAP
000000
000000
000000
000000
000000
018000
026000
041000
180800
700600
200380
0001c0
000000
000000
000000
000000
000000
000000
000000
000000
ENDCHAR
STARTCHAR 3079
ENCODING 12409
SWIDTH 520 0
DWIDTH 20 0
BBX 20 20 0 -3
BITMAP
000000
000000
000400
000300
000180
000880
000600
018300
026100
041000
180800
700600
200380
0001c0
000000
000000
000000
000000
000000
000000
ENDCHAR
STARTCHAR 307a
ENCODING 12410
SWIDTH 520 0
DWIDTH 20 0
BBX 20 20 0 -3
BITMAP
000000
000000
000000
000000
000300
000480
000480
018300
026000
041000
180800
700600
200380
0001c0
000000
000000
000000
000000
000000
000000
ENDCHAR
STARTCHAR 307b
ENCODING 12411
SWIDTH 520 0
DWIDTH 20 0
BBX 20 20 0 -3
BITMAP
000000
000000
200700
20f800
101000
101800
100800
100900
220f80
21f800
200800
400800
480800
480800
50f800
510e00
320980
221040
21e000
000000
ENDCHAR
STARTCHAR 307c
ENCODING 12412
SWIDTH 520 0
DWIDTH 20 0
BBX 20 20 0 -3
BITMAP
000000
000100
001cc0
21f040
202100
1010c0
101040
101200
221f00
21f000
201000
401000
481000
481000
50f000
511c00
321300
221080
21e000
000000
ENDCHAR
STARTCHAR 307d
ENCODING 12413
SWIDTH 520 0
DWIDTH 20 0
BBX 20 20 0 -3
BITMAP
000000
000000
001cc0
21f120
202120
1010c0
101000
101200
221f00
21f000
201000
401000
481000
481000
50f000
511c00
321300
221080
21e000
000000
ENDCHAR
STARTCHAR 307e
ENCODING 12414
SWIDTH 520 0
DWIDTH 20 0
BBX 20 20 0 -3
BITMAP
000000
008000
004000
004000
004200
107f00
0fc000
004000
004400
087e00
07c000
004000
004000
004000
03e000
0c5800
104600
108100
0f0000
000000
ENDCHAR
STARTCHAR 307f
ENCODING 12415
SWIDTH 520 0
DWIDTH 20 0
BBX 20 20 0 -3
BITMAP
000000
000000
00c000
092000
062000
002000
002000
002000
004000
004400
004200
03c200
0cb200
108c00
210600
220900
240880
181040
002000
000000
ENDCHAR
STARTCHAR 3080
ENCODING 12416
SWIDTH 520 0
DWIDTH 20 0
BBX 20 20 0 -3
BITMAP
000000
040000
020000
020000
022000
43f000
3e0300
020080
020040
1e00c0
230000
230000
130000
0f0400
020400
040200
040200
040300
03fe00
000000
ENDCHAR
STARTCHAR 3081
ENCODING 12417
SWIDTH 520 0
DWIDTH 20 0
BBX 20 20 0 -3
BITMAP
000000
004000
102000
082000
082000
082000
09f800
0e2600
142100
244080
224080
428080
410080
428100
444100
380200
000c00
003000
000000
000000
ENDCHAR
STARTCHAR 3082
ENCODING 12418
SWIDTH 520 0
DWIDTH 20 0
BBX 20 20 0 -3
BITMAP
000000
020000
010000
010000
010000
21f000
1f0000
010000
010000
020200
022100
43f100
3e0100
020080
020080
020080
020080
010100
00fe00
000000
ENDCHAR
STARTCHAR 3083
ENCODING 12419
SWIDTH 520 0
DWIDTH 20 0
BBX 20 20 0 -3
BITMAP
000000
000000
000000
000000
00e000
001000
001000
016000
020000
020f00
01f080
1f0080
088100
008600
004000
004000
002000
002000
000000
000000
ENDCHAR
STARTCHAR 3084
ENCODING 12420
SWIDTH 520 0
DWIDTH 20 0
BBX 20 20 0 -3
BITMAP
000000
010000
00f000
000800
000800
00f000
070000
080000
080f00
087080
078040
7c0040
220040
021880
010700
010000
008000
008000
004000
000000
ENDCHAR
STARTCHAR 3085
ENCODING 12421
SWIDTH 520 0
DWIDTH 20 0
BBX 20 20 0 -3
BITMAP
000000
000000
000000
004000
002000
202000
10f800
112400
122200
222100
242100
242100
282100
292200
28c400
107800
108000
010000
000000
000000
ENDCHAR
STARTCHAR 3086
ENCODING 12422
SWIDTH 520 0
DWIDTH 20 0
BBX 20 20 0 -3
BITMAP
000000
002000
101000
100800
080800
083e00
084900
088880
110880
110840
120840
220840
220840
240880
248880
144900
1c3e00
081000
082000
004000
ENDCHAR
STARTCHAR 3087
ENCODING 12423
SWIDTH 520 0
DWIDTH 20 0
BBX 20 20 0 -3
BITMAP
000000
000000
000000
000000
008000
004000
004000
004400
007e00
004000
004000
004000
004000
03f800
044600
084100
084080
078000
000000
000000
ENDCHAR
STARTCHAR 3088
ENCODING 12424
SWIDTH 520 0
DWIDTH 20 0
BBX 20 20 0 -3
BITMAP
000000
008000
004000
004000
004000
004100
004780
007800
004000
004000
004000
004000
004000
07c000
187800
204600
204100
208080
1f0000
000000
ENDCHAR
STARTCHAR 3089
ENCODING 12425
SWIDTH 520 0
DWIDTH 20 0
BBX 20 20 0 -3
BITMAP
000000
060000
018000
00c000
01c000
020000
040000
040000
080000
080000
083c00
08c200
0b0100
0e0100
040100
000200
000400
001800
006000
000000
ENDCHAR
STARTCHAR 308a
ENCODING 12426
SWIDTH 520 0
DWIDTH 20 0
BBX 20 20 0 -3
BITMAP
000000
080000
040000
047000
048800
050400
050400
050400
060400
060400
060400
020400
020400
000800
000800
001000
001000
002000
004000
008000
ENDCHAR
STARTCHAR 308b
ENCODING 12427
SWIDTH 520 0
DWIDTH 20 0
BBX 20 20 0 -3
BITMAP
000000
000000
006000
019000
0e1000
042000
004000
008000
010000
027000
058c00
0e0200
180100
000100
01c100
022100
022200
022c00
01f000
000000
ENDCHAR
STARTCHAR 308c
ENCODING 12428
SWIDTH 520 0
DWIDTH 20 0
BBX 20 20 0 -3
BITMAP
000000
080000
040000
040000
043000
074800
3c8800
048800
050800
060800
041000
0c1000
0c1000
141000
241000
641000
141040
0c0880
040700
000000
ENDCHAR
STARTCHAR 308d
ENCODING 12429
SWIDTH 520 0
DWIDTH 20 0
BBX 20 20 0 -3
BITMAP
000000
000000
00e000
1f3000
082000
004000
008000
010000
010000
027800
058600
060100
0c0100
080100
180200
100200
000400
001800
006000
000000
ENDCHAR
STARTCHAR 308e
ENCODING 12430
SWIDTH 520 0
DWIDTH 20 0
BBX 20 20 0 -3
BITMAP
000000
000000
040000
020000
020000
020000
03c000
060000
3a3c00
02c200
030100
060100
0a0100
120200
320200
2a0400
060800
023000
000000
000000
ENDCHAR
STARTCHAR 308f
ENCODING 12431
SWIDTH 520 0
DWIDTH 20 0
BBX 20 20 0 -3
BITMAP
000000
080000
040000
040000
040000
05c000
0e0000
340000
047800
058600
060100
0c0080
140080
240080
640080
640100
3c0200
0c0c00
043000
000000
ENDCHAR
STARTCHAR 3090
ENCODING 12432
SWIDTH 520 0
DWIDTH 20 0
BBX 20 20 0 -3
BITMAP
000000
000000
00c000
1f6000
084000
004000
004000
004000
00f800
034600
048100
088080
108080
210080
211880
422480
422480
242500
181e00
000000
ENDCHAR
STARTCHAR 3091
ENCODING 12433
SWIDTH 520 0
DWIDTH 20 0
BBX 20 20 0 -3
BITMAP
000000
00e000
0f2000
044000
008000
01f800
060400
0c0200
080200
01c200
022400
01f800
004000
008000
030000
0c0700
1a0980
31b080
30c100
000000
ENDCHAR
STARTCHAR 3092
ENCODING 12434
SWIDTH 520 0
DWIDTH 20 0
BBX 20 20 0 -3
BITMAP
000000
020000
010000
010800
21f000
1f0000
010c00
021200
020200
05c400
062800
0c3000
186000
10a000
012000
022000
020000
018000
007e00
000000
ENDCHAR
STARTCHAR 3093
ENCODING 12435
SWIDTH 520 0
DWIDTH 20 0
BBX 20 20 0 -3
BITMAP
000000
010000
008000
008000
008000
018000
010000
010000
010000
020000
02c000
032000
061000
041000
0c1000
081100
081200
180c00
100000
000000
ENDCHAR
STARTCHAR 30a1
ENCODING 12449
SWIDTH 520 0
DWIDTH 20 0
BBX 20 20 0 -3
BITMAP
000000
000000
000000
000000
000000
007c00
0f8600
040c00
001000
00a000
004000
004000
004000
004000
008000
008000
010000
010000
020000
000000
ENDCHAR
STARTCHAR 30a2
ENCODING 12450
SWIDTH 520 0
DWIDTH 20 0
BBX 20 20 0 -3
BITMAP
000000
000000
000f00
20f180
1f0300
080400
000800
009000
006000
004000
004000
004000
004000
004000
008000
008000
010000
010000
020000
000000
ENDCHAR
STARTCHAR 30a3
ENCODING 12451
SWIDTH 520 0
DWIDTH 20 0
BBX 20 20 0 -3
BITMAP
000000
000000
000000
000000
002000
003000
003000
006000
004000
008000
018000
024000
044000
084000
004000
004000
004000
004000
004000
000000
ENDCHAR
STARTCHAR 30a4
ENCODING 12452
SWIDTH 520 0
DWIDTH 20 0
BBX 20 20 0 -3
BITMAP
000000
002000
003000
003000
006000
006000
00c000
008000
01c000
014000
034000
024000
044000
084000
104000
004000
004000
004000
004000
000000
ENDCHAR
STARTCHAR 30a5
ENCODING 12453
SWIDTH 520 0
DWIDTH 20 0
BBX 20 20 0 -3
BITMAP
000000
008000
004000
004000
004000
104400
087e00
0f8600
080400
080400
080800
000800
000800
001000
001000
002000
004000
018000
060000
000000
ENDCHAR
STARTCHAR 30a6
ENCODING 12454
SWIDTH 520 0
DWIDTH 20 0
BBX 20 20 0 -3
BITMAP
000000
008000
004000
004000
204100
107f80
1fc300
100300
100300
100200
000600
000400
000c00
000800
001800
003000
006000
00c000
030000
000000
ENDCHAR
STARTCHAR 30a7
ENCODING 12455
SWIDTH 520 0
DWIDTH 20 0
BBX 20 20 0 -3
BITMAP
000000
000000
000000
000000
000400
003e00
0fc000
004000
004000
004000
004000
004000
004100
007f80
1fc000
000000
000000
000000
000000
000000
ENDCHAR
STARTCHAR 30a8
ENCODING 12456
SWIDTH 520 0
DWIDTH 20 0
BBX 20 20 0 -3
BITMAP
000000
000000
000000
000000
000200
007f00
1fc000
004000
004000
004000
004000
004000
004000
004080
007fc0
7fc000
000000
000000
000000
000000
ENDCHAR
STARTCHAR 30a9
ENCODING 12457
SWIDTH 520 0
DWIDTH 20 0
BBX 20 20 0 -3
BITMAP
000000
000000
008000
004000
004000
004400
107e00
0fc000
00c000
01c000
034000
024000
044000
084000
104000
024000
01c000
008000
000000
000000
ENDCHAR
STARTCHAR 30aa
ENCODING 12458
SWIDTH 520 0
DWIDTH 20 0
BBX 20 20 0 -3
BITMAP
000000
004000
002000
002000
002100
002f80
21f000
1e6000
006000
00e000
00a000
01a000
032000
062000
0c2000
182000
212000
00e000
004000
000000
ENDCHAR
STARTCHAR 30ab
ENCODING 12459
SWIDTH 520 0
DWIDTH 20 0
BBX 20 20 0 -3
BITMAP
000000
000000
010000
008000
008000
008400
009e00
21e400
1e8400
008400
010400
010400
010400
020400
020800
044800
083800
101000
000000
000000
ENDCHAR
STARTCHAR 30ac
ENCODING 12460
SWIDTH 520 0
DWIDTH 20 0
BBX 20 20 0 -3
BITMAP
000000
000100
010080
008240
008100
008080
008480
00be00
23c400
1c8400
010400
010400
010400
020400
020400
040800
084800
103000
202000
000000
ENDCHAR
STARTCHAR 30ad
ENCODING 12461
SWIDTH 520 0
DWIDTH 20 0
BBX 20 20 0 -3
BITMAP
000000
080000
040000
040000
020800
027000
038000
1d0000
010000
008200
009c00
03e000
3c4000
002000
002000
001000
001000
000800
000800
000000
ENDCHAR
STARTCHAR 30ae
ENCODING 12462
SWIDTH 520 0
DWIDTH 20 0
BBX 20 20 0 -3
BITMAP
000000
100200
080100
080080
040480
047200
078100
3a0100
020000
010000
013c00
07c000
788000
004000
004000
002000
002000
001000
001000
000000
ENDCHAR
STARTCHAR 30af
ENCODING 12463
SWIDTH 520 0
DWIDTH 20 0
BBX 20 20 0 -3
BITMAP
000000
010000
008000
00c000
008200
009f00
01e200
010200
020200
040400
080400
100800
000800
001000
002000
004000
018000
060000
180000
000000
ENDCHAR
STARTCHAR 30b0
ENCODING 12464
SWIDTH 520 0
DWIDTH 20 0
BBX 20 20 0 -3
BITMAP
000000
000100
020080
010240
010100
010480
013e80
03c400
020400
040400
080800
100800
201000
002000
004000
008000
030000
0c0000
300000
000000
ENDCHAR
STARTCHAR 30b1
ENCODING 12465
SWIDTH 520 0
DWIDTH 20 0
BBX 20 20 0 -3
BITMAP
000000
040000
020000
020000
020200
023f00
07d000
041000
081000
082000
102000
004000
004000
008000
008000
010000
060000
180000
000000
000000
ENDCHAR
STARTCHAR 30b2
ENCODING 12466
SWIDTH 520 0
DWIDTH 20 0
BBX 20 20 0 -3
BITMAP
000000
000100
080080
040240
040100
040880
047c80
0fa000
082000
102000
104000
204000
008000
008000
010000
010000
020000
0c0000
300000
000000
ENDCHAR
STARTCHAR 30b3
ENCODING 12467
SWIDTH 520 0
DWIDTH 20 0
BBX 20 20 0 -3
BITMAP
000000
000000
000000
000000
000400
007e00
1f8400
080400
000400
000800
000800
000800
000800
007c00
1f8000
080000
000000
000000
000000
000000
ENDCHAR
STARTCHAR 30b4
ENCODING 12468
SWIDTH 520 0
DWIDTH 20 0
BBX 20 20 0 -3
BITMAP
000000
000200
000100
000480
000200
000900
00fd00
3f0800
100800
000800
001000
001000
001000
001000
00f800
3f0000
100000
000000
000000
000000
ENDCHAR
STARTCHAR 30b5
ENCODING 12469
SWIDTH 520 0
DWIDTH 20 0
BBX 20 20 0 -3
BITMAP
000000
001000
040800
020800
020800
020800
020840
020f80
03f800
7e0800
220800
020800
021000
021000
021000
002000
002000
004000
008000
000000
ENDCHAR
STARTCHAR 30b6
ENCODING 12470
SWIDTH 520 0
DWIDTH 20 0
BBX 20 20 0 -3
BITMAP
000000
000100
002080
081240
041100
041080
041000
041f00
07f000
7c1000
241000
041000
042000
042000
042000
004000
004000
008000
010000
000000
ENDCHAR
STARTCHAR 30b7
ENCODING 12471
SWIDTH 520 0
DWIDTH 20 0
BBX 20 20 0 -3
BITMAP
000000
000000
080000
060000
030000
010000
010100
100200
0c0400
060800
021000
022000
006000
00c000
018000
230000
1e0000
0c0000
000000
000000
ENDCHAR
STARTCHAR 30b8
ENCODING 12472
SWIDTH 520 0
DWIDTH 20 0
BBX 20 20 0 -3
BITMAP
000000
000400
000200
082100
061100
030800
010800
010000
100000
0c0400
060800
021000
022000
006000
00c000
018000
230000
1e0000
0c0000
000000
ENDCHAR
STARTCHAR 30b9
ENCODING 12473
SWIDTH 520 0
DWIDTH 20 0
BBX 20 20 0 -3
BITMAP
000000
000000
000000
000000
001c00
11e600
0e0c00
000800
001800
001000
003000
002000
005000
008c00
010600
020300
0c0200
300000
000000
000000
ENDCHAR
STARTCHAR 30ba
ENCODING 12474
SWIDTH 520 0
DWIDTH 20 0
BBX 20 20 0 -3
BITMAP
000000
000200
000100
000480
000200
003900
23cd00
1c1800
001000
003000
002000
006000
004000
00a000
011800
020c00
040600
180400
600000
000000
ENDCHAR
STARTCHAR 30bb
ENCODING 12475
SWIDTH 520 0
DWIDTH 20 0
BBX 20 20 0 -3
BITMAP
000000
040000
020000
020000
020000
020000
023c00
03c600
7e0c00
221800
022000
020000
020000
020000
020000
020000
010400
00fe00
000000
000000
ENDCHAR
STARTCHAR 30bc
ENCODING 12476
SWIDTH 520 0
DWIDTH 20 0
BBX 20 20 0 -3
BITMAP
000000
040100
020080
020040
020240
020100
023c80
03c680
7e0c00
221800
022000
020000
020000
020000
020000
020000
010400
00fe00
000000
000000
ENDCHAR
STARTCHAR 30bd
ENCODING 12477
SWIDTH 520 0
DWIDTH 20 0
BBX 20 20 0 -3
BITMAP
000000
000000
000400
000200
000300
080300
040300
060200
030600
030400
020c00
000800
001800
003000
006000
00c000
018000
060000
380000
000000
ENDCHAR
STARTCHAR 30be
ENCODING 12478
SWIDTH 520 0
DWIDTH 20 0
BBX 20 20 0 -3
BITMAP
000000
000100
000080
000240
001100
000880
100c80
080c00
0c0800
061800
061000
043000
002000
006000
00c000
018000
030000
0c0000
700000
000000
ENDCHAR
STARTCHAR 30bf
ENCODING 12479
SWIDTH 520 0
DWIDTH 20 0
BBX 20 20 0 -3
BITMAP
000000
010000
008000
00c000
008200
009f00
01e200
010200
020200
040400
080400
106800
001800
001c00
002600
004400
018000
060000
180000
000000
ENDCHAR
STARTCHAR 30c0
ENCODING 12480
SWIDTH 520 0
DWIDTH 20 0
BBX 20 20 0 -3
BITMAP
000000
000100
020080
010240
010100
010480
013e80
03c400
020400
040400
080800
100800
219000
006000
007800
009c00
030800
0c0000
300000
000000
ENDCHAR
STARTCHAR 30c1
ENCODING 12481
SWIDTH 520 0
DWIDTH 20 0
BBX 20 20 0 -3
BITMAP
000000
000800
001c00
00e000
0f8000
004000
004100
004f80
01f000
3e4000
004000
008000
008000
008000
010000
010000
020000
040000
080000
000000
ENDCHAR
STARTCHAR 30c2
ENCODING 12482
SWIDTH 520 0
DWIDTH 20 0
BBX 20 20 0 -3
BITMAP
000000
000100
001080
003a40
01c100
1f0080
008000
008200
009f00
03e000
3c8000
008000
010000
010000
020000
020000
040000
080000
100000
000000
ENDCHAR
STARTCHAR 30c3
ENCODING 12483
SWIDTH 520 0
DWIDTH 20 0
BBX 20 20 0 -3
BITMAP
000000
000000
000000
000000
000000
020800
018400
00c600
104600
0c0400
060c00
020800
001800
003000
006000
00c000
030000
0c0000
000000
000000
ENDCHAR
STARTCHAR 30c4
ENCODING 12484
SWIDTH 520 0
DWIDTH 20 0
BBX 20 20 0 -3
BITMAP
000000
000000
000400
000200
020300
018300
00c200
004600
200600
180400
0c0c00
040800
001800
003000
006000
00c000
018000
060000
180000
000000
ENDCHAR
STARTCHAR 30c5
ENCODING 12485
SWIDTH 520 0
DWIDTH 20 0
BBX 20 20 0 -3
BITMAP
000000
000100
000080
000240
000100
020880
018400
00c600
204400
180c00
0c0800
041800
001000
003000
006000
00c000
018000
060000
180000
000000
ENDCHAR
STARTCHAR 30c6
ENCODING 12486
SWIDTH 520 0
DWIDTH 20 0
BBX 20 20 0 -3
BITMAP
000000
000000
000800
007c00
0f8000
000000
000000
000200
001f00
01e000
1e4000
004000
004000
008000
008000
010000
020000
040000
080000
000000
ENDCHAR
STARTCHAR 30c7
ENCODING 12487
SWIDTH 520 0
DWIDTH 20 0
BBX 20 20 0 -3
BITMAP
000000
000100
000080
001240
00f900
1f0080
000080
000400
003e00
03c000
3c8000
008000
008000
010000
010000
020000
040000
080000
100000
000000
ENDCHAR
STARTCHAR 30c8
ENCODING 12488
SWIDTH 520 0
DWIDTH 20 0
BBX 20 20 0 -3
BITMAP
000000
040000
020000
020000
020000
020000
020000
020000
028000
026000
023000
021800
021800
020800
020000
020000
020000
020000
020000
000000
ENDCHAR
STARTCHAR 30c9
ENCODING 12489
SWIDTH 520 0
DWIDTH 20 0
BBX 20 20 0 -3
BITMAP
000000
040400
020200
020100
020900
020400
020200
020200
028000
026000
023000
021800
021800
020800
020000
020000
020000
020000
020000
000000
ENDCHAR
STARTCHAR 30ca
ENCODING 12490
SWIDTH 520 0
DWIDTH 20 0
BBX 20 20 0 -3
BITMAP
000000
008000
00c000
004000
004000
004100
004f80
01f000
1e4000
004000
004000
008000
008000
008000
010000
010000
020000
040000
080000
000000
ENDCHAR
STARTCHAR 30cb
ENCODING 12491
SWIDTH 520 0
DWIDTH 20 0
BBX 20 20 0 -3
BITMAP
000000
000000
000000
000000
000000
000400
003e00
0fc000
000000
000000
000000
000000
000100
007f80
3f8000
000000
000000
000000
000000
000000
ENDCHAR
STARTCHAR 30cc
ENCODING 12492
SWIDTH 520 0
DWIDTH 20 0
BBX 20 20 0 -3
BITMAP
000000
000000
000200
001f00
0fe300
040200
000600
000400
010c00
00c800
007800
003000
003c00
006e00
00c600
018400
030000
0c0000
300000
000000
ENDCHAR
STARTCHAR 30cd
ENCODING 12493
SWIDTH 520 0
DWIDTH 20 0
BBX 20 20 0 -3
BITMAP
000000
008000
006000
002000
000000
001000
10f800
0f3000
006000
004000
00d000
014c00
024600
044400
084000
104000
004000
004000
004000
000000
ENDCHAR
STARTCHAR 30ce
ENCODING 12494
SWIDTH 520 0
DWIDTH 20 0
BBX 20 20 0 -3
BITMAP
000000
000000
001000
000800
000c00
000c00
001800
001800
001000
003000
002000
006000
004000
00c000
018000
030000
060000
180000
000000
000000
ENDCHAR
STARTCHAR 30cf
ENCODING 12495
SWIDTH 520 0
DWIDTH 20 0
BBX 20 20 0 -3
BITMAP
000000
000000
000000
000000
000000
000000
031000
018800
018400
030600
030300
060380
0c0180
180180
300100
400000
000000
000000
000000
000000
ENDCHAR
STARTCHAR 30d0
ENCODING 12496
SWIDTH 520 0
DWIDTH 20 0
BBX 20 20 0 -3
BITMAP
000000
000000
000600
000180
000080
000c00
000300
031100
018800
018400
030600
030300
060380
0c0180
180180
300100
400000
000000
000000
000000
ENDCHAR
STARTCHAR 30d1
ENCODING 12497
SWIDTH 520 0
DWIDTH 20 0
BBX 20 20 0 -3
BITMAP
000000
000000
000300
000480
000480
000300
000000
031000
018800
018400
030600
030300
060380
0c0180
180180
300100
400000
000000
000000
000000
ENDCHAR
STARTCHAR 30d2
ENCODING 12498
SWIDTH 520 0
DWIDTH 20 0
BBX 20 20 0 -3
BITMAP
000000
000000
000000
080000
040000
040800
040c00
043000
04c000
070000
040000
040000
040000
040000
020400
01fe00
000000
000000
000000
000000
ENDCHAR
STARTCHAR 30d3
ENCODING 12499
SWIDTH 520 0
DWIDTH 20 0
BBX 20 20 0 -3
BITMAP
000000
000600
000180
000080
100c00
080300
081100
081800
086000
098000
0e0000
080000
080000
080000
080000
040800
03fc00
000000
000000
000000
ENDCHAR
STARTCHAR 30d4
ENCODING 12500
SWIDTH 520 0
DWIDTH 20 0
BBX 20 20 0 -3
BITMAP
000000
000000
000300
000480
100480
080300
081000
081800
086000
098000
0e0000
080000
080000
080000
080000
040800
03fc00
000000
000000
000000
ENDCHAR
STARTCHAR 30d5
ENCODING 12501
SWIDTH 520 0
DWIDTH 20 0
BBX 20 20 0 -3
BITMAP
000000
000000
000000
000400
001e00
21e600
1e0600
000c00
000c00
001800
001800
003000
006000
00c000
018000
030000
060000
180000
000000
000000
ENDCHAR
STARTCHAR 30d6
ENCODING 12502
SWIDTH 520 0
DWIDTH 20 0
BBX 20 20 0 -3
BITMAP
000000
000100
000080
000240
000900
003c80
21cc00
1e0c00
001800
001800
003000
003000
006000
00c000
018000
030000
060000
0c0000
300000
000000
ENDCHAR
STARTCHAR 30d7
ENCODING 12503
SWIDTH 520 0
DWIDTH 20 0
BBX 20 20 0 -3
BITMAP
000000
000180
000240
000240
000980
003c00
21cc00
1e0c00
001800
001800
003000
003000
006000
00c000
018000
030000
060000
0c0000
300000
000000
ENDCHAR
STARTCHAR 30d8
ENCODING 12504
SWIDTH 520 0
DWIDTH 20 0
BBX 20 20 0 -3
BITMAP
000000
000000
000000
000000
000000
000000
018000
026000
041000
180800
700600
200380
0001c0
000000
000000
000000
000000
000000
000000
000000
ENDCHAR
STARTCHAR 30d9
ENCODING 12505
SWIDTH 520 0
DWIDTH 20 0
BBX 20 20 0 -3
BITMAP
000000
000000
000400
000300
000180
000880
000600
018300
026100
041000
180800
700600
200380
0001c0
000000
000000
000000
000000
000000
000000
ENDCHAR
STARTCHAR 30da
ENCODING 12506
SWIDTH 520 0
DWIDTH 20 0
BBX 20 20 0 -3
BITMAP
000000
000000
000000
000000
000300
000480
000480
018300
026000
041000
180800
700600
200380
0001c0
000000
000000
000000
000000
000000
000000
ENDCHAR
STARTCHAR 30db
ENCODING 12507
SWIDTH 520 0
DWIDTH 20 0
BBX 20 20 0 -3
BITMAP
000000
008000
004000
004000
004200
004f00
21f000
1e4000
004000
004000
044800
044600
084300
184300
304100
004000
024000
01c000
008000
000000
ENDCHAR
STARTCHAR 30dc
ENCODING 12508
SWIDTH 520 0
DWIDTH 20 0
BBX 20 20 0 -3
BITMAP
000000
000100
008080
004240
004100
004080
005e00
21e000
1e4000
004000
044800
044600
084300
184300
304100
004000
024000
01c000
008000
000000
ENDCHAR
STARTCHAR 30dd
ENCODING 12509
SWIDTH 520 0
DWIDTH 20 0
BBX 20 20 0 -3
BITMAP
000000
000300
008480
004480
004300
004000
005e00
21e000
1e4000
004000
044800
044600
084300
184300
304100
004000
024000
01c000
008000
000000
ENDCHAR
STARTCHAR 30de
ENCODING 12510
SWIDTH 520 0
DWIDTH 20 0
BBX 20 20 0 -3
BITMAP
000000
000000
000000
000000
000000
000e00
00f300
1f0200
080400
000400
000800
019000
007000
003800
001c00
000c00
000800
000000
000000
000000
ENDCHAR
STARTCHAR 30df
ENCODING 12511
SWIDTH 520 0
DWIDTH 20 0
BBX 20 20 0 -3
BITMAP
000000
000000
030000
00e000
003800
001c00
000800
000000
060000
01c000
00f000
003800
001000
000000
070000
01e000
007800
001c00
000800
000000
ENDCHAR
STARTCHAR 30e0
ENCODING 12512
SWIDTH 520 0
DWIDTH 20 0
BBX 20 20 0 -3
BITMAP
000000
000000
000000
000000
00c000
006000
004000
00c000
008000
018000
011800
030600
020300
241f80
1ff180
1f0080
080080
000000
000000
000000
ENDCHAR
STARTCHAR 30e1
ENCODING 12513
SWIDTH 520 0
DWIDTH 20 0
BBX 20 20 0 -3
BITMAP
000000
000000
000c00
000600
000600
000600
000600
000600
018c00
006c00
003800
001c00
003e00
006600
00c200
018200
030000
0c0000
300000
000000
ENDCHAR
STARTCHAR 30e2
ENCODING 12514
SWIDTH 520 0
DWIDTH 20 0
BBX 20 20 0 -3
BITMAP
000000
000000
001800
007000
01c000
0e8000
008000
008200
008f00
00f000
078000
388000
008000
008000
008000
008000
004100
003f80
000000
000000
ENDCHAR
STARTCHAR 30e3
ENCODING 12515
SWIDTH 520 0
DWIDTH 20 0
BBX 20 20 0 -3
BITMAP
000000
000000
000000
000000
000000
0c0000
060000
060000
020000
031f00
21e180
1f8300
00c400
004000
006000
002000
003000
001000
000000
000000
ENDCHAR
STARTCHAR 30e4
ENCODING 12516
SWIDTH 520 0
DWIDTH 20 0
BBX 20 20 0 -3
BITMAP
000000
000000
000000
0c0000
060000
060000
020700
037980
238300
1d0200
008400
008000
004000
004000
002000
002000
001000
001800
000800
000000
ENDCHAR
STARTCHAR 30e5
ENCODING 12517
SWIDTH 520 0
DWIDTH 20 0
BBX 20 20 0 -3
BITMAP
000000
000000
000000
000000
000000
000800
007c00
078800
000800
000800
001000
001000
001200
003f00
1fc000
000000
000000
000000
000000
000000
ENDCHAR
STARTCHAR 30e6
ENCODING 12518
SWIDTH 520 0
DWIDTH 20 0
BBX 20 20 0 -3
BITMAP
000000
000000
000000
000400
001e00
00e400
070400
000400
000400
000800
000800
000800
000880
000fc0
00f800
1f0000
000000
000000
000000
000000
ENDCHAR
STARTCHAR 30e7
ENCODING 12519
SWIDTH 520 0
DWIDTH 20 0
BBX 20 20 0 -3
BITMAP
000000
000000
000000
000000
000000
000400
007e00
0f8400
000400
000400
007c00
0f8400
000400
000400
007c00
0f8400
000000
000000
000000
000000
ENDCHAR
STARTCHAR 30e8
ENCODING 12520
SWIDTH 520 0
DWIDTH 20 0
BBX 20 20 0 -3
BITMAP
000000
000000
000200
007f00
1f8200
000200
000200
000200
000200
007e00
1f8200
000200
000200
000200
000200
007e00
1f8200
000000
000000
000000
ENDCHAR
STARTCHAR 30e9
ENCODING 12521
SWIDTH 520 0
DWIDTH 20 0
BBX 20 20 0 -3
BITMAP
000000
000000
000800
007c00
078000
000000
000400
007e00
0f8600
000c00
000c00
001800
003000
006000
00c000
018000
030000
060000
180000
000000
ENDCHAR
STARTCHAR 30ea
ENCODING 12522
SWIDTH 520 0
DWIDTH 20 0
BBX 20 20 0 -3
BITMAP
000000
001000
000800
040800
020800
020800
020800
020800
020800
020800
020800
000800
001000
001000
002000
002000
004000
008000
030000
000000
ENDCHAR
STARTCHAR 30eb
ENCODING 12523
SWIDTH 520 0
DWIDTH 20 0
BBX 20 20 0 -3
BITMAP
000000
000000
000000
000000
000000
004000
042000
022000
022000
022000
022000
022080
042100
042200
082400
082800
103000
201000
000000
000000
ENDCHAR
STARTCHAR 30ec
ENCODING 12524
SWIDTH 520 0
DWIDTH 20 0
BBX 20 20 0 -3
BITMAP
000000
000000
000000
000000
100000
080000
0c0000
040000
040200
040400
040800
041000
046000
04c000
058000
070000
020000
000000
000000
000000
ENDCHAR
STARTCHAR 30ed
ENCODING 12525
SWIDTH 520 0
DWIDTH 20 0
BBX 20 20 0 -3
BITMAP
000000
000000
000000
000400
107e00
0f8400
080400
080400
080400
080800
080800
080800
087c00
0f8000
080000
000000
000000
000000
000000
000000
ENDCHAR
STARTCHAR 30ee
ENCODING 12526
SWIDTH 520 0
DWIDTH 20 0
BBX 20 20 0 -3
BITMAP
000000
000000
000000
000000
100400
087e00
0f8600
080400
080400
080800
000800
001000
001000
002000
004000
008000
030000
000000
000000
000000
ENDCHAR
STARTCHAR 30ef
ENCODING 12527
SWIDTH 520 0
DWIDTH 20 0
BBX 20 20 0 -3
BITMAP
000000
000000
000000
000000
100100
083f80
0fc300
080300
080300
080200
000600
000400
000c00
000800
001800
003000
006000
00c000
030000
000000
ENDCHAR
STARTCHAR 30f0
ENCODING 12528
SWIDTH 520 0
DWIDTH 20 0
BBX 20 20 0 -3
BITMAP
000000
008000
004000
004000
004800
007c00
0fc000
044000
044000
044000
044100
047f80
3fc000
004000
004000
004000
004000
004000
004000
000000
ENDCHAR
STARTCHAR 30f1
ENCODING 12529
SWIDTH 520 0
DWIDTH 20 0
BBX 20 20 0 -3
BITMAP
000000
000000
000000
000000
000000
003c00
0fc600
000c00
001000
00a000
004000
004000
004000
004080
007fc0
3f8000
000000
000000
000000
000000
ENDCHAR
STARTCHAR 30f2
ENCODING 12530
SWIDTH 520 0
DWIDTH 20 0
BBX 20 20 0 -3
BITMAP
000000
000000
000400
001e00
21e600
1e0600
000c00
000c00
003e00
03d800
3c1000
003000
006000
00c000
018000
030000
060000
180000
000000
000000
ENDCHAR
STARTCHAR 30f3
ENCODING 12531
SWIDTH 520 0
DWIDTH 20 0
BBX 20 20 0 -3
BITMAP
000000
000000
000000
080000
060000
030100
010200
010400
000800
001000
002000
006000
00c000
018000
230000
1e0000
0c0000
000000
000000
000000
ENDCHAR
STARTCHAR 30f4
ENCODING 12532
SWIDTH 520 0
DWIDTH 20 0
BBX 20 20 0 -3
BITMAP
000100
020080
010240
010100
210480
11fe00
1f0c00
100c00
100c00
100800
001800
001000
003000
002000
006000
00c000
018000
030000
0c0000
000000
ENDCHAR
STARTCHAR 30f5
ENCODING 12533
SWIDTH 520 0
DWIDTH 20 0
BBX 20 20 0 -3
BITMAP
000000
000000
000000
010000
008000
008000
008800
009c00
01e800
0e8800
008800
010800
010800
020800
025000
043000
082000
000000
000000
000000
ENDCHAR
STARTCHAR 30f6
ENCODING 12534
SWIDTH 520 0
DWIDTH 20 0
BBX 20 20 0 -3
BITMAP
000000
000000
000000
000000
020000
010000
010800
023c00
03e000
042000
042000
082000
004000
004000
008000
008000
010000
020000
000000
000000
ENDCHAR
STARTCHAR 3105
ENCODING 12549
SWIDTH 520 0
DWIDTH 20 0
BBX 20 20 0 -3
BITMAP
000000
080000
040000
040000
040200
087f00
1f8200
080200
000200
000200
000200
000200
000200
000400
000400
000800
008800
007000
002000
000000
ENDCHAR
STARTCHAR 3106
ENCODING 12550
SWIDTH 520 0
DWIDTH 20 0
BBX 20 20 0 -3
BITMAP
000000
000000
020000
030000
020100
043f80
0fc100
040100
000100
000200
008200
004400
002400
001800
001c00
002c00
00c400
030400
1c0000
000000
ENDCHAR
STARTCHAR 3107
ENCODING 12551
SWIDTH 520 0
DWIDTH 20 0
BBX 20 20 0 -3
BITMAP
000000
000000
000000
000100
207f80
1f8100
100100
100100
100100
100100
100100
100100
100200
100200
100200
100200
100200
000000
000000
000000
ENDCHAR
STARTCHAR 3108
ENCODING 12552
SWIDTH 520 0
DWIDTH 20 0
BBX 20 20 0 -3
BITMAP
000000
000000
000000
103f00
0fc000
080000
080000
080000
080000
080000
080000
080000
080000
080000
080000
080000
080100
07ff80
000000
000000
ENDCHAR
STARTCHAR 3109
ENCODING 12553
SWIDTH 520 0
DWIDTH 20 0
BBX 20 20 0 -3
BITMAP
000000
000000
040000
040000
040100
083f80
1fc100
088100
008100
008100
008100
010100
010100
020100
020200
040200
082400
101800
601000
000000
ENDCHAR
STARTCHAR 310a
ENCODING 12554
SWIDTH 520 0
DWIDTH 20 0
BBX 20 20 0 -3
BITMAP
000000
008000
004000
004000
004000
004080
007fc0
7fc000
204000
008000
008000
010800
010400
020200
043f00
0fc300
040180
000100
000000
000000
ENDCHAR
STARTCHAR 310b
ENCODING 12555
SWIDTH 520 0
DWIDTH 20 0
BBX 20 20 0 -3
BITMAP
000000
000000
01fc00
3e0800
101000
002000
004000
008000
011e00
03e100
010100
000100
000100
000100
000100
000100
000200
002200
001c00
000800
ENDCHAR
STARTCHAR 310c
ENCODING 12556
SWIDTH 520 0
DWIDTH 20 0
BBX 20 20 0 -3
BITMAP
000000
004000
042000
042000
042000
082000
082000
082080
107fc0
3fc080
104080
004080
008080
008080
010100
020100
041200
080e00
100400
000000
ENDCHAR
STARTCHAR 310d
ENCODING 12557
SWIDTH 520 0
DWIDTH 20 0
BBX 20 20 0 -3
BITMAP
000000
000000
008400
008400
008400
010800
010800
021000
021000
042000
084000
042000
021000
021000
010800
018c00
008400
008400
008400
000000
ENDCHAR
STARTCHAR 310e
ENCODING 12558
SWIDTH 520 0
DWIDTH 20 0
BBX 20 20 0 -3
BITMAP
000000
000080
003fc0
7fc000
220000
020000
020000
020200
043f00
0fc200
040200
000200
000200
000200
000200
000200
000200
002400
001c00
000800
ENDCHAR
STARTCHAR 310f
ENCODING 12559
SWIDTH 520 0
DWIDTH 20 0
BBX 20 20 0 -3
BITMAP
000000
000100
081f80
0fe000
040000
040000
040000
040000
040000
040000
040000
040000
080000
080000
080000
100000
100000
200000
400000
000000
ENDCHAR
STARTCHAR 3110
ENCODING 12560
SWIDTH 520 0
DWIDTH 20 0
BBX 20 20 0 -3
BITMAP
000000
000800
040400
020400
020400
020400
020400
020400
020400
020400
040c00
043400
04c400
0f0400
040400
000400
000400
000400
000400
000400
ENDCHAR
STARTCHAR 3111
ENCODING 12561
SWIDTH 520 0
DWIDTH 20 0
BBX 20 20 0 -3
BITMAP
000000
003000
002000
002000
004000
004000
008000
008000
010000
020000
010000
008000
004000
002000
003000
001000
001800
000800
000800
000000
ENDCHAR
STARTCHAR 3112
ENCODING 12562
SWIDTH 520 0
DWIDTH 20 0
BBX 20 20 0 -3
BITMAP
000000
000000
000080
007fc0
7fc000
204000
004000
004000
004000
004000
004000
004000
004000
004000
004000
004000
004000
004000
004000
000000
ENDCHAR
STARTCHAR 3113
ENCODING 12563
SWIDTH 520 0
DWIDTH 20 0
BBX 20 20 0 -3
BITMAP
000000
008000
004000
004000
084200
084200
084200
084200
084200
084200
087e00
0fc000
004000
004000
004000
004080
007fc0
7f8000
200000
000000
ENDCHAR
STARTCHAR 3114
ENCODING 12564
SWIDTH 520 0
DWIDTH 20 0
BBX 20 20 0 -3
BITMAP
000000
002000
003000
006000
004000
009000
011800
023000
042000
084000
00c000
014000
024000
044000
084000
004000
004000
004000
004000
000000
ENDCHAR
STARTCHAR 3115
ENCODING 12565
SWIDTH 520 0
DWIDTH 20 0
BBX 20 20 0 -3
BITMAP
000000
000100
001f80
07e100
000100
000200
000200
000200
081f00
07e000
040000
040000
040000
040000
040000
080000
080000
100000
200000
400000
ENDCHAR
STARTCHAR 3116
ENCODING 12566
SWIDTH 520 0
DWIDTH 20 0
BBX 20 20 0 -3
BITMAP
000000
000000
080400
07fe00
040400
040400
040400
048400
044400
046400
042400
042400
040400
040400
040400
07f400
040c00
040400
000000
000000
ENDCHAR
STARTCHAR 3117
ENCODING 12567
SWIDTH 520 0
DWIDTH 20 0
BBX 20 20 0 -3
BITMAP
000000
000200
003f00
3fc200
120200
020200
020200
020200
020200
020200
020400
024400
023800
021000
020000
020000
020000
020000
020000
020000
ENDCHAR
STARTCHAR 3118
ENCODING 12568
SWIDTH 520 0
DWIDTH 20 0
BBX 20 20 0 -3
BITMAP
000000
010000
008000
008080
00bfc0
7fc000
210000
010000
020200
023f00
07c200
020200
000200
000200
000400
000400
000800
001000
002000
004000
ENDCHAR
STARTCHAR 3119
ENCODING 12569
SWIDTH 520 0
DWIDTH 20 0
BBX 20 20 0 -3
BITMAP
000000
004000
006000
004000
004000
004000
008000
008000
008000
010000
010000
020000
020800
040400
087e00
3f8300
100200
000000
000000
000000
ENDCHAR
STARTCHAR 311a
ENCODING 12570
SWIDTH 520 0
DWIDTH 20 0
BBX 20 20 0 -3
BITMAP
000000
080200
040300
020600
030400
010800
011000
002000
004000
004000
004000
004000
004000
004000
004000
004000
004000
004000
004000
004000
ENDCHAR
STARTCHAR 311b
ENCODING 12571
SWIDTH 520 0
DWIDTH 20 0
BBX 20 20 0 -3
BITMAP
000000
000000
000100
003f80
3fc000
104000
004000
004000
004000
03c000
0c0000
100000
100000
100000
100000
080100
040600
03f800
000000
000000
ENDCHAR
STARTCHAR 311c
ENCODING 12572
SWIDTH 520 0
DWIDTH 20 0
BBX 20 20 0 -3
BITMAP
000000
008000
004000
004100
007f80
3fc000
104000
004000
004000
03c000
0c0000
100000
100000
100000
100000
080100
040600
03f800
000000
000000
ENDCHAR
STARTCHAR 311d
ENCODING 12573
SWIDTH 520 0
DWIDTH 20 0
BBX 20 20 0 -3
BITMAP
000000
000000
080800
040800
040800
040880
043fc0
7fc800
240800
040800
040800
041000
041000
042000
044000
040000
020000
01fe00
000000
000000
ENDCHAR
STARTCHAR 311e
ENCODING 12574
SWIDTH 520 0
DWIDTH 20 0
BBX 20 20 0 -3
BITMAP
000000
000100
003f80
3fc000
144000
044000
044000
084080
085fc0
0fe080
004080
004080
008080
008080
010100
010100
020200
040200
080400
000000
ENDCHAR
STARTCHAR 311f
ENCODING 12575
SWIDTH 520 0
DWIDTH 20 0
BBX 20 20 0 -3
BITMAP
000000
000000
060000
1a0000
020000
020000
020000
010000
010000
010000
008000
008000
008000
004000
004000
002000
001000
000c00
000380
000000
ENDCHAR
STARTCHAR 3120
ENCODING 12576
SWIDTH 520 0
DWIDTH 20 0
BBX 20 20 0 -3
BITMAP
000000
008000
008000
010000
010400
020400
020800
040800
04f000
0f2000
004000
008000
010800
020400
043e00
0fc300
040200
000200
000000
000000
ENDCHAR
STARTCHAR 3121
ENCODING 12577
SWIDTH 520 0
DWIDTH 20 0
BBX 20 20 0 -3
BITMAP
000000
000000
000000
003e00
0fc200
040200
000400
000400
000800
030800
00d000
003000
003000
004800
008c00
010400
060400
180000
000000
000000
ENDCHAR
STARTCHAR 3122
ENCODING 12578
SWIDTH 520 0
DWIDTH 20 0
BBX 20 20 0 -3
BITMAP
000000
000000
00f800
3f0800
040800
040800
041000
041000
081100
083f80
1fc100
080100
000100
000200
000200
000400
000400
000800
001000
000000
ENDCHAR
STARTCHAR 3123
ENCODING 12579
SWIDTH 520 0
DWIDTH 20 0
BBX 20 20 0 -3
BITMAP
000000
080000
0c0000
080000
080000
080000
080000
080000
080000
100100
107f80
3f8100
100100
000200
000200
000400
000400
000800
000800
000000
ENDCHAR
STARTCHAR 3124
ENCODING 12580
SWIDTH 520 0
DWIDTH 20 0
BBX 20 20 0 -3
BITMAP
000000
010000
008000
008000
008000
008100
00ff80
3f8000
10a000
00a000
012000
012000
012000
022000
022000
042000
082000
101000
200f80
000000
ENDCHAR
STARTCHAR 3125
ENCODING 12581
SWIDTH 520 0
DWIDTH 20 0
BBX 20 20 0 -3
BITMAP
000000
000000
004000
006000
004000
004000
008000
008000
010000
010000
020000
020000
040000
080000
107f80
3f8000
180000
000000
000000
000000
ENDCHAR
STARTCHAR 3126
ENCODING 12582
SWIDTH 520 0
DWIDTH 20 0
BBX 20 20 0 -3
BITMAP
000000
000000
000000
022000
022000
022000
022000
022000
022000
022000
022000
022000
042000
042000
042000
082040
082040
101040
600fc0
000000
ENDCHAR
STARTCHAR 3127
ENCODING 12583
SWIDTH 520 0
DWIDTH 20 0
BBX 20 20 0 -3
BITMAP
000000
004000
006000
004000
004000
004000
004000
004000
004000
004000
004000
004000
004000
004000
004000
004000
004000
004000
004000
004000
ENDCHAR
STARTCHAR 3128
ENCODING 12584
SWIDTH 520 0
DWIDTH 20 0
BBX 20 20 0 -3
BITMAP
000000
000200
000300
000200
000200
040400
020400
010400
008800
004800
003000
003000
003800
004c00
008600
010200
060200
380000
000000
000000
ENDCHAR
STARTCHAR 3129
ENCODING 12585
SWIDTH 520 0
DWIDTH 20 0
BBX 20 20 0 -3
BITMAP
000000
000000
000000
000000
000200
100100
080100
080100
080100
080100
080100
100100
100100
103f00
3fc100
000100
000000
000000
000000
000000
ENDCHAR
STARTCHAR 3220
ENCODING 12832
SWIDTH 520 0
DWIDTH 20 0
BBX 20 20 0 -3
BITMAP
000000
080200
100100
100100
200080
200080
200080
400040
400440
4ffe40
400040
400040
400040
200080
200080
200080
100100
100100
080200
000000
ENDCHAR
STARTCHAR 3221
ENCODING 12833
SWIDTH 520 0
DWIDTH 20 0
BBX 20 20 0 -3
BITMAP
000000
080200
100100
100100
200880
27fc80
200080
400040
400040
400040
400040
400040
400440
2ffe80
200080
200080
100100
100100
080200
000000
ENDCHAR
STARTCHAR 3222
ENCODING 12834
SWIDTH 520 0
DWIDTH 20 0
BBX 20 20 0 -3
BITMAP
000000
080200
100100
100900
27fc80
200080
200080
400040
401040
43f840
400040
400040
400040
200480
2ffe80
200080
100100
100100
080200
000000
ENDCHAR
STARTCHAR 3223
ENCODING 12835
SWIDTH 520 0
DWIDTH 20 0
BBX 20 20 0 -3
BITMAP
000000
100200
200100
280500
4ffe80
492480
492480
892440
892440
892440
8a1c40
8c0440
880440
480480
4ffc80
480480
200100
200100
100200
000000
ENDCHAR
STARTCHAR 3224
ENCODING 12836
SWIDTH 520 0
DWIDTH 20 0
BBX 20 20 0 -3
BITMAP
000000
080200
100100
100900
27fc80
208080
208080
408040
409040
47f840
411040
411040
411040
211080
211480
2ffe80
100100
100100
080200
000000
ENDCHAR
STARTCHAR 3225
ENCODING 12837
SWIDTH 520 0
DWIDTH 20 0
BBX 20 20 0 -3
BITMAP
000000
080200
108100
104100
206080
204080
200480
4ffe40
400040
410040
419040
410840
420c40
220680
240680
280480
100100
100100
080200
000000
ENDCHAR
STARTCHAR 3226
ENCODING 12838
SWIDTH 520 0
DWIDTH 20 0
BBX 20 20 0 -3
BITMAP
000000
080200
108100
10c100
208080
208080
208480
409e40
41e040
5e8040
408040
408040
408440
208480
208680
207c80
100100
100100
080200
000000
ENDCHAR
STARTCHAR 3227
ENCODING 12839
SWIDTH 520 0
DWIDTH 20 0
BBX 20 20 0 -3
BITMAP
000000
080200
100100
100100
202080
213080
21a080
412040
411040
421040
421040
440840
440c40
280680
300480
200080
100100
100100
080200
000000
ENDCHAR
STARTCHAR 3228
ENCODING 12840
SWIDTH 520 0
DWIDTH 20 0
BBX 20 20 0 -3
BITMAP
000000
080200
110100
118100
210080
212080
27f080
412040
412040
412040
412040
412440
422440
222680
241c80
280080
100100
100100
080200
000000
ENDCHAR
STARTCHAR 3229
ENCODING 12841
SWIDTH 520 0
DWIDTH 20 0
BBX 20 20 0 -3
BITMAP
000000
080200
104100
106100
204080
204080
204080
404440
4ffe40
404040
404040
404040
404040
204080
204080
204080
104100
104100
080200
000000
ENDCHAR
STARTCHAR 4E00
ENCODING 19968
SWIDTH 520 0
DWIDTH 20 0
BBX 20 20 0 -3
BITMAP
000000
000000
000000
000000
000000
000000
000000
000000
7fffe0
7fffe0
000000
000000
000000
000000
000000
000000
000000
000000
000000
000000
ENDCHAR
STARTCHAR 4E01
ENCODING 19969
SWIDTH 520 0
DWIDTH 20 0
BBX 20 20 0 -3
BITMAP
000000
3fffc0
3fffc0
006000
006000
006000
006000
006000
006000
006000
006000
006000
006000
006000
006000
01e000
01c000
000000
000000
000000
ENDCHAR
STARTCHAR 4E03
ENCODING 19971
SWIDTH 520 0
DWIDTH 20 0
BBX 20 20 0 -3
BITMAP
000000
00c000
00c000
00c000
00c000
00c1c0
00cfc0
00fe00
7ff000
7fc000
00c000
00c000
00c000
00c080
00c0c0
00ffc0
007f80
000000
000000
000000
ENDCHAR
STARTCHAR 4E07
ENCODING 19975
SWIDTH 520 0
DWIDTH 20 0
BBX 20 20 0 -3
BITMAP
000000
7fffe0
7fffe0
018000
018000
018000
01ff00
01ff00
018300
030300
030300
070300
060300
0e0300
1c0300
380300
703e00
201c00
000000
000000
ENDCHAR
STARTCHAR 4E08
ENCODING 19976
SWIDTH 520 0
DWIDTH 20 0
BBX 20 20 0 -3
BITMAP
003000
003000
003000
003000
3fffe0
3fffe0
003000
063000
063000
033000
033000
01b000
00e000
00f000
01bc00
070f00
3e03e0
3800c0
000000
000000
ENDCHAR
STARTCHAR 4E09
ENCODING 19977
SWIDTH 520 0
DWIDTH 20 0
BBX 20 20 0 -3
BITMAP
000000
000000
1fff80
1fff80
000000
000000
000000
000000
0fff00
0fff00
000000
000000
000000
000000
000000
7fffe0
7fffe0
000000
000000
000000
ENDCHAR
STARTCHAR 4E0A
ENCODING 19978
SWIDTH 520 0
DWIDTH 20 0
BBX 20 20 0 -3
BITMAP
00c000
00c000
00c000
00c000
00c000
00c000
00ff80
00ff80
00c000
00c000
00c000
00c000
00c000
00c000
00c000
7fffe0
7fffe0
000000
000000
000000
ENDCHAR
STARTCHAR 4E0B
ENCODING 19979
SWIDTH 520 0
DWIDTH 20 0
BBX 20 20 0 -3
BITMAP
000000
7fffe0
7fffe0
00c000
00c000
00c000
00d800
00dc00
00ce00
00c700
00c380
00c180
00c000
00c000
00c000
00c000
00c000
00c000
000000
000000
ENDCHAR
STARTCHAR 4E0C
ENCODING 19980
SWIDTH 520 0
DWIDTH 20 0
BBX 20 20 0 -3
BITMAP
000000
7fffe0
7fffe0
018c00
018c00
018c00
018c00
018c00
018c00
018c00
018c00
038c00
030c00
070c00
0e0c00
1c0c00
380c00
100c00
000000
000000
ENDCHAR
STARTCHAR 4E0D
ENCODING 19981
SWIDTH 520 0
DWIDTH 20 0
BBX 20 20 0 -3
BITMAP
000000
3fffc0
3fffc0
003000
003000
007000
00e000
01ec00
03ee00
076700
0e6380
3c61c0
3060c0
006000
006000
006000
006000
006000
000000
000000
ENDCHAR
STARTCHAR 4E0E
ENCODING 19982
SWIDTH 520 0
DWIDTH 20 0
BBX 20 20 0 -3
BITMAP
060000
060000
060000
07ffc0
07ffc0
0c0000
0c0000
0fff80
0fff80
000180
000180
000180
3ffd80
3ffd80
000180
000180
000f80
000f00
000000
000000
ENDCHAR
STARTCHAR 4E10
ENCODING 19984
SWIDTH 520 0
DWIDTH 20 0
BBX 20 20 0 -3
BITMAP
000000
7fffe0
7fffe0
006000
006000
187f80
187f80
186000
186000
186000
1fffc0
1fffc0
0000c0
0000c0
0000c0
0000c0
000fc0
000f80
000000
000000
ENDCHAR
STARTCHAR 4E11
ENCODING 19985
SWIDTH 520 0
DWIDTH 20 0
BBX 20 20 0 -3
BITMAP
000000
1fff80
1fff80
00c180
00c180
00c180
00c180
00c180
1fff80
1fff00
018300
018300
018300
018300
018300
7fffe0
7fffe0
000000
000000
000000
ENDCHAR
STARTCHAR 4E13
ENCODING 19987
SWIDTH 520 0
DWIDTH 20 0
BBX 20 20 0 -3
BITMAP
00c000
00c000
00c000
1fff80
1fff80
018000
018000
7fffc0
7fffc0
030000
03ff00
03ff00
000e00
071800
07f000
00f800
001e00
000600
000000
000000
ENDCHAR
STARTCHAR 4E14
ENCODING 19988
SWIDTH 520 0
DWIDTH 20 0
BBX 20 20 0 -3
BITMAP
000000
0ffe00
0ffe00
0c0600
0c0600
0c0600
0ffe00
0ffe00
0c0600
0c0600
0ffe00
0ffe00
0c0600
0c0600
0c0600
0c0600
7fffe0
7fffe0
000000
000000
ENDCHAR
STARTCHAR 4E15
ENCODING 19989
SWIDTH 520 0
DWIDTH 20 0
BBX 20 20 0 -3
BITMAP
000000
7fffc0
7fffc0
003000
007000
00e000
01ec00
03ee00
076700
0e6380
3c61c0
3860c0
006000
006000
006000
000000
7fffe0
7fffe0
000000
000000
ENDCHAR
STARTCHAR 4E16
ENCODING 19990
SWIDTH 520 0
DWIDTH 20 0
BBX 20 20 0 -3
BITMAP
00c600
18c600
18c600
18c600
18c600
18c600
7fffe0
7fffe0
18c600
18c600
18c600
18c600
18fe00
18fe00
180000
180000
1fffc0
1fffc0
000000
000000
ENDCHAR
STARTCHAR 4E18
ENCODING 19992
SWIDTH 520 0
DWIDTH 20 0
BBX 20 20 0 -3
BITMAP
000700
0fff80
0ff800
0c0000
0c0000
0c0000
0c0000
0fffc0
0fffc0
0c1800
0c1800
0c1800
0c1800
0c1800
0c1800
7fffe0
7fffe0
000000
000000
000000
ENDCHAR
STARTCHAR 4E19
ENCODING 19993
SWIDTH 520 0
DWIDTH 20 0
BBX 20 20 0 -3
BITMAP
000000
7fffe0
7fffe0
006000
006000
1fff80
1fff80
186180
186180
187180
18d980
198d80
1b0d80
1a0180
180180
180180
180780
180700
000000
000000
ENDCHAR
STARTCHAR 4E1A
ENCODING 19994
SWIDTH 520 0
DWIDTH 20 0
BBX 20 20 0 -3
BITMAP
019800
019800
019800
019800
3198c0
3198c0
3198c0
199980
199980
199980
0d9b00
0d9b00
019800
019800
019800
019800
7fffe0
7fffe0
000000
000000
ENDCHAR
STARTCHAR 4E1B
ENCODING 19995
SWIDTH 520 0
DWIDTH 20 0
BBX 20 20 0 -3
BITMAP
000000
060c00
060c00
060c00
060c00
060c00
060c00
060c00
070e00
0d9e00
0cdb00
183b80
3871c0
30e0c0
004000
000000
3fffe0
3fffe0
000000
000000
ENDCHAR
STARTCHAR 4E1C
ENCODING 19996
SWIDTH 520 0
DWIDTH 20 0
BBX 20 20 0 -3
BITMAP
00c000
00c000
00c000
7fffe0
7fffe0
030000
073000
0e3000
0c3000
1fffc0
1fffc0
003000
063200
0e3700
1c3380
3831c0
30f0c0
00e000
000000
000000
ENDCHAR
STARTCHAR 4E1D
ENCODING 19997
SWIDTH 520 0
DWIDTH 20 0
BBX 20 20 0 -3
BITMAP
000000
060600
060600
0c0c00
0c0c00
199980
3fb380
3f3f00
063e00
0c0c00
181800
3fbfc0
3fbfc0
000000
000000
7fffe0
7fffe0
000000
000000
000000
ENDCHAR
STARTCHAR 4E1E
ENCODING 19998
SWIDTH 520 0
DWIDTH 20 0
BBX 20 20 0 -3
BITMAP
000000
1fff80
1fff80
000e00
003c00
007080
3f6180
3f7300
037e00
076c00
0e6700
1c6380
3861e0
30e0c0
00c000
000000
7fffe0
7fffe0
000000
000000
ENDCHAR
STARTCHAR 4E22
ENCODING 20002
SWIDTH 520 0
DWIDTH 20 0
BBX 20 20 0 -3
BITMAP
000780
1fff80
1ff800
006000
006000
1fff80
1fff80
006000
006000
7fffe0
7fffe0
00c000
01c000
038c00
070600
0e3f00
1fff80
0f8180
000000
000000
ENDCHAR
STARTCHAR 4E24
ENCODING 20004
SWIDTH 520 0
DWIDTH 20 0
BBX 20 20 0 -3
BITMAP
000000
3fffc0
3fffc0
019800
019800
1fffc0
1fffc0
1998c0
1998c0
1998c0
1bdcc0
1f7ec0
1e36c0
1860c0
1860c0
1800c0
1803c0
180380
000000
000000
ENDCHAR
STARTCHAR 4E25
ENCODING 20005
SWIDTH 520 0
DWIDTH 20 0
BBX 20 20 0 -3
BITMAP
000000
3fffc0
3fffc0
00d800
0cd980
0cdb80
06db00
1fffe0
1fffe0
180000
180000
180000
180000
180000
180000
300000
300000
600000
000000
000000
ENDCHAR
STARTCHAR 4E27
ENCODING 20007
SWIDTH 520 0
DWIDTH 20 0
BBX 20 20 0 -3
BITMAP
006000
006000
3fffc0
3fffc0
006000
0c6300
0e6700
066600
7fffe0
7fffe0
0cc200
0ce700
0c6e00
0c3800
0cdc00
0fc700
0f03e0
0c00c0
000000
000000
ENDCHAR
STARTCHAR 4E28
ENCODING 20008
SWIDTH 520 0
DWIDTH 20 0
BBX 20 20 0 -3
BITMAP
006000
006000
006000
006000
006000
006000
006000
006000
006000
006000
006000
006000
006000
006000
006000
006000
006000
006000
000000
000000
ENDCHAR
STARTCHAR 4E2A
ENCODING 20010
SWIDTH 520 0
DWIDTH 20 0
BBX 20 20 0 -3
BITMAP
006000
006000
00f000
01f800
039c00
070e00
0e6780
7c63e0
3060c0
006000
006000
006000
006000
006000
006000
006000
006000
006000
000000
000000
ENDCHAR
STARTCHAR 4E2B
ENCODING 20011
SWIDTH 520 0
DWIDTH 20 0
BBX 20 20 0 -3
BITMAP
000000
180180
1c0380
0e0700
070e00
031c00
007000
006000
006000
006000
006000
006000
006000
006000
006000
006000
006000
000000
000000
000000
ENDCHAR
STARTCHAR 4E2C
ENCODING 20012
SWIDTH 520 0
DWIDTH 20 0
BBX 20 20 0 -3
BITMAP
018000
018000
318000
318000
198000
198000
198000
018000
038000
078000
0f8000
1d8000
798000
318000
018000
018000
018000
018000
000000
000000
ENDCHAR
STARTCHAR 4E2D
ENCODING 20013
SWIDTH 520 0
DWIDTH 20 0
BBX 20 20 0 -3
BITMAP
006000
006000
006000
006000
1fffc0
1fffc0
1860c0
1860c0
1860c0
1860c0
1fffc0
1fffc0
1860c0
006000
006000
006000
006000
006000
000000
000000
ENDCHAR
STARTCHAR 4E30
ENCODING 20016
SWIDTH 520 0
DWIDTH 20 0
BBX 20 20 0 -3
BITMAP
006000
006000
006000
3fffc0
3fffc0
006000
006000
1fff80
1fff80
006000
006000
006000
7fffe0
7fffe0
006000
006000
006000
006000
000000
000000
ENDCHAR
STARTCHAR 4E32
ENCODING 20018
SWIDTH 520 0
DWIDTH 20 0
BBX 20 20 0 -3
BITMAP
006000
006000
1fff80
1fff80
186180
186180
1fff80
1fff80
006000
3fffc0
3fffc0
3060c0
3060c0
3fffc0
3fffc0
3060c0
006000
006000
000000
000000
ENDCHAR
STARTCHAR 4E34
ENCODING 20020
SWIDTH 520 0
DWIDTH 20 0
BBX 20 20 0 -3
BITMAP
061800
061800
361800
363fe0
367fe0
36e000
37cc00
368600
360000
367fc0
367fc0
366cc0
366cc0
366cc0
367fc0
367fc0
0660c0
066000
000000
000000
ENDCHAR
STARTCHAR 4E36
ENCODING 20022
SWIDTH 520 0
DWIDTH 20 0
BBX 20 20 0 -3
BITMAP
000000
018000
01c000
00e000
007000
003000
000000
000000
000000
000000
000000
000000
000000
000000
000000
000000
000000
000000
000000
000000
ENDCHAR
STARTCHAR 4E38
ENCODING 20024
SWIDTH 520 0
DWIDTH 20 0
BBX 20 20 0 -3
BITMAP
018000
018000
018000
018000
3ffe00
3ffe00
018600
018600
0d8600
0f8600
03c600
03ee00
036c00
060c60
0e0c60
1c0c60
380fe0
3007c0
000000
000000
ENDCHAR
STARTCHAR 4E39
ENCODING 20025
SWIDTH 520 0
DWIDTH 20 0
BBX 20 20 0 -3
BITMAP
000000
07ff00
07ff00
060300
06c300
06e300
066300
060300
7fffe0
7fffe0
060300
060300
060300
0c0300
0c0300
180300
381f00
300e00
000000
000000
ENDCHAR
STARTCHAR 4E3A
ENCODING 20026
SWIDTH 520 0
DWIDTH 20 0
BBX 20 20 0 -3
BITMAP
006000
066000
076000
036000
006000
3fff80
3fff80
006180
00e180
00c180
01f180
01b180
039980
071980
0e0180
1c0180
780f80
300f00
000000
000000
ENDCHAR
STARTCHAR 4E3B
ENCODING 20027
SWIDTH 520 0
DWIDTH 20 0
BBX 20 20 0 -3
BITMAP
00c000
00e000
006000
000000
3fffc0
3fffc0
006000
006000
006000
1fff80
1fff80
006000
006000
006000
006000
006000
3fffe0
3fffe0
000000
000000
ENDCHAR
STARTCHAR 4E3D
ENCODING 20029
SWIDTH 520 0
DWIDTH 20 0
BBX 20 20 0 -3
BITMAP
000000
7fffe0
7fffe0
000000
3f9fc0
3f9fc0
3198c0
3198c0
359ac0
359ac0
359ac0
359ac0
359ac0
3198c0
3198c0
3198c0
3399c0
331980
000000
000000
ENDCHAR
STARTCHAR 4E3E
ENCODING 20030
SWIDTH 520 0
DWIDTH 20 0
BBX 20 20 0 -3
BITMAP
00c300
18e300
1c6700
0c6600
000600
7fffe0
7fffe0
070e00
0e6700
1c6380
7fffe0
37fec0
006000
1fffc0
1fffc0
006000
006000
006000
000000
000000
ENDCHAR
STARTCHAR 4E3F
ENCODING 20031
SWIDTH 520 0
DWIDTH 20 0
BBX 20 20 0 -3
BITMAP
006000
006000
006000
006000
006000
006000
006000
006000
006000
006000
006000
00c000
00c000
018000
038000
070000
1e0000
0c0000
000000
000000
ENDCHAR
STARTCHAR 4E43
ENCODING 20035
SWIDTH 520 0
DWIDTH 20 0
BBX 20 20 0 -3
BITMAP
000000
1ffe00
1ffe00
018600
018600
018600
0187c0
0187c0
0180c0
0300c0
0300c0
0300c0
0600c0
0c00c0
1800c0
7001c0
200780
000700
000000
000000
ENDCHAR
STARTCHAR 4E45
ENCODING 20037
SWIDTH 520 0
DWIDTH 20 0
BBX 20 20 0 -3
BITMAP
018000
018000
018000
018000
03fc00
07fc00
0e1800
1c1800
181800
003800
007c00
00ec00
01ce00
038700
070380
1e01c0
7c00e0
300040
000000
000000
ENDCHAR
STARTCHAR 4E47
ENCODING 20039
SWIDTH 520 0
DWIDTH 20 0
BBX 20 20 0 -3
BITMAP
000700
003f00
01f800
1fc000
1ec000
00c000
00c000
00ffe0
7fffe0
7fc000
00c000
00c000
00c000
00c000
00c060
00c060
00ffe0
007fc0
000000
000000
ENDCHAR
STARTCHAR 4E48
ENCODING 20040
SWIDTH 520 0
DWIDTH 20 0
BBX 20 20 0 -3
BITMAP
004000
006000
00e000
00c000
01c800
018c00
031c00
071800
0e3800
1c3000
186000
00e600
01c600
038300
070180
0fff80
0fffc0
0000c0
000000
000000
ENDCHAR
STARTCHAR 4E49
ENCODING 20041
SWIDTH 520 0
DWIDTH 20 0
BBX 20 20 0 -3
BITMAP
000000
00c000
18c300
186300
0c6300
0c6600
060600
060c00
030c00
031800
01b000
00e000
00e000
01f800
071e00
1e0780
7801e0
200040
000000
000000
ENDCHAR
STARTCHAR 4E4B
ENCODING 20043
SWIDTH 520 0
DWIDTH 20 0
BBX 20 20 0 -3
BITMAP
00c000
00e000
006000
000000
3fff80
3fff80
000700
000e00
001800
007000
00e000
01c000
038000
1e0000
3f8000
71ffe0
607fe0
000000
000000
000000
ENDCHAR
STARTCHAR 4E4C
ENCODING 20044
SWIDTH 520 0
DWIDTH 20 0
BBX 20 20 0 -3
BITMAP
018000
018000
0fff00
0fff00
0c0300
0c0300
0c1f00
0c1e00
0c0000
0fffc0
0fffc0
0000c0
0000c0
3ffcc0
3ffcc0
0000c0
0007c0
000780
000000
000000
ENDCHAR
STARTCHAR 4E4D
ENCODING 20045
SWIDTH 520 0
DWIDTH 20 0
BBX 20 20 0 -3
BITMAP
018000
018000
030000
07ffc0
07ffc0
0cc000
18c000
30c000
20ff80
00ff80
00c000
00c000
00c000
00ffc0
00ffc0
00c000
00c000
00c000
000000
000000
ENDCHAR
STARTCHAR 4E4E
ENCODING 20046
SWIDTH 520 0
DWIDTH 20 0
BBX 20 20 0 -3
BITMAP
000380
003f80
3ffe00
3fe000
0c6300
0c6300
066600
066600
006000
7fffe0
7fffe0
006000
006000
006000
006000
006000
01e000
01c000
000000
000000
ENDCHAR
STARTCHAR 4E4F
ENCODING 20047
SWIDTH 520 0
DWIDTH 20 0
BBX 20 20 0 -3
BITMAP
000000
003f80
3fff80
3fc000
00e000
007000
000000
1fff80
1fff80
000e00
001c00
007000
01e000
078000
1f0000
39ffe0
30ffc0
000000
000000
000000
ENDCHAR
STARTCHAR 4E50
ENCODING 20048
SWIDTH 520 0
DWIDTH 20 0
BBX 20 20 0 -3
BITMAP
000f00
1fff00
1ff000
180000
183000
183000
183000
3fffc0
3fffc0
003000
003000
063600
0e3700
1c3380
3831c0
3030c0
00f000
00e000
000000
000000
ENDCHAR
STARTCHAR 4E52
ENCODING 20050
SWIDTH 520 0
DWIDTH 20 0
BBX 20 20 0 -3
BITMAP
000f00
0fff80
0ff800
0c0000
0c0000
0fff80
0fff80
0c1800
0c1800
0c1800
0c1800
7fffe0
7fffe0
000000
030000
0f0000
3e0000
380000
000000
000000
ENDCHAR
STARTCHAR 4E53
ENCODING 20051
SWIDTH 520 0
DWIDTH 20 0
BBX 20 20 0 -3
BITMAP
000700
07ff80
0ff800
0c0000
0c0000
0c0000
0fff80
0fff80
0c0c00
0c0c00
0c0c00
7fffe0
7fffe0
001800
001e00
000700
000380
000180
000000
000000
ENDCHAR
STARTCHAR 4E54
ENCODING 20052
SWIDTH 520 0
DWIDTH 20 0
BBX 20 20 0 -3
BITMAP
000f80
1fff80
1ff000
006000
3fffc0
3fffc0
019800
038c00
070700
3e0fe0
3b0ce0
030c00
030c00
030c00
070c00
0e0c00
3c0c00
180c00
000000
000000
ENDCHAR
STARTCHAR 4E56
ENCODING 20054
SWIDTH 520 0
DWIDTH 20 0
BBX 20 20 0 -3
BITMAP
001f80
1fff80
1fe000
006000
7fffe0
7fffe0
006000
036c00
3f6cc0
3f6fc0
036f00
036c40
7f6c60
7f6fe0
0367c0
006000
006000
006000
000000
000000
ENDCHAR
STARTCHAR 4E58
ENCODING 20056
SWIDTH 520 0
DWIDTH 20 0
BBX 20 20 0 -3
BITMAP
003f00
1fff00
1fe000
006000
7fffe0
7fffe0
036600
3f67c0
3f67c0
036660
3f77e0
3bffc0
01ec00
076600
0e6380
3c61e0
306040
006000
000000
000000
ENDCHAR
STARTCHAR 4E59
ENCODING 20057
SWIDTH 520 0
DWIDTH 20 0
BBX 20 20 0 -3
BITMAP
000000
1fff00
1fff00
000e00
001c00
003800
007000
00e000
01c000
038000
070000
0e0000
1c0000
1800c0
1800c0
1fffc0
0fff80
000000
000000
000000
ENDCHAR
STARTCHAR 4E5C
ENCODING 20060
SWIDTH 520 0
DWIDTH 20 0
BBX 20 20 0 -3
BITMAP
000000
060000
060000
060000
060f00
067f00
07f300
7f8300
7e0300
060300
060300
060f00
060e00
060000
060060
060060
07ffe0
03ffc0
000000
000000
ENDCHAR
STARTCHAR 4E5D
ENCODING 20061
SWIDTH 520 0
DWIDTH 20 0
BBX 20 20 0 -3
BITMAP
00c000
00c000
00c000
00c000
00c000
1ffe00
1ffe00
018600
018600
018600
018600
030600
030c00
060c00
0e0c60
1c0c60
780fe0
3007c0
000000
000000
ENDCHAR
STARTCHAR 4E5E
ENCODING 20062
SWIDTH 520 0
DWIDTH 20 0
BBX 20 20 0 -3
BITMAP
030000
030000
030000
07ffc0
0fffc0
1c0000
380000
37ff00
07ff00
003c00
00f000
01c000
038000
070000
0e00c0
0c00c0
0fffc0
07ff80
000000
000000
ENDCHAR
STARTCHAR 4E5F
ENCODING 20063
SWIDTH 520 0
DWIDTH 20 0
BBX 20 20 0 -3
BITMAP
006000
006000
006000
0c6180
0c6780
0c7f80
0ff980
7fe180
7c6180
0c6180
0c6180
0c6780
0c6700
0c6000
0c0060
0c0060
0fffe0
07ffc0
000000
000000
ENDCHAR
STARTCHAR 4E60
ENCODING 20064
SWIDTH 520 0
DWIDTH 20 0
BBX 20 20 0 -3
BITMAP
000000
1fff80
1fff80
000180
000180
060180
038180
01c180
00c180
000180
001980
00f980
07e180
3f0180
380180
000380
001f00
001e00
000000
000000
ENDCHAR
STARTCHAR 4E61
ENCODING 20065
SWIDTH 520 0
DWIDTH 20 0
BBX 20 20 0 -3
BITMAP
00c000
00c000
01c000
018600
030e00
061c00
0ff800
0ff000
00e180
01c180
038300
0fff00
0ffe00
000c00
003800
00f000
1fc000
1f0000
000000
000000
ENDCHAR
STARTCHAR 4E66
ENCODING 20070
SWIDTH 520 0
DWIDTH 20 0
BBX 20 20 0 -3
BITMAP
00c000
00c300
00c3c0
00c0c0
3ffe00
3ffe00
00c600
00c600
00c600
7fff80
7fff80
00c180
00c180
00c180
00c180
00c780
00c700
00c000
000000
000000
ENDCHAR
STARTCHAR 4E69
ENCODING 20073
SWIDTH 520 0
DWIDTH 20 0
BBX 20 20 0 -3
BITMAP
060600
060600
060600
060600
07e600
07e600
060600
060600
060600
3fc600
3fc600
30c600
30c600
30c600
30c660
3fc660
3fc7e0
30c3c0
000000
000000
ENDCHAR
STARTCHAR 4E70
ENCODING 20080
SWIDTH 520 0
DWIDTH 20 0
BBX 20 20 0 -3
BITMAP
000000
3fffc0
3fffc0
000180
073180
03b000
01b000
0c3000
0e3000
063000
3fffc0
3fffc0
006000
00cc00
018e00
070700
3e0380
380180
000000
000000
ENDCHAR
STARTCHAR 4E71
ENCODING 20081
SWIDTH 520 0
DWIDTH 20 0
BBX 20 20 0 -3
BITMAP
000600
01c600
3fc600
3e0600
060600
060600
7fe600
7fe600
060600
060600
3fc600
3fc600
30c600
30c600
30c640
3fc660
3fc7e0
30c3c0
000000
000000
ENDCHAR
STARTCHAR 4E73
ENCODING 20083
SWIDTH 520 0
DWIDTH 20 0
BBX 20 20 0 -3
BITMAP
00f600
3ff600
3f0600
000600
333600
1b3600
196600
000600
3ff600
3ff600
018600
030600
3ff600
3ff600
030640
030660
0f07e0
0e03c0
000000
000000
ENDCHAR
STARTCHAR 4E7E
ENCODING 20094
SWIDTH 520 0
DWIDTH 20 0
BBX 20 20 0 -3
BITMAP
060600
060600
7fc7e0
7fcfe0
061c00
3ff800
3ff000
30dfc0
3fdfc0
30c180
3fc300
3fc600
060c00
7fd800
7fd860
061860
061fe0
060fc0
000000
000000
ENDCHAR
STARTCHAR 4E86
ENCODING 20102
SWIDTH 520 0
DWIDTH 20 0
BBX 20 20 0 -3
BITMAP
000000
3fffc0
3fffc0
000380
000700
001c00
007000
006000
006000
006000
006000
006000
006000
006000
006000
006000
01e000
01c000
000000
000000
ENDCHAR
STARTCHAR 4E88
ENCODING 20104
SWIDTH 520 0
DWIDTH 20 0
BBX 20 20 0 -3
BITMAP
000000
0fff00
0fff00
000e00
019800
00f000
007000
7fffc0
7fffc0
0060c0
0060c0
0060c0
006000
006000
006000
006000
01e000
01c000
000000
000000
ENDCHAR
STARTCHAR 4E89
ENCODING 20105
SWIDTH 520 0
DWIDTH 20 0
BBX 20 20 0 -3
BITMAP
030000
030000
07fc00
0ffc00
1c1800
3fff80
37ff80
006180
006180
7fffe0
7fffe0
006180
1fff80
1fff80
006180
006000
01e000
01c000
000000
000000
ENDCHAR
STARTCHAR 4E8B
ENCODING 20107
SWIDTH 520 0
DWIDTH 20 0
BBX 20 20 0 -3
BITMAP
006000
7fffe0
7fffe0
006000
1fff80
1fff80
186180
1fff80
006000
1fffc0
0060c0
7fffe0
7fffe0
0060c0
1fffc0
0060c0
01e000
01e000
000000
000000
ENDCHAR
STARTCHAR 4E8C
ENCODING 20108
SWIDTH 520 0
DWIDTH 20 0
BBX 20 20 0 -3
BITMAP
000000
000000
000000
1fff80
1fff80
000000
000000
000000
000000
000000
000000
000000
000000
000000
7fffe0
7fffe0
000000
000000
000000
000000
ENDCHAR
STARTCHAR 4E8D
ENCODING 20109
SWIDTH 520 0
DWIDTH 20 0
BBX 20 20 0 -3
BITMAP
000000
1fff80
1fff80
000000
000000
000000
7fffe0
7fffe0
006000
006000
006000
006000
006000
006000
006000
006000
01e000
01c000
000000
000000
ENDCHAR
STARTCHAR 4E8E
ENCODING 20110
SWIDTH 520 0
DWIDTH 20 0
BBX 20 20 0 -3
BITMAP
000000
1fff80
1fff80
006000
006000
006000
006000
7fffe0
7fffe0
006000
006000
006000
006000
006000
006000
006000
01e000
01c000
000000
000000
ENDCHAR
STARTCHAR 4E8F
ENCODING 20111
SWIDTH 520 0
DWIDTH 20 0
BBX 20 20 0 -3
BITMAP
000000
000000
0fff00
0fff00
000000
000000
7fffe0
7fffe0
030000
030000
07ff00
07ff00
000300
000300
000300
000700
001e00
001c00
000000
000000
ENDCHAR
STARTCHAR 4E91
ENCODING 20113
SWIDTH 520 0
DWIDTH 20 0
BBX 20 20 0 -3
BITMAP
000000
0fff00
0fff00
000000
000000
000000
3fffc0
3fffc0
00c000
00c000
018000
018600
030600
030300
060300
1fff80
1fffc0
0000c0
000000
000000
ENDCHAR
STARTCHAR 4E92
ENCODING 20114
SWIDTH 520 0
DWIDTH 20 0
BBX 20 20 0 -3
BITMAP
000000
3fffc0
3fffc0
030000
030000
030000
03fe00
03fe00
060600
060600
060600
07fe00
07fe00
000600
000600
7fffe0
7fffe0
000000
000000
000000
ENDCHAR
STARTCHAR 4E93
ENCODING 20115
SWIDTH 520 0
DWIDTH 20 0
BBX 20 20 0 -3
BITMAP
000000
0fff80
0fff80
000000
000000
000000
3fffe0
3fffe0
018c00
018c00
018c00
018c00
018c00
030c00
070c00
0e0c00
3c0c00
180c00
000000
000000
ENDCHAR
STARTCHAR 4E94
ENCODING 20116
SWIDTH 520 0
DWIDTH 20 0
BBX 20 20 0 -3
BITMAP
000000
000000
3fffc0
3fffc0
00c000
00c000
00c000
1ffe00
1ffe00
018600
018600
018600
018600
018600
018600
7fffe0
7fffe0
000000
000000
000000
ENDCHAR
STARTCHAR 4E95
ENCODING 20117
SWIDTH 520 0
DWIDTH 20 0
BBX 20 20 0 -3
BITMAP
030c00
030c00
030c00
030c00
3fffc0
3fffc0
030c00
030c00
030c00
7fffe0
7fffe0
030c00
030c00
030c00
060c00
0c0c00
180c00
300c00
000000
000000
ENDCHAR
STARTCHAR 4E98
ENCODING 20120
SWIDTH 520 0
DWIDTH 20 0
BBX 20 20 0 -3
BITMAP
000000
3fffc0
3fffc0
000000
000000
0fff00
0fff00
0c0300
0fff00
0fff00
0c0300
0c0300
0fff00
0fff00
000000
7fffe0
7fffe0
000000
000000
000000
ENDCHAR
STARTCHAR 4E9A
ENCODING 20122
SWIDTH 520 0
DWIDTH 20 0
BBX 20 20 0 -3
BITMAP
000000
3fffc0
3fffc0
019800
019800
019800
319980
319980
199980
199900
0d9b00
0d9b00
0d9b00
019800
019800
019800
7fffe0
7fffe0
000000
000000
ENDCHAR
STARTCHAR 4E9B
ENCODING 20123
SWIDTH 520 0
DWIDTH 20 0
BBX 20 20 0 -3
BITMAP
031800
031800
0318c0
1bd9c0
1bdf80
1b1e00
1b1800
1b1800
1bd860
7fdfe0
780fc0
000000
0ffe00
0ffe00
000000
000000
3fffc0
3fffc0
000000
000000
ENDCHAR
STARTCHAR 4E9F
ENCODING 20127
SWIDTH 520 0
DWIDTH 20 0
BBX 20 20 0 -3
BITMAP
000000
1fff80
1fff80
003c00
007000
3f6f80
3f6f80
336180
336580
336700
3f6300
3f6780
336cc0
00e800
00e000
000000
7fffe0
7fffe0
000000
000000
ENDCHAR
STARTCHAR 4EA0
ENCODING 20128
SWIDTH 520 0
DWIDTH 20 0
BBX 20 20 0 -3
BITMAP
00c000
006000
006000
000000
7fffe0
7fffe0
000000
000000
000000
000000
000000
000000
000000
000000
000000
000000
000000
000000
000000
000000
ENDCHAR
STARTCHAR 4EA1
ENCODING 20129
SWIDTH 520 0
DWIDTH 20 0
BBX 20 20 0 -3
BITMAP
00c000
00e000
006000
000000
7fffe0
7fffe0
0c0000
0c0000
0c0000
0c0000
0c0000
0c0000
0c0000
0c0000
0c0000
0fff80
0fff80
000000
000000
000000
ENDCHAR
STARTCHAR 4EA2
ENCODING 20130
SWIDTH 520 0
DWIDTH 20 0
BBX 20 20 0 -3
BITMAP
000000
006000
006000
7fffe0
7fffe0
000000
000000
03fc00
03fc00
030c00
030c00
030c00
030c00
060c00
060c60
0c0c60
180fe0
3007c0
000000
000000
ENDCHAR
STARTCHAR 4EA4
ENCODING 20132
SWIDTH 520 0
DWIDTH 20 0
BBX 20 20 0 -3
BITMAP
006000
006000
3fffc0
3fffc0
000000
030c00
070e00
0e0700
1c0380
1b0d00
030c00
019800
01b800
00f000
01f800
079e00
7f0fc0
3c0380
000000
000000
ENDCHAR
STARTCHAR 4EA5
ENCODING 20133
SWIDTH 520 0
DWIDTH 20 0
BBX 20 20 0 -3
BITMAP
006000
006000
7fffe0
7fffe0
018000
038000
070c00
0ffc00
1ff800
007300
00e700
03ce00
3f1c00
1c3800
00fc00
07c700
7f0380
3c0180
000000
000000
ENDCHAR
STARTCHAR 4EA6
ENCODING 20134
SWIDTH 520 0
DWIDTH 20 0
BBX 20 20 0 -3
BITMAP
006000
006000
003000
3fffe0
3fffe0
018c00
018c00
0d8d80
0d8d80
0d8cc0
198cc0
198c60
318c60
030c00
030c00
060c00
1c3c00
183800
000000
000000
ENDCHAR
STARTCHAR 4EA7
ENCODING 20135
SWIDTH 520 0
DWIDTH 20 0
BBX 20 20 0 -3
BITMAP
006000
006000
3fffc0
3fffc0
000000
030600
018c00
1fffe0
1fffe0
180000
180000
180000
180000
180000
300000
300000
600000
400000
000000
000000
ENDCHAR
STARTCHAR 4EA8
ENCODING 20136
SWIDTH 520 0
DWIDTH 20 0
BBX 20 20 0 -3
BITMAP
006000
7fffe0
7fffe0
000000
0fff00
0fff00
0c0300
0fff00
000000
3fff80
3fff80
001e00
007800
006000
006000
006000
01e000
01c000
000000
000000
ENDCHAR
STARTCHAR 4EA9
ENCODING 20137
SWIDTH 520 0
DWIDTH 20 0
BBX 20 20 0 -3
BITMAP
00c000
006000
7fffe0
7fffe0
000000
000000
1fff80
1fff80
186180
186180
1fff80
1fff80
186180
186180
186180
1fff80
1fff80
180180
000000
000000
ENDCHAR
STARTCHAR 4EAB
ENCODING 20139
SWIDTH 520 0
DWIDTH 20 0
BBX 20 20 0 -3
BITMAP
006000
7fffe0
7fffe0
000000
0fff00
0fff00
0c0300
0fff00
000000
1fff80
1fff80
001800
7fffe0
7fffe0
006000
006000
01e000
01c000
000000
000000
ENDCHAR
STARTCHAR 4EAC
ENCODING 20140
SWIDTH 520 0
DWIDTH 20 0
BBX 20 20 0 -3
BITMAP
006000
006000
7fffe0
7fffe0
000000
0fff00
0fff00
0c0300
0c0300
0fff00
0fff00
006000
046000
0e6300
1c6380
3861c0
31e0c0
01c000
000000
000000
ENDCHAR
STARTCHAR 4EAD
ENCODING 20141
SWIDTH 520 0
DWIDTH 20 0
BBX 20 20 0 -3
BITMAP
006000
3fffc0
3fffc0
000000
0fff00
0fff00
0c0300
0fff00
000000
7fffe0
7fffe0
600060
0fff00
0fff00
006000
006000
01e000
01c000
000000
000000
ENDCHAR
STARTCHAR 4EAE
ENCODING 20142
SWIDTH 520 0
DWIDTH 20 0
BBX 20 20 0 -3
BITMAP
006000
3fffc0
3fffc0
000000
0fff00
0c0300
0c0300
0fff00
000000
3fffc0
3fffc0
3000c0
03f800
03f800
031800
0718c0
3e1fc0
1c0f80
000000
000000
ENDCHAR
STARTCHAR 4EB2
ENCODING 20146
SWIDTH 520 0
DWIDTH 20 0
BBX 20 20 0 -3
BITMAP
006000
006000
1fffc0
1fffc0
030600
018c00
3fffe0
3fffe0
006000
006000
1fffc0
1fffc0
006000
066600
0e6700
1c6380
39e1c0
11c080
000000
000000
ENDCHAR
STARTCHAR 4EB3
ENCODING 20147
SWIDTH 520 0
DWIDTH 20 0
BBX 20 20 0 -3
BITMAP
006000
3fffc0
3fffc0
000000
07ff00
060300
07ff00
000000
3fffe0
3fffe0
300060
0fff00
006000
3fffc0
3fffc0
0060c0
007fc0
003f80
000000
000000
ENDCHAR
STARTCHAR 4EB5
ENCODING 20149
SWIDTH 520 0
DWIDTH 20 0
BBX 20 20 0 -3
BITMAP
006000
7fffe0
7fffe0
0c1800
3f7f80
3f7f80
0c1980
0f7980
7f3980
7c7da0
0cede0
1cc0c0
019b00
039e00
0f0c00
7fc700
33c3e0
0301c0
000000
000000
ENDCHAR
STARTCHAR 4EBA
ENCODING 20154
SWIDTH 520 0
DWIDTH 20 0
BBX 20 20 0 -3
BITMAP
006000
006000
006000
006000
006000
006000
006000
006000
00f000
00f000
01d800
019800
038c00
070e00
0e0700
1c0380
7801e0
3000c0
000000
000000
ENDCHAR
STARTCHAR 4EBB
ENCODING 20155
SWIDTH 520 0
DWIDTH 20 0
BBX 20 20 0 -3
BITMAP
018000
018000
018000
030000
030000
070000
0f0000
1f0000
3b0000
730000
230000
030000
030000
030000
030000
030000
030000
030000
000000
000000
ENDCHAR
STARTCHAR 4EBF
ENCODING 20159
SWIDTH 520 0
DWIDTH 20 0
BBX 20 20 0 -3
BITMAP
060000
060000
06ff80
0cff80
0c0300
1c0600
1c0c00
3c1800
6c1800
4c3000
0c3000
0c6000
0c6000
0cc0c0
0cc0c0
0cc0c0
0cffc0
0c7f80
000000
000000
ENDCHAR
STARTCHAR 4EC0
ENCODING 20160
SWIDTH 520 0
DWIDTH 20 0
BBX 20 20 0 -3
BITMAP
060c00
060c00
060c00
0c0c00
0c0c00
1c0c00
3dffe0
6dffe0
6c0c00
0c0c00
0c0c00
0c0c00
0c0c00
0c0c00
0c0c00
0c0c00
0c0c00
0c0c00
000000
000000
ENDCHAR
STARTCHAR 4EC1
ENCODING 20161
SWIDTH 520 0
DWIDTH 20 0
BBX 20 20 0 -3
BITMAP
060000
060000
060000
0cffc0
0cffc0
1c0000
3c0000
7c0000
6c0000
0c0000
0c0000
0c0000
0c0000
0c0000
0dffe0
0dffe0
0c0000
0c0000
000000
000000
ENDCHAR
STARTCHAR 4EC2
ENCODING 20162
SWIDTH 520 0
DWIDTH 20 0
BBX 20 20 0 -3
BITMAP
061800
061800
061800
0e1800
0c1800
1cffc0
1cffc0
3c18c0
6c18c0
0c18c0
0c18c0
0c30c0
0c30c0
0c60c0
0c60c0
0cc0c0
0d83c0
0d0380
000000
000000
ENDCHAR
STARTCHAR 4EC3
ENCODING 20163
SWIDTH 520 0
DWIDTH 20 0
BBX 20 20 0 -3
BITMAP
060000
07ffe0
07ffe0
0c0600
0c0600
1c0600
1c0600
3c0600
6c0600
0c0600
0c0600
0c0600
0c0600
0c0600
0c0600
0c0600
0c1e00
0c1c00
000000
000000
ENDCHAR
STARTCHAR 4EC4
ENCODING 20164
SWIDTH 520 0
DWIDTH 20 0
BBX 20 20 0 -3
BITMAP
000000
1fffe0
1fffe0
180000
183000
183000
183000
183000
183000
183000
183800
183800
186c00
184600
18c300
3181c0
3700e0
660040
000000
000000
ENDCHAR
STARTCHAR 4EC5
ENCODING 20165
SWIDTH 520 0
DWIDTH 20 0
BBX 20 20 0 -3
BITMAP
0c0000
0c0000
0dff80
0dff80
18c180
18c180
38c180
786380
786300
186300
183600
183e00
181c00
183e00
187700
18e380
1bc1e0
1980c0
000000
000000
ENDCHAR
STARTCHAR 4EC6
ENCODING 20166
SWIDTH 520 0
DWIDTH 20 0
BBX 20 20 0 -3
BITMAP
061800
061800
061800
0e1800
0c1800
1c1b00
1c1b80
3c19c0
7c18c0
6c1860
0c1860
0c1800
0c1800
0c1800
0c1800
0c1800
0c1800
0c1800
000000
000000
ENDCHAR
STARTCHAR 4EC7
ENCODING 20167
SWIDTH 520 0
DWIDTH 20 0
BBX 20 20 0 -3
BITMAP
0c3000
0c3000
0c3000
1c3000
19ff00
19ff00
383300
783300
783300
183300
183300
186300
186300
186300
18c340
19c360
1b83e0
1901c0
000000
000000
ENDCHAR
STARTCHAR 4EC9
ENCODING 20169
SWIDTH 520 0
DWIDTH 20 0
BBX 20 20 0 -3
BITMAP
0c0000
0c0000
0cfe00
18fe00
18c600
18c600
38c600
78c600
58c600
18c600
18c600
18c600
18c600
18c660
198660
198660
1b07e0
1a03c0
000000
000000
ENDCHAR
STARTCHAR 4ECA
ENCODING 20170
SWIDTH 520 0
DWIDTH 20 0
BBX 20 20 0 -3
BITMAP
006000
00e000
01f000
039800
070c00
0e0600
1c6380
7861e0
3060c0
000000
1fff80
1fff80
000700
000e00
001c00
003800
007000
006000
000000
000000
ENDCHAR
STARTCHAR 4ECB
ENCODING 20171
SWIDTH 520 0
DWIDTH 20 0
BBX 20 20 0 -3
BITMAP
00c000
00e000
01f000
03b800
071c00
0e0e00
1c0780
7803e0
330cc0
030c00
030c00
030c00
030c00
030c00
060c00
060c00
0c0c00
180c00
000000
000000
ENDCHAR
STARTCHAR 4ECD
ENCODING 20173
SWIDTH 520 0
DWIDTH 20 0
BBX 20 20 0 -3
BITMAP
060000
06ff80
0eff80
0c3180
1c3180
183300
383300
7833c0
5833c0
1830c0
1830c0
1860c0
1860c0
18e0c0
18c0c0
1980c0
1b83c0
190380
000000
000000
ENDCHAR
STARTCHAR 4ECE
ENCODING 20174
SWIDTH 520 0
DWIDTH 20 0
BBX 20 20 0 -3
BITMAP
000c00
060c00
060c00
060c00
060c00
060c00
060c00
060c00
060c00
070e00
0f8e00
0ddb00
1c9b00
183180
3071c0
70e0e0
21c060
018000
000000
000000
ENDCHAR
STARTCHAR 4ED1
ENCODING 20177
SWIDTH 520 0
DWIDTH 20 0
BBX 20 20 0 -3
BITMAP
00c000
00c000
00e000
01b000
031800
060e00
1c0780
7801e0
3304c0
030e00
033c00
03f000
03c000
030000
030100
030180
03ff80
01ff00
000000
000000
ENDCHAR
STARTCHAR 4ED3
ENCODING 20179
SWIDTH 520 0
DWIDTH 20 0
BBX 20 20 0 -3
BITMAP
006000
006000
00f000
019800
030c00
060600
1c0380
7ffde0
37fcc0
060c00
060c00
060c00
061c00
061800
060180
060180
07ff80
03ff00
000000
000000
ENDCHAR
STARTCHAR 4ED4
ENCODING 20180
SWIDTH 520 0
DWIDTH 20 0
BBX 20 20 0 -3
BITMAP
060000
06ffc0
06ffc0
0c0180
0c0300
1c0600
1c0c00
3c0c00
6dffe0
0dffe0
0c0c00
0c0c00
0c0c00
0c0c00
0c0c00
0c0c00
0c3c00
0c3800
000000
000000
ENDCHAR
STARTCHAR 4ED5
ENCODING 20181
SWIDTH 520 0
DWIDTH 20 0
BBX 20 20 0 -3
BITMAP
060c00
060c00
060c00
0c0c00
0c0c00
1c0c00
3dffe0
6dffe0
4c0c00
0c0c00
0c0c00
0c0c00
0c0c00
0c0c00
0c0c00
0dffc0
0dffc0
0c0000
000000
000000
ENDCHAR
STARTCHAR 4ED6
ENCODING 20182
SWIDTH 520 0
DWIDTH 20 0
BBX 20 20 0 -3
BITMAP
0c0c00
0c0c00
0c0c00
18cc00
18ccc0
18cfc0
38ffc0
7bfcc0
5bccc0
18ccc0
18cfc0
18cf80
18cc00
18cc00
18c060
18c060
18ffe0
187fc0
000000
000000
ENDCHAR
STARTCHAR 4ED7
ENCODING 20183
SWIDTH 520 0
DWIDTH 20 0
BBX 20 20 0 -3
BITMAP
060600
060600
060600
0c0600
0dffe0
1dffe0
1c0600
3cc600
6cc600
4c6600
0c6600
0c3600
0c1c00
0c1c00
0c3600
0c6380
0dc1e0
0d8060
000000
000000
ENDCHAR
STARTCHAR 4ED8
ENCODING 20184
SWIDTH 520 0
DWIDTH 20 0
BBX 20 20 0 -3
BITMAP
060000
060300
060300
060300
0c0300
0dffe0
1dffe0
3c0300
7c6300
6c6300
0c3300
0c3300
0c0300
0c0300
0c0300
0c0300
0c0f00
0c0e00
000000
000000
ENDCHAR
STARTCHAR 4ED9
ENCODING 20185
SWIDTH 520 0
DWIDTH 20 0
BBX 20 20 0 -3
BITMAP
000000
0c0c00
0c0c00
0c0c00
198cc0
198cc0
398cc0
398cc0
798cc0
598cc0
198cc0
198cc0
198cc0
198cc0
198fc0
19ffc0
19f0c0
1800c0
000000
000000
ENDCHAR
STARTCHAR 4EDD
ENCODING 20189
SWIDTH 520 0
DWIDTH 20 0
BBX 20 20 0 -3
BITMAP
006000
006000
00f000
019800
030c00
060600
1c0380
7801e0
37fec0
07fe00
006000
006000
006000
006000
006000
006000
3fffc0
3fffc0
000000
000000
ENDCHAR
STARTCHAR 4EDE
ENCODING 20190
SWIDTH 520 0
DWIDTH 20 0
BBX 20 20 0 -3
BITMAP
060000
060000
06ffc0
0cffc0
0c0cc0
1c0cc0
3cccc0
7cccc0
6cccc0
0d8cc0
0d8cc0
0d98c0
0c18c0
0c30c0
0c30c0
0c63c0
0cc380
0c8000
000000
000000
ENDCHAR
STARTCHAR 4EDF
ENCODING 20191
SWIDTH 520 0
DWIDTH 20 0
BBX 20 20 0 -3
BITMAP
060180
0607c0
06ff00
0cfc00
0c0c00
1c0c00
3c0c00
6dffe0
6dffe0
0c0c00
0c0c00
0c0c00
0c0c00
0c0c00
0c0c00
0c0c00
0c0c00
0c0c00
000000
000000
ENDCHAR
STARTCHAR 4EE1
ENCODING 20193
SWIDTH 520 0
DWIDTH 20 0
BBX 20 20 0 -3
BITMAP
063000
063000
063000
0c7fe0
0cffe0
1dc000
1d8000
3c7f80
6c7f80
4c0700
0c0e00
0c1c00
0c3800
0c7000
0c6060
0c6060
0c7fe0
0c3fc0
000000
000000
ENDCHAR
STARTCHAR 4EE3
ENCODING 20195
SWIDTH 520 0
DWIDTH 20 0
BBX 20 20 0 -3
BITMAP
063000
063600
063600
0e3300
0c3300
1c3000
1c3fc0
3dffc0
6df000
6c3000
0c1800
0c1800
0c0c00
0c0c00
0c0660
0c0360
0c01e0
0c00c0
000000
000000
ENDCHAR
STARTCHAR 4EE4
ENCODING 20196
SWIDTH 520 0
DWIDTH 20 0
BBX 20 20 0 -3
BITMAP
006000
00e000
01f000
039800
070c00
0e0700
7ce3e0
3871c0
002000
1fff80
1fff80
000600
000c00
031800
03f000
00e000
003800
001800
000000
000000
ENDCHAR
STARTCHAR 4EE5
ENCODING 20197
SWIDTH 520 0
DWIDTH 20 0
BBX 20 20 0 -3
BITMAP
000000
188300
19c300
18e300
186300
182300
180300
180300
180300
198300
1b8600
1f0600
1e0f00
1c1f80
3839c0
30f0c0
03c040
030000
000000
000000
ENDCHAR
STARTCHAR 4EE8
ENCODING 20200
SWIDTH 520 0
DWIDTH 20 0
BBX 20 20 0 -3
BITMAP
060000
060000
06ffc0
0cffc0
0c0000
1c0000
1c0000
3c0000
6c0000
4cffc0
0cffc0
0c0000
0c0000
0c0000
0c0000
0fffe0
0fffe0
0c0000
000000
000000
ENDCHAR
STARTCHAR 4EEA
ENCODING 20202
SWIDTH 520 0
DWIDTH 20 0
BBX 20 20 0 -3
BITMAP
0c3000
0c3000
0c1980
0d9980
199980
198300
38c300
78c300
586600
186600
183600
181c00
181800
183c00
186600
19c380
1b81e0
190040
000000
000000
ENDCHAR
STARTCHAR 4EEB
ENCODING 20203
SWIDTH 520 0
DWIDTH 20 0
BBX 20 20 0 -3
BITMAP
060000
060c00
060c00
0c1800
0c3800
1c7300
1ce300
3dc600
6d8600
6c0c00
0c1c00
0c1980
0c3180
0c61c0
0dffc0
0dffe0
0c0060
0c0000
000000
000000
ENDCHAR
STARTCHAR 4EEC
ENCODING 20204
SWIDTH 520 0
DWIDTH 20 0
BBX 20 20 0 -3
BITMAP
0c0000
0c6000
0c77c0
0c37c0
1980c0
1980c0
3980c0
7980c0
5980c0
1980c0
1980c0
1980c0
1980c0
1980c0
1980c0
1980c0
1983c0
198380
000000
000000
ENDCHAR
STARTCHAR 4EF0
ENCODING 20208
SWIDTH 520 0
DWIDTH 20 0
BBX 20 20 0 -3
BITMAP
0c0000
0c6fc0
0defc0
198cc0
198cc0
398cc0
398cc0
798cc0
598cc0
198cc0
198cc0
198cc0
19acc0
19edc0
19cdc0
198c00
180c00
180c00
000000
000000
ENDCHAR
STARTCHAR 4EF2
ENCODING 20210
SWIDTH 520 0
DWIDTH 20 0
BBX 20 20 0 -3
BITMAP
060c00
060c00
060c00
0c0c00
0dffc0
1dffc0
1d8cc0
3d8cc0
6d8cc0
4d8cc0
0dffc0
0dffc0
0d8cc0
0d8c00
0c0c00
0c0c00
0c0c00
0c0c00
000000
000000
ENDCHAR
STARTCHAR 4EF3
ENCODING 20211
SWIDTH 520 0
DWIDTH 20 0
BBX 20 20 0 -3
BITMAP
06c600
06c600
06c600
0cc600
0cc600
1cc600
3cc6c0
7cf7c0
6cf780
0cc600
0cc600
0cc600
0cc600
0cc600
0cd660
0cf660
0ce7e0
0cc3c0
000000
000000
ENDCHAR
STARTCHAR 4EF5
ENCODING 20213
SWIDTH 520 0
DWIDTH 20 0
BBX 20 20 0 -3
BITMAP
063000
063000
063000
0c7fc0
0cffc0
1dcc00
1d8c00
3c0c00
6c0c00
6c0c00
0dffe0
0dffe0
0c0c00
0c0c00
0c0c00
0c0c00
0c0c00
0c0c00
000000
000000
ENDCHAR
STARTCHAR 4EF6
ENCODING 20214
SWIDTH 520 0
DWIDTH 20 0
BBX 20 20 0 -3
BITMAP
060c00
06cc00
06cc00
0ecc00
0ccc00
1cffc0
3dffc0
7d8c00
6d8c00
0c0c00
0dffe0
0dffe0
0c0c00
0c0c00
0c0c00
0c0c00
0c0c00
0c0c00
000000
000000
ENDCHAR
STARTCHAR 4EF7
ENCODING 20215
SWIDTH 520 0
DWIDTH 20 0
BBX 20 20 0 -3
BITMAP
0c1800
0c1800
0c1c00
0c3e00
187700
18e380
39c1c0
7b80e0
5b6360
186300
186300
186300
186300
186300
18c300
18c300
198300
190300
000000
000000
ENDCHAR
STARTCHAR 4EFB
ENCODING 20219
SWIDTH 520 0
DWIDTH 20 0
BBX 20 20 0 -3
BITMAP
060000
060780
06ff80
0cfc00
0c0c00
180c00
380c00
780c00
5bffe0
1bffe0
180c00
180c00
180c00
180c00
180c00
180c00
19ffc0
19ffc0
000000
000000
ENDCHAR
STARTCHAR 4EFD
ENCODING 20221
SWIDTH 520 0
DWIDTH 20 0
BBX 20 20 0 -3
BITMAP
060000
063600
0e3600
0c7700
1c6300
18e380
38c180
7981c0
7bffe0
5b7f60
183300
183300
183300
183300
186300
18e300
19cf00
198e00
000000
000000
ENDCHAR
STARTCHAR 4EFF
ENCODING 20223
SWIDTH 520 0
DWIDTH 20 0
BBX 20 20 0 -3
BITMAP
0c1800
0c1c00
0c0c00
1bffe0
1bffe0
386000
386000
787f80
587f80
186180
186180
186180
186180
18e180
18c180
19c180
1b8780
1b0700
000000
000000
ENDCHAR
STARTCHAR 4F01
ENCODING 20225
SWIDTH 520 0
DWIDTH 20 0
BBX 20 20 0 -3
BITMAP
006000
00f000
01f800
039c00
070e00
1e0780
7c33e0
7030e0
063000
063f80
063f80
063000
063000
063000
063000
063000
7fffe0
7fffe0
000000
000000
ENDCHAR
STARTCHAR 4F09
ENCODING 20233
SWIDTH 520 0
DWIDTH 20 0
BBX 20 20 0 -3
BITMAP
063000
061800
061800
0dffc0
0dffc0
1c0000
3c0000
6c7f00
6c7f00
0c6300
0c6300
0c6300
0c6300
0c6300
0cc360
0cc360
0d83e0
0d01c0
000000
000000
ENDCHAR
STARTCHAR 4F0A
ENCODING 20234
SWIDTH 520 0
DWIDTH 20 0
BBX 20 20 0 -3
BITMAP
060000
06ffc0
06ffc0
0e18c0
0c18c0
1c18c0
1dffe0
3dffe0
6c18c0
4c18c0
0cffc0
0cffc0
0c30c0
0c3000
0c6000
0c6000
0cc000
0d8000
000000
000000
ENDCHAR
STARTCHAR 4F0D
ENCODING 20237
SWIDTH 520 0
DWIDTH 20 0
BBX 20 20 0 -3
BITMAP
060000
060000
06ffe0
0cffe0
0c1800
1c1800
3c1800
7dff80
6dff80
0c3180
0c3180
0c3180
0c3180
0c6180
0c6180
0dffe0
0dffe0
0c0000
000000
000000
ENDCHAR
STARTCHAR 4F0E
ENCODING 20238
SWIDTH 520 0
DWIDTH 20 0
BBX 20 20 0 -3
BITMAP
060c00
060c00
0e0c00
0dffc0
1dffc0
180c00
380c00
79ff80
59ff80
186180
186380
187700
183e00
181c00
183e00
18f780
1be3e0
1980c0
000000
000000
ENDCHAR
STARTCHAR 4F0F
ENCODING 20239
SWIDTH 520 0
DWIDTH 20 0
BBX 20 20 0 -3
BITMAP
060c00
060d80
060dc0
0c0cc0
0c0c00
1dffe0
1dffe0
3c0c00
6c0c00
4c1c00
0c1c00
0c3e00
0c3600
0c7300
0ce380
0dc1c0
0f80e0
0d0040
000000
000000
ENDCHAR
STARTCHAR 4F10
ENCODING 20240
SWIDTH 520 0
DWIDTH 20 0
BBX 20 20 0 -3
BITMAP
063000
063600
063300
0e3180
0c3000
1c3fc0
1dffc0
3df000
6c3180
2c3180
0c1b80
0c1b00
0c0e00
0c1c00
0c7e60
0de760
0cc3e0
0c00c0
000000
000000
ENDCHAR
STARTCHAR 4F11
ENCODING 20241
SWIDTH 520 0
DWIDTH 20 0
BBX 20 20 0 -3
BITMAP
0c1800
0c1800
0c1800
0c1800
1bffc0
1bffc0
381800
783c00
783e00
187e00
187b00
18db80
19d9c0
1b98e0
1b1860
181800
181800
181800
000000
000000
ENDCHAR
STARTCHAR 4F17
ENCODING 20247
SWIDTH 520 0
DWIDTH 20 0
BBX 20 20 0 -3
BITMAP
006000
006000
00e000
01b000
031800
0e0e00
3c07c0
3801c0
060c00
060c00
060c00
060c00
0f0e00
0ddf00
18db80
3831c0
70e0e0
004040
000000
000000
ENDCHAR
STARTCHAR 4F18
ENCODING 20248
SWIDTH 520 0
DWIDTH 20 0
BBX 20 20 0 -3
BITMAP
063000
063300
063180
0c3180
0c3000
1dffe0
3dffe0
7c3600
6c3600
0c3600
0c3600
0c3600
0c6600
0c6600
0cc660
0dc660
0f87e0
0d03c0
000000
000000
ENDCHAR
STARTCHAR 4F19
ENCODING 20249
SWIDTH 520 0
DWIDTH 20 0
BBX 20 20 0 -3
BITMAP
060c00
060c00
060c00
0c0c00
0cccc0
1cccc0
3cccc0
3d8d80
6d8d80
0c0c00
0c1c00
0c1e00
0c3600
0c3300
0c6380
0ce1c0
0dc0e0
0d8060
000000
000000
ENDCHAR
STARTCHAR 4F1A
ENCODING 20250
SWIDTH 520 0
DWIDTH 20 0
BBX 20 20 0 -3
BITMAP
00e000
01f000
03b800
071c00
0e0e00
1c0780
7fffe0
37fcc0
000000
000000
3fff80
3fff80
018000
038c00
070e00
0fff00
1fff80
0e0180
000000
000000
ENDCHAR
STARTCHAR 4F1B
ENCODING 20251
SWIDTH 520 0
DWIDTH 20 0
BBX 20 20 0 -3
BITMAP
060000
06ffe0
06ffe0
0cc000
0cc180
1ce180
3cf180
7cdb00
6ccf00
0cc600
0cc700
0ccd80
0cd980
0cf0c0
0ce0c0
0cc000
0cffe0
0cffe0
000000
000000
ENDCHAR
STARTCHAR 4F1E
ENCODING 20254
SWIDTH 520 0
DWIDTH 20 0
BBX 20 20 0 -3
BITMAP
006000
00e000
01f000
039800
070e00
0e6780
3c61e0
386060
066300
066700
036600
006000
3fffc0
3fffc0
006000
006000
006000
006000
000000
000000
ENDCHAR
STARTCHAR 4F1F
ENCODING 20255
SWIDTH 520 0
DWIDTH 20 0
BBX 20 20 0 -3
BITMAP
061800
061800
0c1800
0dffe0
0dffe0
1c1800
3cff80
3cff80
6c1800
0c1800
0dffe0
0dffe0
0c1860
0c1860
0c1860
0c19e0
0c19c0
0c1800
000000
000000
ENDCHAR
STARTCHAR 4F20
ENCODING 20256
SWIDTH 520 0
DWIDTH 20 0
BBX 20 20 0 -3
BITMAP
061800
061800
0e1800
0dffc0
1dffc0
1c3000
3dffe0
6dffe0
6c6000
0c6000
0c7f80
0c7f80
0c0300
0c3600
0c3c00
0c0e00
0c0700
0c0300
000000
000000
ENDCHAR
STARTCHAR 4F22
ENCODING 20258
SWIDTH 520 0
DWIDTH 20 0
BBX 20 20 0 -3
BITMAP
060000
06ffc0
06ffc0
0c0300
0c6300
1c6300
1cc300
3dffe0
6dffe0
4c1b00
0c1b00
0c1b00
0c3300
0c7300
0ce300
0dc300
0d8f00
0c0e00
000000
000000
ENDCHAR
STARTCHAR 4F24
ENCODING 20260
SWIDTH 520 0
DWIDTH 20 0
BBX 20 20 0 -3
BITMAP
063000
063000
063000
0c7fe0
0c7fe0
1cc000
3d9800
7c1800
6cffc0
0cffc0
0c18c0
0c18c0
0c38c0
0c30c0
0c60c0
0cc0c0
0d87c0
0d0780
000000
000000
ENDCHAR
STARTCHAR 4F25
ENCODING 20261
SWIDTH 520 0
DWIDTH 20 0
BBX 20 20 0 -3
BITMAP
066000
066080
0661c0
0c6380
0c6700
1c6e00
1c6c00
3dffe0
6dffe0
6c6600
0c6600
0c6600
0c6300
0c6380
0c69c0
0c7ce0
0c7840
0c6000
000000
000000
ENDCHAR
STARTCHAR 4F26
ENCODING 20262
SWIDTH 520 0
DWIDTH 20 0
BBX 20 20 0 -3
BITMAP
061800
061800
061c00
0e3e00
0c7700
1ce380
1dc1e0
3fb0e0
6d3000
4c3300
0c3f00
0c3c00
0c3000
0c3000
0c30c0
0c30c0
0c3fc0
0c1f80
000000
000000
ENDCHAR
STARTCHAR 4F27
ENCODING 20263
SWIDTH 520 0
DWIDTH 20 0
BBX 20 20 0 -3
BITMAP
061800
061800
061800
0c3c00
0c6600
1cc300
3d8180
7d7fe0
6c7f60
0c6300
0c6300
0c6300
0c6700
0c6600
0c60c0
0c60c0
0c7fc0
0c3f80
000000
000000
ENDCHAR
STARTCHAR 4F2A
ENCODING 20266
SWIDTH 520 0
DWIDTH 20 0
BBX 20 20 0 -3
BITMAP
0c0c00
0ccc00
0cec00
0c6c00
180c00
19ffc0
39ffc0
7818c0
7818c0
1830c0
183cc0
1876c0
1866c0
18e0c0
19c0c0
1b80c0
1b07c0
180780
000000
000000
ENDCHAR
STARTCHAR 4F2B
ENCODING 20267
SWIDTH 520 0
DWIDTH 20 0
BBX 20 20 0 -3
BITMAP
061800
061c00
060c00
0c0000
0dffe0
1dffe0
3d8060
7d8060
6d8060
0c0000
0c0000
0c0000
0c0000
0c0000
0c0000
0dffe0
0dffe0
0c0000
000000
000000
ENDCHAR
STARTCHAR 4F2F
ENCODING 20271
SWIDTH 520 0
DWIDTH 20 0
BBX 20 20 0 -3
BITMAP
0c1800
0c1800
0c1800
0cffc0
18ffc0
18c0c0
38c0c0
38c0c0
78ffc0
58ffc0
18c0c0
18c0c0
18c0c0
18c0c0
18ffc0
18ffc0
18c0c0
18c0c0
000000
000000
ENDCHAR
STARTCHAR 4F30
ENCODING 20272
SWIDTH 520 0
DWIDTH 20 0
BBX 20 20 0 -3
BITMAP
0c1800
0c1800
0c1800
181800
1bffe0
3bffe0
381800
781800
581800
19ff80
19ff80
198180
198180
198180
198180
19ff80
19ff80
198180
000000
000000
ENDCHAR
STARTCHAR 4F32
ENCODING 20274
SWIDTH 520 0
DWIDTH 20 0
BBX 20 20 0 -3
BITMAP
060000
06ffc0
06ffc0
0cc0c0
0cc0c0
1cffc0
3cffc0
7cc000
6cd800
0cd800
0cd9c0
0cdf80
0cde00
0cd800
0d9860
0d9860
0f1fe0
0d0fc0
000000
000000
ENDCHAR
STARTCHAR 4F34
ENCODING 20276
SWIDTH 520 0
DWIDTH 20 0
BBX 20 20 0 -3
BITMAP
0c0c00
0c0c00
0cccc0
1cccc0
186d80
386d80
380c00
79ffc0
59ffc0
180c00
180c00
1bffe0
1bffe0
180c00
180c00
180c00
180c00
180c00
000000
000000
ENDCHAR
STARTCHAR 4F36
ENCODING 20278
SWIDTH 520 0
DWIDTH 20 0
BBX 20 20 0 -3
BITMAP
0c1800
0c1800
0c3c00
1c3c00
186600
38c300
3999e0
7b0ce0
780000
19ff80
19ff80
180300
180300
186600
187c00
181c00
180e00
180600
000000
000000
ENDCHAR
STARTCHAR 4F38
ENCODING 20280
SWIDTH 520 0
DWIDTH 20 0
BBX 20 20 0 -3
BITMAP
060c00
060c00
060c00
0dffc0
0dffc0
1d8cc0
1d8cc0
3dffc0
6dffc0
0d8cc0
0d8cc0
0dffc0
0dffc0
0d8cc0
0c0c00
0c0c00
0c0c00
0c0c00
000000
000000
ENDCHAR
STARTCHAR 4F3A
ENCODING 20282
SWIDTH 520 0
DWIDTH 20 0
BBX 20 20 0 -3
BITMAP
0c0000
0cffe0
0cffe0
180060
180060
39fe60
79fe60
580060
18fe60
18fe60
18c660
18c660
18fe60
18fe60
18c060
180060
1801e0
1801c0
000000
000000
ENDCHAR
STARTCHAR 4F3C
ENCODING 20284
SWIDTH 520 0
DWIDTH 20 0
BBX 20 20 0 -3
BITMAP
0c3180
0c3180
0c1980
199980
199980
398180
398180
798180
598180
198180
19b180
19f300
19e300
19c780
198dc0
1818e0
187060
186000
000000
000000
ENDCHAR
STARTCHAR 4F3D
ENCODING 20285
SWIDTH 520 0
DWIDTH 20 0
BBX 20 20 0 -3
BITMAP
0d8000
0d8000
0d8000
1987e0
1bf7e0
1bf660
39b660
79b660
59b660
19b660
19b660
19b660
19b660
19b660
19b7e0
1b37e0
1b7660
1a6660
000000
000000
ENDCHAR
STARTCHAR 4F43
ENCODING 20291
SWIDTH 520 0
DWIDTH 20 0
BBX 20 20 0 -3
BITMAP
0c0000
0dffe0
0dffe0
0d8c60
198c60
198c60
398c60
798c60
59ffe0
19ffe0
198c60
198c60
198c60
198c60
19ffe0
19ffe0
198060
180000
000000
000000
ENDCHAR
STARTCHAR 4F46
ENCODING 20294
SWIDTH 520 0
DWIDTH 20 0
BBX 20 20 0 -3
BITMAP
0c0000
0cff80
0cff80
18c180
18c180
38c180
38ff80
78ff80
58c180
18c180
18c180
18ff80
18ff80
180000
180000
1bffe0
1bffe0
180000
000000
000000
ENDCHAR
STARTCHAR 4F4D
ENCODING 20301
SWIDTH 520 0
DWIDTH 20 0
BBX 20 20 0 -3
BITMAP
0c1800
0c1c00
0c0c00
0c0000
19ffe0
19ffe0
380000
38c180
78c180
586300
186300
183300
183600
183600
180600
1bffe0
1bffe0
180000
000000
000000
ENDCHAR
STARTCHAR 4F4E
ENCODING 20302
SWIDTH 520 0
DWIDTH 20 0
BBX 20 20 0 -3
BITMAP
0c0000
0c0380
0cffc0
0cfe00
18c600
18c600
38c600
78ffe0
58ffe0
18c600
18c600
18c600
18c600
18d300
18f360
18ede0
18cce0
180c40
000000
000000
ENDCHAR
STARTCHAR 4F4F
ENCODING 20303
SWIDTH 520 0
DWIDTH 20 0
BBX 20 20 0 -3
BITMAP
063000
063800
061800
0dffc0
0dffc0
1c1800
3c1800
6c1800
6c1800
0dff80
0dff80
0c1800
0c1800
0c1800
0c1800
0c1800
0dffe0
0dffe0
000000
000000
ENDCHAR
STARTCHAR 4F50
ENCODING 20304
SWIDTH 520 0
DWIDTH 20 0
BBX 20 20 0 -3
BITMAP
0c3000
0c3000
0c3000
0fffe0
1bffe0
183000
383000
786000
587fc0
18dfc0
18c600
198600
1b8600
1b0600
180600
18ffe0
18ffe0
180000
000000
000000
ENDCHAR
STARTCHAR 4F51
ENCODING 20305
SWIDTH 520 0
DWIDTH 20 0
BBX 20 20 0 -3
BITMAP
061800
061800
061800
0dffe0
0dffe0
1c3000
1c3000
3c6000
6c6000
4cffc0
0dffc0
0f60c0
0c60c0
0c60c0
0c60c0
0c7fc0
0c7fc0
0c60c0
000000
000000
ENDCHAR
STARTCHAR 4F53
ENCODING 20307
SWIDTH 520 0
DWIDTH 20 0
BBX 20 20 0 -3
BITMAP
0c1800
0c1800
0c1800
0c1800
1bffe0
1bffe0
383c00
787e00
587e00
18db00
18db80
199980
1b99c0
1f7fe0
1e7f60
181800
181800
181800
000000
000000
ENDCHAR
STARTCHAR 4F55
ENCODING 20309
SWIDTH 520 0
DWIDTH 20 0
BBX 20 20 0 -3
BITMAP
0c0000
0dffe0
0dffe0
0c0180
180180
19f980
39f980
799980
599980
199980
199980
19f980
19f980
199980
198180
180180
180780
180700
000000
000000
ENDCHAR
STARTCHAR 4F57
ENCODING 20311
SWIDTH 520 0
DWIDTH 20 0
BBX 20 20 0 -3
BITMAP
061800
061c00
060c00
0dffe0
0dffe0
1d8060
3db060
7c3000
6c3180
0c3380
0c3f00
0c3c00
0c3000
0c3000
0c3060
0c3060
0c3fe0
0c1fc0
000000
000000
ENDCHAR
STARTCHAR 4F58
ENCODING 20312
SWIDTH 520 0
DWIDTH 20 0
BBX 20 20 0 -3
BITMAP
006000
00e000
01b000
031c00
060f00
1c03e0
7bfee0
33fe00
000000
000000
3fffc0
3fffc0
006000
066600
0e6700
1c6380
39e1c0
10c080
000000
000000
ENDCHAR
STARTCHAR 4F59
ENCODING 20313
SWIDTH 520 0
DWIDTH 20 0
BBX 20 20 0 -3
BITMAP
006000
00e000
01f000
039800
070e00
0e0780
1fffe0
7bfce0
306000
006000
1fff80
1fff80
006000
066600
0e6700
386380
31e180
01c000
000000
000000
ENDCHAR
STARTCHAR 4F5A
ENCODING 20314
SWIDTH 520 0
DWIDTH 20 0
BBX 20 20 0 -3
BITMAP
060c00
060c00
06cc00
0ccc00
0cffc0
1dffc0
3d8c00
7d8c00
6c0c00
0dffe0
0dffe0
0c0c00
0c1e00
0c3b00
0c3380
0c61c0
0dc0e0
0d8060
000000
000000
ENDCHAR
STARTCHAR 4F5B
ENCODING 20315
SWIDTH 520 0
DWIDTH 20 0
BBX 20 20 0 -3
BITMAP
0c3600
0c3600
0c3600
19ffc0
19ffc0
3836c0
3836c0
79ffc0
59ffc0
19b600
19ffe0
19ffe0
186660
186660
1867e0
18c7c0
198600
1b0600
000000
000000
ENDCHAR
STARTCHAR 4F5C
ENCODING 20316
SWIDTH 520 0
DWIDTH 20 0
BBX 20 20 0 -3
BITMAP
063000
063000
063000
0c7fe0
0c7fe0
1cd800
3dd800
7d9800
6c1fc0
0c1fc0
0c1800
0c1800
0c1800
0c1fe0
0c1fe0
0c1800
0c1800
0c1800
000000
000000
ENDCHAR
STARTCHAR 4F5D
ENCODING 20317
SWIDTH 520 0
DWIDTH 20 0
BBX 20 20 0 -3
BITMAP
063000
063000
063000
0c7fe0
0cffe0
1dc060
3f8060
6dfe60
6cfe60
0cc660
0cc660
0cc660
0cfe60
0cfe60
0cc660
0cc060
0c03e0
0c03c0
000000
000000
ENDCHAR
STARTCHAR 4F5E
ENCODING 20318
SWIDTH 520 0
DWIDTH 20 0
BBX 20 20 0 -3
BITMAP
0c0000
0cff80
0cff80
0c0000
180000
1bffe0
3bffe0
781800
581800
1bffe0
1bffe0
186300
18e300
18f600
181e00
183f80
19f1c0
19c0c0
000000
000000
ENDCHAR
STARTCHAR 4F5F
ENCODING 20319
SWIDTH 520 0
DWIDTH 20 0
BBX 20 20 0 -3
BITMAP
063000
063000
063fc0
0c7fc0
0ce180
1df180
3d9b00
6c0e00
4c1f00
0c73c0
0de1e0
0d9c60
0c1f00
0c0300
0c7000
0c7e00
0c0f80
0c0180
000000
000000
ENDCHAR
STARTCHAR 4F60
ENCODING 20320
SWIDTH 520 0
DWIDTH 20 0
BBX 20 20 0 -3
BITMAP
0c6000
0c6000
0c6000
187fc0
18ffc0
38c0c0
39c180
798d80
580c00
180c00
18cd80
18cd80
18ccc0
198cc0
198c60
198c60
183c00
183800
000000
000000
ENDCHAR
STARTCHAR 4F63
ENCODING 20323
SWIDTH 520 0
DWIDTH 20 0
BBX 20 20 0 -3
BITMAP
060000
06ffc0
0cffc0
0cccc0
1cccc0
3cccc0
6cffc0
6cffc0
0cccc0
0cccc0
0cffc0
0cffc0
0cccc0
0cccc0
0cccc0
0cccc0
0d8dc0
0d8180
000000
000000
ENDCHAR
STARTCHAR 4F64
ENCODING 20324
SWIDTH 520 0
DWIDTH 20 0
BBX 20 20 0 -3
BITMAP
0c0000
0dffc0
0dffc0
0c6000
186000
187f00
387f00
786300
786300
18db00
18db00
18db00
18c300
18c300
18fb60
19fb60
19c3e0
1801c0
000000
000000
ENDCHAR
STARTCHAR 4F65
ENCODING 20325
SWIDTH 520 0
DWIDTH 20 0
BBX 20 20 0 -3
BITMAP
006000
00e000
01f000
039800
070c00
0e0700
1fffe0
73fdc0
200000
00c300
0cc300
0c6700
066600
066600
066e00
000c00
3fffc0
3fffc0
000000
000000
ENDCHAR
STARTCHAR 4F67
ENCODING 20327
SWIDTH 520 0
DWIDTH 20 0
BBX 20 20 0 -3
BITMAP
061800
061800
061800
0c1f80
0c1f80
1c1800
3c1800
6fffe0
6fffe0
0c1800
0c1800
0c1c00
0c1f00
0c1b80
0c1980
0c1800
0c1800
0c1800
000000
000000
ENDCHAR
STARTCHAR 4F69
ENCODING 20329
SWIDTH 520 0
DWIDTH 20 0
BBX 20 20 0 -3
BITMAP
0c0000
0fffc0
0fffc0
1b00c0
1b7ec0
3b7ec0
7b18c0
5b7ec0
1b7ec0
1b5ac0
1b5ac0
1b5ac0
1b5ac0
1b5ec0
1b5ec0
1f18c0
1e1860
1a0060
000000
000000
ENDCHAR
STARTCHAR 4F6C
ENCODING 20332
SWIDTH 520 0
DWIDTH 20 0
BBX 20 20 0 -3
BITMAP
061800
061800
0c18c0
0cfec0
18ffc0
181980
381b00
7bffe0
5bffe0
183800
187180
1bf380
1bbf00
183c00
183000
183060
183fe0
181fc0
000000
000000
ENDCHAR
STARTCHAR 4F6F
ENCODING 20335
SWIDTH 520 0
DWIDTH 20 0
BBX 20 20 0 -3
BITMAP
0c6300
0c6300
0c3600
0dffe0
19ffe0
181800
381800
381800
79ffc0
59ffc0
181800
181800
1bffe0
1bffe0
181800
181800
181800
181800
000000
000000
ENDCHAR
STARTCHAR 4F70
ENCODING 20336
SWIDTH 520 0
DWIDTH 20 0
BBX 20 20 0 -3
BITMAP
0c0000
0dffe0
0dffe0
0c0c00
1c0c00
180c00
18ffc0
38ffc0
78c0c0
58c0c0
18ffc0
18ffc0
18c0c0
18c0c0
18c0c0
18ffc0
18ffc0
18c0c0
000000
000000
ENDCHAR
STARTCHAR 4F73
ENCODING 20339
SWIDTH 520 0
DWIDTH 20 0
BBX 20 20 0 -3
BITMAP
060c00
060c00
060c00
0dffc0
0dffc0
1c0c00
3c0c00
6dffe0
4dffe0
0c0c00
0c0c00
0dffc0
0dffc0
0c0c00
0c0c00
0dffe0
0dffe0
0c0000
000000
000000
ENDCHAR
STARTCHAR 4F74
ENCODING 20340
SWIDTH 520 0
DWIDTH 20 0
BBX 20 20 0 -3
BITMAP
0c0000
0dffe0
0dffe0
18c180
18c180
18ff80
38ff80
78c180
58ff80
18ff80
18c180
18c180
18ffe0
1bffe0
1bc180
180180
180180
180180
000000
000000
ENDCHAR
STARTCHAR 4F76
ENCODING 20342
SWIDTH 520 0
DWIDTH 20 0
BBX 20 20 0 -3
BITMAP
060c00
060c00
07ffe0
0dffe0
0c0c00
1c0c00
3cffc0
6cffc0
4c0000
0c0000
0cffc0
0cffc0
0cc0c0
0cc0c0
0cc0c0
0cffc0
0cffc0
0cc0c0
000000
000000
ENDCHAR
STARTCHAR 4F7B
ENCODING 20347
SWIDTH 520 0
DWIDTH 20 0
BBX 20 20 0 -3
BITMAP
0c3600
0c3600
0c3600
1836c0
1b36c0
1b37c0
39b780
79b600
583600
18f780
1bf7c0
1b36c0
183600
186600
186660
18c660
1987e0
1b03c0
000000
000000
ENDCHAR
STARTCHAR 4F7C
ENCODING 20348
SWIDTH 520 0
DWIDTH 20 0
BBX 20 20 0 -3
BITMAP
061800
061c00
060c00
0dffe0
0dffe0
1c3300
3c7380
6ce1c0
4dc0c0
0d8300
0c6300
0c6700
0c3600
0c1c00
0c1c00
0c3f00
0de3e0
0dc0e0
000000
000000
ENDCHAR
STARTCHAR 4F7E
ENCODING 20350
SWIDTH 520 0
DWIDTH 20 0
BBX 20 20 0 -3
BITMAP
063600
063600
067300
0c6380
0cc1c0
1d80e0
3dffe0
6c7f80
4c6180
0c7f80
0c7f80
0c6180
0c7f80
0c7f80
0c6180
0c6180
0c6780
0c6700
000000
000000
ENDCHAR
STARTCHAR 4F7F
ENCODING 20351
SWIDTH 520 0
DWIDTH 20 0
BBX 20 20 0 -3
BITMAP
0c0c00
0c0c00
0fffe0
1bffe0
180c00
39ffc0
39ffc0
798cc0
598cc0
19ffc0
19ffc0
180c00
18cc00
18cc00
187800
183e00
1be7e0
1b81e0
000000
000000
ENDCHAR
STARTCHAR 4F83
ENCODING 20355
SWIDTH 520 0
DWIDTH 20 0
BBX 20 20 0 -3
BITMAP
0c0000
0dff80
0dff80
0d8180
198180
198180
39ff80
79ff80
580000
18d980
18d980
18d980
18d980
18d980
1999a0
1999a0
1b19e0
1a00e0
000000
000000
ENDCHAR
STARTCHAR 4F84
ENCODING 20356
SWIDTH 520 0
DWIDTH 20 0
BBX 20 20 0 -3
BITMAP
060000
06ffc0
06ffc0
0c3000
0c3000
1c6300
3cc180
6dffc0
6dffe0
0c0c00
0c0c00
0cffc0
0cffc0
0c0c00
0c0c00
0dffe0
0dffe0
0c0000
000000
000000
ENDCHAR
STARTCHAR 4F88
ENCODING 20360
SWIDTH 520 0
DWIDTH 20 0
BBX 20 20 0 -3
BITMAP
0c3000
0c3000
0c7f80
1c7f80
18c300
39b700
781e00
783c00
1bf800
19dfc0
183fc0
1870c0
18f8c0
18d980
180f00
180e00
19fc00
19f000
000000
000000
ENDCHAR
STARTCHAR 4F89
ENCODING 20361
SWIDTH 520 0
DWIDTH 20 0
BBX 20 20 0 -3
BITMAP
061800
061800
07ffe0
0dffe0
0c3600
1c6300
3dffe0
6dbee0
4c0000
0dffe0
0dffe0
0c3000
0c3f80
0c3f80
0c0180
0c0180
0c0f00
0c0e00
000000
000000
ENDCHAR
STARTCHAR 4F8B
ENCODING 20363
SWIDTH 520 0
DWIDTH 20 0
BBX 20 20 0 -3
BITMAP
0c0060
0df860
0df860
0cc360
18c360
18fb60
39fb60
799b60
5b9b60
1b1b60
1b7b60
187360
183360
187360
18e060
19c060
1b81e0
1901c0
000000
000000
ENDCHAR
STARTCHAR 4F8D
ENCODING 20365
SWIDTH 520 0
DWIDTH 20 0
BBX 20 20 0 -3
BITMAP
0c0c00
0c0c00
0cff80
18ff80
180c00
180c00
3bffe0
7bffe0
580300
180300
19ffe0
19ffe0
180300
18c300
186300
186300
180f00
180e00
000000
000000
ENDCHAR
STARTCHAR 4F8F
ENCODING 20367
SWIDTH 520 0
DWIDTH 20 0
BBX 20 20 0 -3
BITMAP
0c0c00
0ccc00
0ccc00
18ffc0
19ffc0
398c00
7b0c00
780c00
1bffe0
1bffe0
181e00
183f00
186d80
18cdc0
1b8ce0
1b0c60
180c00
180c00
000000
000000
ENDCHAR
STARTCHAR 4F91
ENCODING 20369
SWIDTH 520 0
DWIDTH 20 0
BBX 20 20 0 -3
BITMAP
061800
061800
061800
0dffe0
0dffe0
1c6000
3c7fc0
7cffc0
6de0c0
0f7fc0
0c7fc0
0c60c0
0c7fc0
0c7fc0
0c60c0
0c60c0
0c63c0
0c6380
000000
000000
ENDCHAR
STARTCHAR 4F94
ENCODING 20372
SWIDTH 520 0
DWIDTH 20 0
BBX 20 20 0 -3
BITMAP
0c3000
0c3000
0c6300
18c180
19ffc0
39ffe0
380c60
78cc00
58ffc0
19ffc0
198c00
180c00
1bffe0
1bffe0
180c00
180c00
180c00
180c00
000000
000000
ENDCHAR
STARTCHAR 4F97
ENCODING 20375
SWIDTH 520 0
DWIDTH 20 0
BBX 20 20 0 -3
BITMAP
0c0000
0dffc0
0dffc0
0d80c0
19bec0
19bec0
3980c0
79bec0
59bec0
19b6c0
19b6c0
19b6c0
19bec0
19bec0
1980c0
1980c0
1981c0
198180
000000
000000
ENDCHAR
STARTCHAR 4F9B
ENCODING 20379
SWIDTH 520 0
DWIDTH 20 0
BBX 20 20 0 -3
BITMAP
066300
066300
066300
0c6300
0dffe0
1dffe0
1c6300
3c6300
6c6300
0c6300
0fffe0
0fffe0
0c0000
0c3300
0c7380
0ce1c0
0dc0e0
0d8060
000000
000000
ENDCHAR
STARTCHAR 4F9D
ENCODING 20381
SWIDTH 520 0
DWIDTH 20 0
BBX 20 20 0 -3
BITMAP
061800
061c00
060c00
0dffe0
0dffe0
1c3000
3c3000
7c7cc0
6c6dc0
0cef80
0de700
0fe600
0f6300
0c6300
0c6d80
0c7cc0
0c7860
0c6000
000000
000000
ENDCHAR
STARTCHAR 4FA0
ENCODING 20384
SWIDTH 520 0
DWIDTH 20 0
BBX 20 20 0 -3
BITMAP
0c1800
0c1800
0dffc0
0dffc0
181800
199980
39db80
78db00
581800
1bffe0
1bffe0
181c00
183c00
183600
186300
18c180
1b80e0
1b0060
000000
000000
ENDCHAR
STARTCHAR 4FA3
ENCODING 20387
SWIDTH 520 0
DWIDTH 20 0
BBX 20 20 0 -3
BITMAP
060000
06ff80
06ff80
0ec180
0cc180
1cc180
3cff80
3cff80
6c0000
0cffc0
0cffc0
0cc0c0
0cc0c0
0cc0c0
0cc0c0
0cffc0
0cffc0
0cc0c0
000000
000000
ENDCHAR
STARTCHAR 4FA5
ENCODING 20389
SWIDTH 520 0
DWIDTH 20 0
BBX 20 20 0 -3
BITMAP
0c3000
0c3fc0
0dffc0
19f000
183b80
381f80
787e60
59f7e0
19c3c0
180000
1bffe0
1bffe0
186600
186600
186640
18c660
1987e0
1b03c0
000000
000000
ENDCHAR
STARTCHAR 4FA6
ENCODING 20390
SWIDTH 520 0
DWIDTH 20 0
BBX 20 20 0 -3
BITMAP
061800
061800
061fe0
0c1fe0
0c1800
1cffc0
3cffc0
6cc0c0
6cd8c0
0cd8c0
0cd8c0
0cd8c0
0cd8c0
0cd8c0
0c3300
0c6180
0dc0c0
0d8040
000000
000000
ENDCHAR
STARTCHAR 4FA7
ENCODING 20391
SWIDTH 520 0
DWIDTH 20 0
BBX 20 20 0 -3
BITMAP
0c0060
0ff860
0ffb60
1f0b60
1b6b60
3b6b60
7b6b60
7b6b60
5b6b60
1b6b60
1b6b60
1b6b60
186360
18f060
19d860
1b8c60
1b01e0
1801c0
000000
000000
ENDCHAR
STARTCHAR 4FA8
ENCODING 20392
SWIDTH 520 0
DWIDTH 20 0
BBX 20 20 0 -3
BITMAP
0c0f80
0cff80
0cf800
1c1800
19ffc0
39ffc0
383600
787300
58e180
1bc0e0
1b6360
186300
186300
186300
186300
18e300
19c300
198300
000000
000000
ENDCHAR
STARTCHAR 4FA9
ENCODING 20393
SWIDTH 520 0
DWIDTH 20 0
BBX 20 20 0 -3
BITMAP
061800
061800
0e1c00
0c3e00
0c7700
1ce380
3dc1e0
7fffc0
6d7f00
0c0000
0dffc0
0dffc0
0c3000
0c7300
0c6300
0cff80
0dffc0
0c00c0
000000
000000
ENDCHAR
STARTCHAR 4FAA
ENCODING 20394
SWIDTH 520 0
DWIDTH 20 0
BBX 20 20 0 -3
BITMAP
0c1800
0c1800
0fffe0
1bffe0
186300
186600
383c00
787f80
7bf3e0
1bc0e0
186300
186300
186300
186300
186300
18c300
198300
190300
000000
000000
ENDCHAR
STARTCHAR 4FAC
ENCODING 20396
SWIDTH 520 0
DWIDTH 20 0
BBX 20 20 0 -3
BITMAP
0c1800
0c1800
0c1800
19ffc0
19ffc0
39b0c0
39b0c0
787c00
586cc0
186dc0
18ef80
19e600
1be700
1b6380
1879c0
1878e0
187060
186000
000000
000000
ENDCHAR
STARTCHAR 4FAE
ENCODING 20398
SWIDTH 520 0
DWIDTH 20 0
BBX 20 20 0 -3
BITMAP
0c6000
0c6000
0cffe0
0dffe0
1b8000
1aff80
38ff80
78d980
58cd80
1bffe0
1bffe0
18d980
18cd80
18c180
18ffe0
18ffe0
180180
180700
000000
000000
ENDCHAR
STARTCHAR 4FAF
ENCODING 20399
SWIDTH 520 0
DWIDTH 20 0
BBX 20 20 0 -3
BITMAP
0c0000
0cff00
0cff00
0c0300
1bffe0
1bffe0
386000
78ffc0
59ffc0
198c00
180c00
1bffe0
1bffe0
181e00
183f00
18f380
1be1e0
1980c0
000000
000000
ENDCHAR
STARTCHAR 4FB5
ENCODING 20405
SWIDTH 520 0
DWIDTH 20 0
BBX 20 20 0 -3
BITMAP
06ff80
06ff80
0c0180
0cff80
180180
18ff80
380000
7bffe0
5bffe0
1b0060
18ff00
18ff00
186300
183600
181c00
183e00
1be7c0
19c1c0
000000
000000
ENDCHAR
STARTCHAR 4FBF
ENCODING 20415
SWIDTH 520 0
DWIDTH 20 0
BBX 20 20 0 -3
BITMAP
0c0000
0dffc0
0dffc0
1c0c00
19ffc0
19ffc0
398cc0
79ffc0
79ffc0
198cc0
19ffc0
19ffc0
189800
18d800
187000
18fe00
1bc7e0
1981c0
000000
000000
ENDCHAR
STARTCHAR 4FC3
ENCODING 20419
SWIDTH 520 0
DWIDTH 20 0
BBX 20 20 0 -3
BITMAP
060000
06ffc0
06ffc0
0cc0c0
0cc0c0
1cc0c0
3cffc0
6cffc0
4c0c00
0ccc00
0ccfc0
0ccfc0
0ccc00
0ccc00
0dec00
0dbc00
0f1fe0
0c07e0
000000
000000
ENDCHAR
STARTCHAR 4FC4
ENCODING 20420
SWIDTH 520 0
DWIDTH 20 0
BBX 20 20 0 -3
BITMAP
060600
063600
0df6c0
0de6e0
186660
186600
3bffe0
7bffe0
586600
1866c0
1876c0
1bf6c0
1be380
186300
1867a0
186de0
19e8e0
19c060
000000
000000
ENDCHAR
STARTCHAR 4FC5
ENCODING 20421
SWIDTH 520 0
DWIDTH 20 0
BBX 20 20 0 -3
BITMAP
0c1800
0c1b00
0c1980
19ffe0
19ffe0
381800
381800
7998c0
58dd80
18df00
181e00
183a00
187b00
18d980
1b98e0
1b1860
183800
183000
000000
000000
ENDCHAR
STARTCHAR 4FCA
ENCODING 20426
SWIDTH 520 0
DWIDTH 20 0
BBX 20 20 0 -3
BITMAP
061800
063800
067300
0ce180
0dffc0
1dffc0
3c6300
3ce1c0
6dd8c0
0dbf80
0c7f80
0cf180
0ddb80
0d9f00
0c0e00
0c3f80
0dfbe0
0de0e0
000000
000000
ENDCHAR
STARTCHAR 4FCE
ENCODING 20430
SWIDTH 520 0
DWIDTH 20 0
BBX 20 20 0 -3
BITMAP
0c0000
0c7f80
0c7f80
1e6180
1f6180
33e180
71ff80
607f80
0c6180
0c6180
0c6180
0e7f80
1f7f80
1be180
31e180
706180
61ffe0
01ffe0
000000
000000
ENDCHAR
STARTCHAR 4FCF
ENCODING 20431
SWIDTH 520 0
DWIDTH 20 0
BBX 20 20 0 -3
BITMAP
0c0c00
0d8cc0
0dcdc0
1ccd80
180c00
38ffc0
78ffc0
58c0c0
18c0c0
18ffc0
18ffc0
18c0c0
18ffc0
18ffc0
18c0c0
18c0c0
18c1c0
18c180
000000
000000
ENDCHAR
STARTCHAR 4FD0
ENCODING 20432
SWIDTH 520 0
DWIDTH 20 0
BBX 20 20 0 -3
BITMAP
0c00c0
0c70c0
0ff0c0
0fc6c0
18c6c0
18c6c0
3bf6c0
7bf6c0
58c6c0
19e6c0
19f6c0
1bdec0
1bc6c0
1ec6c0
18c0c0
18c0c0
18c1c0
18c180
000000
000000
ENDCHAR
STARTCHAR 4FD1
ENCODING 20433
SWIDTH 520 0
DWIDTH 20 0
BBX 20 20 0 -3
BITMAP
060000
06ffc0
06ffc0
0c3380
0c1e00
1dffe0
3dffe0
6d8c60
4d8c60
0dffe0
0dffe0
0d8c60
0dffe0
0dffe0
0d8c60
0d8c60
0d8de0
0d8dc0
000000
000000
ENDCHAR
STARTCHAR 4FD7
ENCODING 20439
SWIDTH 520 0
DWIDTH 20 0
BBX 20 20 0 -3
BITMAP
0c0000
0c6380
0ce3c0
19ccc0
198c00
381c00
383e00
787300
58e180
19c0e0
1bffe0
1b7f80
186180
186180
186180
187f80
187f80
186180
000000
000000
ENDCHAR
STARTCHAR 4FD8
ENCODING 20440
SWIDTH 520 0
DWIDTH 20 0
BBX 20 20 0 -3
BITMAP
0c03c0
0dffc0
0dfc00
180000
18d980
38d980
38db00
79ffc0
59ffc0
180700
180e00
180c00
1bffe0
1bffe0
180c00
180c00
183c00
183800
000000
000000
ENDCHAR
STARTCHAR 4FDA
ENCODING 20442
SWIDTH 520 0
DWIDTH 20 0
BBX 20 20 0 -3
BITMAP
0c0000
0dffc0
0dffc0
198cc0
198cc0
39ffc0
39ffc0
798cc0
598cc0
19ffc0
19ffc0
180c00
19ffc0
19ffc0
180c00
180c00
1bffe0
1bffe0
000000
000000
ENDCHAR
STARTCHAR 4FDC
ENCODING 20444
SWIDTH 520 0
DWIDTH 20 0
BBX 20 20 0 -3
BITMAP
060c00
060c00
07ffc0
0dffc0
0d8cc0
1dffc0
3dffc0
6d8cc0
4dffc0
0c0000
0fffe0
0fffe0
0c6000
0c7fc0
0c7fc0
0c00c0
0c07c0
0c0780
000000
000000
ENDCHAR
STARTCHAR 4FDD
ENCODING 20445
SWIDTH 520 0
DWIDTH 20 0
BBX 20 20 0 -3
BITMAP
080000
0cff80
0cff80
1cc180
18c180
18ff80
38ff80
780c00
580c00
1bffe0
1bffe0
183e00
187f00
18ed80
19ccc0
1b8c60
1b0c20
180c00
000000
000000
ENDCHAR
STARTCHAR 4FDE
ENCODING 20446
SWIDTH 520 0
DWIDTH 20 0
BBX 20 20 0 -3
BITMAP
006000
00f000
01f800
039c00
070f80
1fffe0
79fce0
300180
1fcd80
1fcd80
18cd80
1fcd80
18cd80
1fcd80
1fcd80
18c180
19c780
19c700
000000
000000
ENDCHAR
STARTCHAR 4FDF
ENCODING 20447
SWIDTH 520 0
DWIDTH 20 0
BBX 20 20 0 -3
BITMAP
061800
063800
067180
0cff80
0cffc0
1c00c0
3c6000
6c7f80
4cff80
0ccc00
0c0c00
0dffe0
0dffe0
0c1e00
0c3b00
0c7180
0de0e0
0dc060
000000
000000
ENDCHAR
STARTCHAR 4FE1
ENCODING 20449
SWIDTH 520 0
DWIDTH 20 0
BBX 20 20 0 -3
BITMAP
0c0c00
0c0c00
0dffe0
19ffe0
180000
18ffc0
38ffc0
780000
58ffc0
18ffc0
180000
18ffc0
18ffc0
18c0c0
18c0c0
18ffc0
18ffc0
18c0c0
000000
000000
ENDCHAR
STARTCHAR 4FE3
ENCODING 20451
SWIDTH 520 0
DWIDTH 20 0
BBX 20 20 0 -3
BITMAP
060000
06ffc0
06ffc0
0cc0c0
0cc0c0
1cffc0
3cffc0
7c0000
6cffc0
0cffc0
0c0c00
0dffe0
0dffe0
0c3600
0c7700
0ce380
0dc1e0
0d80e0
000000
000000
ENDCHAR
STARTCHAR 4FE6
ENCODING 20454
SWIDTH 520 0
DWIDTH 20 0
BBX 20 20 0 -3
BITMAP
061800
061800
07ffe0
0dffe0
0c1800
1dffc0
3dffc0
6c1800
4fffe0
0fffe0
0c3180
0c3fe0
0c7fe0
0ce180
0dd980
0f9980
0d0780
0c0700
000000
000000
ENDCHAR
STARTCHAR 4FE8
ENCODING 20456
SWIDTH 520 0
DWIDTH 20 0
BBX 20 20 0 -3
BITMAP
0c0000
0dffe0
0dffe0
183600
19b640
38b6c0
383600
79ffe0
59ffe0
198000
198000
198000
198000
198000
198000
1b0000
1b0000
1a0000
000000
000000
ENDCHAR
STARTCHAR 4FE9
ENCODING 20457
SWIDTH 520 0
DWIDTH 20 0
BBX 20 20 0 -3
BITMAP
0c0000
0dffe0
0dffe0
183600
183600
19ffe0
39ffe0
79b660
79b660
19b660
19bf60
19ef60
19ede0
19cde0
198c60
198060
1981e0
1981c0
000000
000000
ENDCHAR
STARTCHAR 4FEA
ENCODING 20458
SWIDTH 520 0
DWIDTH 20 0
BBX 20 20 0 -3
BITMAP
0c0000
0fffe0
0fffe0
180000
1bf7e0
3bf7e0
3b3660
7bb760
5bb760
1bf7e0
1b76e0
1b76e0
1b3660
1b3660
1b3660
1b3660
1b76e0
1b66c0
000000
000000
ENDCHAR
STARTCHAR 4FED
ENCODING 20461
SWIDTH 520 0
DWIDTH 20 0
BBX 20 20 0 -3
BITMAP
0c1800
0c1800
0c3c00
0c7e00
18e700
19c380
3bffe0
7b7ee0
580000
181980
199980
199b80
18db00
18c300
180600
1bffe0
1bffe0
180000
000000
000000
ENDCHAR
STARTCHAR 4FEE
ENCODING 20462
SWIDTH 520 0
DWIDTH 20 0
BBX 20 20 0 -3
BITMAP
0c1800
0c1800
0c1f80
0c3f80
1b7b00
3b6e00
3b0f00
7b39e0
5be4e0
1b0e00
1b7c00
1b7300
1b0f00
1b7cc0
1871c0
180700
18fc00
18f000
000000
000000
ENDCHAR
STARTCHAR 4FEF
ENCODING 20463
SWIDTH 520 0
DWIDTH 20 0
BBX 20 20 0 -3
BITMAP
0c1800
0c1800
0dffe0
19ffe0
198000
3998c0
3998c0
79b7e0
59b7e0
19f0c0
19f0c0
19b6c0
19b6c0
1bb6c0
1b30c0
1b30c0
1e33c0
183380
000000
000000
ENDCHAR
STARTCHAR 4FF1
ENCODING 20465
SWIDTH 520 0
DWIDTH 20 0
BBX 20 20 0 -3
BITMAP
0c0000
0cff80
0cff80
18c180
18ff80
38c180
38ff80
78ff80
58c180
18ff80
18ff80
18c180
1bffe0
1bffe0
186300
18e380
19c1c0
1b80c0
000000
000000
ENDCHAR
STARTCHAR 4FF3
ENCODING 20467
SWIDTH 520 0
DWIDTH 20 0
BBX 20 20 0 -3
BITMAP
063600
063600
063600
0df7e0
0df7e0
1c3600
3c3600
6c3600
4df7c0
0df7c0
0c3600
0c3600
0df7e0
0df7e0
0c3600
0c3600
0c3600
0c3600
000000
000000
ENDCHAR
STARTCHAR 4FF8
ENCODING 20472
SWIDTH 520 0
DWIDTH 20 0
BBX 20 20 0 -3
BITMAP
0c1800
0c1800
0dffc0
19ffc0
181800
39ff80
383000
7bffe0
5bffe0
18c300
199980
1b7fe0
1a7f60
181800
19ffc0
19ffc0
181800
181800
000000
000000
ENDCHAR
STARTCHAR 4FFA
ENCODING 20474
SWIDTH 520 0
DWIDTH 20 0
BBX 20 20 0 -3
BITMAP
0c1800
0c1800
0dffe0
1dffe0
186600
38e300
39d980
7bffe0
5bffe0
199980
19ff80
19ff80
199980
19ff80
19ff80
181860
181fe0
180fc0
000000
000000
ENDCHAR
STARTCHAR 4FFE
ENCODING 20478
SWIDTH 520 0
DWIDTH 20 0
BBX 20 20 0 -3
BITMAP
0c1800
0c1800
0dffc0
19ffc0
198cc0
39ffc0
39ffc0
7998c0
5998c0
19ffc0
19ffc0
183600
186600
1bffe0
1bffe0
180600
180600
180600
000000
000000
ENDCHAR
STARTCHAR 500C
ENCODING 20492
SWIDTH 520 0
DWIDTH 20 0
BBX 20 20 0 -3
BITMAP
060c00
060c00
07ffe0
0dffe0
0d8060
1d8060
3c7f80
6c7f80
4c6180
0c7f80
0c7f80
0c6000
0c7fc0
0c7fc0
0c60c0
0c7fc0
0c7fc0
0c60c0
000000
000000
ENDCHAR
STARTCHAR 500D
ENCODING 20493
SWIDTH 520 0
DWIDTH 20 0
BBX 20 20 0 -3
BITMAP
061800
061800
07ffc0
0dffc0
0c0000
18c300
386600
7bffe0
5bffe0
180000
180000
19ff80
19ff80
198180
198180
19ff80
19ff80
198180
000000
000000
ENDCHAR
STARTCHAR 500F
ENCODING 20495
SWIDTH 520 0
DWIDTH 20 0
BBX 20 20 0 -3
BITMAP
0c1800
0c1800
0c3f80
187f80
1bf180
3b5b00
3b0e00
7b1fe0
5bf9e0
1bec00
1b0d80
1b7fe0
1b7fe0
1b0e00
180f00
181980
18f0c0
18e040
000000
000000
ENDCHAR
STARTCHAR 5012
ENCODING 20498
SWIDTH 520 0
DWIDTH 20 0
BBX 20 20 0 -3
BITMAP
0c0060
0df860
0df860
0cc360
19c360
199b60
3bfb60
7bfb60
586360
186360
1bfb60
1bfb60
186360
187860
1bf860
1bc060
1801e0
1801c0
000000
000000
ENDCHAR
STARTCHAR 5014
ENCODING 20500
SWIDTH 520 0
DWIDTH 20 0
BBX 20 20 0 -3
BITMAP
0c0000
0dffc0
0dffc0
1d80c0
19ffc0
19ffc0
398000
79b6c0
79b6c0
19b6c0
19bfc0
19bfc0
198600
1b66c0
1b66c0
1e7fc0
1c7fc0
1800c0
000000
000000
ENDCHAR
STARTCHAR 5018
ENCODING 20504
SWIDTH 520 0
DWIDTH 20 0
BBX 20 20 0 -3
BITMAP
0c0c00
0cccc0
0cccc0
186d80
186d80
380c00
39ffe0
79ffe0
798060
19bf60
19bf60
19b360
19b360
19bf60
19bf60
198060
1981e0
1981c0
000000
000000
ENDCHAR
STARTCHAR 5019
ENCODING 20505
SWIDTH 520 0
DWIDTH 20 0
BBX 20 20 0 -3
BITMAP
0c0000
0c7f00
0c7f00
1b0300
1bffe0
1bffe0
3b3000
7b3fc0
7b7fc0
1b6600
1b0600
1b7fe0
1b7fe0
1b0e00
181f00
183b80
19f1e0
18e0c0
000000
000000
ENDCHAR
STARTCHAR 501A
ENCODING 20506
SWIDTH 520 0
DWIDTH 20 0
BBX 20 20 0 -3
BITMAP
061800
061800
0fffc0
0dffc0
1c3600
3c6300
7cc180
6dffe0
0dffe0
0c0180
0cfd80
0cfd80
0ccd80
0ccd80
0cfd80
0cfd80
0c0380
0c0300
000000
000000
ENDCHAR
STARTCHAR 501C
ENCODING 20508
SWIDTH 520 0
DWIDTH 20 0
BBX 20 20 0 -3
BITMAP
0c0000
0dffe0
0dffe0
198c60
19bf60
39bf60
398c60
79bf60
59bf60
198060
19bf60
19bf60
19b360
19bf60
19bf60
1b0060
1b01e0
1a01c0
000000
000000
ENDCHAR
STARTCHAR 501F
ENCODING 20511
SWIDTH 520 0
DWIDTH 20 0
BBX 20 20 0 -3
BITMAP
0c6300
0c6300
0dffc0
0dffc0
186300
186300
3bffe0
7bffe0
580000
18ff80
18ff80
18c180
18ff80
18ff80
18c180
18ff80
18ff80
18c180
000000
000000
ENDCHAR
STARTCHAR 5021
ENCODING 20513
SWIDTH 520 0
DWIDTH 20 0
BBX 20 20 0 -3
BITMAP
0c0000
0cffc0
0cffc0
1cc0c0
18ffc0
18ffc0
38c0c0
78ffc0
78ffc0
180000
19ffe0
19ffe0
198060
19ffe0
198060
19ffe0
19ffe0
198060
000000
000000
ENDCHAR
STARTCHAR 5025
ENCODING 20517
SWIDTH 520 0
DWIDTH 20 0
BBX 20 20 0 -3
BITMAP
0c1800
0c1800
0dffe0
19ffe0
198060
398060
386300
78e380
59c1c0
1980c0
180000
18ffc0
18ffc0
180c00
180c00
180c00
19ffe0
19ffe0
000000
000000
ENDCHAR
STARTCHAR 5026
ENCODING 20518
SWIDTH 520 0
DWIDTH 20 0
BBX 20 20 0 -3
BITMAP
0c1800
0cd980
0cd980
0c1800
19ffc0
19ffc0
383000
7bffe0
7bffe0
18c180
19ffc0
1bffe0
1b6360
186f00
186600
1860c0
187fc0
183f80
000000
000000
ENDCHAR
STARTCHAR 5028
ENCODING 20520
SWIDTH 520 0
DWIDTH 20 0
BBX 20 20 0 -3
BITMAP
060000
06ffc0
06ffc0
0cc0c0
0cffc0
1cffc0
3cc600
6cc600
4cffe0
0cffe0
0cc600
0cffc0
0cffc0
0cf0c0
0db0c0
0dbfc0
0f3fc0
0e30c0
000000
000000
ENDCHAR
STARTCHAR 5029
ENCODING 20521
SWIDTH 520 0
DWIDTH 20 0
BBX 20 20 0 -3
BITMAP
060c00
06ffc0
06ffc0
0c0c00
0cffc0
1c0c00
3dffe0
6dffe0
4c0000
0cffc0
0cffc0
0cc0c0
0cffc0
0cc0c0
0cffc0
0cc0c0
0cc3c0
0cc380
000000
000000
ENDCHAR
STARTCHAR 502A
ENCODING 20522
SWIDTH 520 0
DWIDTH 20 0
BBX 20 20 0 -3
BITMAP
0c0000
0cf7c0
0df7c0
0d80c0
1980c0
19f7c0
39f7c0
7980c0
5980c0
19ffc0
19ffc0
183600
183600
183600
186600
186660
19c7e0
1b83c0
000000
000000
ENDCHAR
STARTCHAR 502C
ENCODING 20524
SWIDTH 520 0
DWIDTH 20 0
BBX 20 20 0 -3
BITMAP
063000
063fc0
063fc0
0c3000
0dff80
1dff80
3d8180
6dff80
4dff80
0d8180
0dff80
0dff80
0c1800
0fffe0
0fffe0
0c1800
0c1800
0c1800
000000
000000
ENDCHAR
STARTCHAR 502D
ENCODING 20525
SWIDTH 520 0
DWIDTH 20 0
BBX 20 20 0 -3
BITMAP
060780
06ff80
06fc00
0c0c00
0dffe0
1dffe0
3c7f00
6dede0
4d8ce0
0c1800
0fffe0
0fffe0
0c6300
0c7300
0c1e00
0c1f80
0df1e0
0de0e0
000000
000000
ENDCHAR
STARTCHAR 502E
ENCODING 20526
SWIDTH 520 0
DWIDTH 20 0
BBX 20 20 0 -3
BITMAP
0c0000
0cffc0
0cffc0
18ccc0
18ffc0
38ccc0
38ffc0
78ffc0
580c00
1bffe0
1bffe0
181c00
183e00
186f00
18cd80
1b8ce0
1b0c60
180c00
000000
000000
ENDCHAR
STARTCHAR 503A
ENCODING 20538
SWIDTH 520 0
DWIDTH 20 0
BBX 20 20 0 -3
BITMAP
0c0c00
0cffc0
0cffc0
180c00
18ffc0
380c00
3bffe0
7bffe0
580000
18ffc0
18ffc0
18c0c0
18ccc0
18ccc0
181e00
183b80
19f1e0
19c060
000000
000000
ENDCHAR
STARTCHAR 503C
ENCODING 20540
SWIDTH 520 0
DWIDTH 20 0
BBX 20 20 0 -3
BITMAP
0c1800
0c1800
0dffc0
19ffc0
181800
18ff80
38ff80
78c180
58ff80
18c180
18ff80
18ff80
18c180
18ff80
18ff80
18c180
1bffe0
1bffe0
000000
000000
ENDCHAR
STARTCHAR 503E
ENCODING 20542
SWIDTH 520 0
DWIDTH 20 0
BBX 20 20 0 -3
BITMAP
0c0000
0c3fe0
0f3fe0
1b0600
1b0600
3b3fc0
7bffc0
7bf0c0
1b36c0
1b36c0
1b36c0
1b76c0
1bf6c0
1bb6c0
1b0500
180d80
1838c0
187060
000000
000000
ENDCHAR
STARTCHAR 5043
ENCODING 20547
SWIDTH 520 0
DWIDTH 20 0
BBX 20 20 0 -3
BITMAP
0c0000
0dffe0
0dffe0
198000
19bfc0
39b0c0
39bfc0
79b0c0
59bfc0
198c00
19ffe0
19ffe0
199980
198f00
198d80
19b8c0
19ffe0
19ffe0
000000
000000
ENDCHAR
STARTCHAR 5047
ENCODING 20551
SWIDTH 520 0
DWIDTH 20 0
BBX 20 20 0 -3
BITMAP
0c0000
0dfbe0
0dfbe0
0d9860
199860
19fbe0
39fbe0
798000
59f7e0
19f7e0
198660
1986e0
19f6c0
19f7c0
198380
1987c0
199ee0
199c60
000000
000000
ENDCHAR
STARTCHAR 5048
ENCODING 20552
SWIDTH 520 0
DWIDTH 20 0
BBX 20 20 0 -3
BITMAP
060000
06ffc0
06ffc0
0cc0c0
0cffc0
1cc0c0
3cffc0
6cffc0
4c6000
0cffe0
0dffe0
0f8c60
0ddf60
0cf360
0cc060
0cfc60
0cfde0
0c01c0
000000
000000
ENDCHAR
STARTCHAR 504C
ENCODING 20556
SWIDTH 520 0
DWIDTH 20 0
BBX 20 20 0 -3
BITMAP
0c6300
0c6300
0dffc0
19ffc0
186300
387b00
381800
7bffe0
5bffe0
183000
186000
18ffc0
19ffc0
1b60c0
1a60c0
187fc0
187fc0
1860c0
000000
000000
ENDCHAR
STARTCHAR 504E
ENCODING 20558
SWIDTH 520 0
DWIDTH 20 0
BBX 20 20 0 -3
BITMAP
060000
06ffc0
06ffc0
0cccc0
0cffc0
1cffc0
3cccc0
6cffc0
4cffc0
0c0000
0dffe0
0dffe0
0ccc80
0ccd80
0cc700
0cf380
0cf1e0
0cc060
000000
000000
ENDCHAR
STARTCHAR 504F
ENCODING 20559
SWIDTH 520 0
DWIDTH 20 0
BBX 20 20 0 -3
BITMAP
0c1800
0c1800
0dffc0
1dffc0
1980c0
19ffc0
39ffc0
798000
79ffc0
19ffc0
19d6c0
1bd6c0
1fffc0
1effc0
18d6c0
18d6c0
18c1c0
18c1c0
000000
000000
ENDCHAR
STARTCHAR 5055
ENCODING 20565
SWIDTH 520 0
DWIDTH 20 0
BBX 20 20 0 -3
BITMAP
06c600
06c600
06c6c0
0cf7c0
0cf700
1cc660
3cf7e0
6cf3c0
4cd800
0c1800
0cffc0
0cffc0
0cc0c0
0cffc0
0cc0c0
0cffc0
0cffc0
0cc0c0
000000
000000
ENDCHAR
STARTCHAR 505A
ENCODING 20570
SWIDTH 520 0
DWIDTH 20 0
BBX 20 20 0 -3
BITMAP
0cc600
0cc600
0cc600
18c600
18c7e0
3bf7e0
3bfcc0
78ccc0
58ccc0
1bf4c0
1bf6c0
1b36c0
1b32c0
1bf380
1bf380
1b06c0
181c60
181820
000000
000000
ENDCHAR
STARTCHAR 505C
ENCODING 20572
SWIDTH 520 0
DWIDTH 20 0
BBX 20 20 0 -3
BITMAP
0c0c00
0dffe0
0dffe0
180000
18ff80
38ff80
38c180
78ff80
580000
1bffe0
1bffe0
1b0060
18ff80
18ff80
180c00
180c00
183c00
183800
000000
000000
ENDCHAR
STARTCHAR 5065
ENCODING 20581
SWIDTH 520 0
DWIDTH 20 0
BBX 20 20 0 -3
BITMAP
0c0600
0c1fc0
1b9fc0
1b86c0
19bfe0
39bfe0
7986c0
7bdfc0
1bdfc0
18c600
18ffc0
1effc0
1ec600
1bbfe0
19bfe0
1be600
1f7fe0
1a1fe0
000000
000000
ENDCHAR
ENDFONT
